<mxfile host="Electron" modified="2024-04-13T21:31:13.574Z" agent="Mozilla/5.0 (Windows NT 10.0; Win64; x64) AppleWebKit/537.36 (KHTML, like Gecko) draw.io/24.2.5 Chrome/120.0.6099.109 Electron/28.1.0 Safari/537.36" etag="vHH8_l4GP2nEC44pzA4y" version="24.2.5" type="device">
  <diagram name="Page-1" id="03018318-947c-dd8e-b7a3-06fadd420f32">
    <mxGraphModel dx="1234" dy="726" grid="1" gridSize="10" guides="1" tooltips="1" connect="1" arrows="1" fold="1" page="1" pageScale="1" pageWidth="827" pageHeight="1169" background="none" math="0" shadow="0">
      <root>
        <mxCell id="0" />
        <mxCell id="1" parent="0" />
        <mxCell id="677b7b8949515195-1" value="" style="whiteSpace=wrap;html=1;rounded=0;shadow=0;labelBackgroundColor=none;strokeColor=#000000;strokeWidth=1;fillColor=none;fontFamily=Verdana;fontSize=12;fontColor=#000000;align=center;comic=1;" parent="1" vertex="1">
          <mxGeometry x="20" y="220" width="1060" height="810" as="geometry" />
        </mxCell>
        <mxCell id="677b7b8949515195-2" value="BANNER DO SITE" style="whiteSpace=wrap;html=1;rounded=0;shadow=0;labelBackgroundColor=none;strokeWidth=1;fontFamily=Verdana;fontSize=28;align=center;comic=1;" parent="1" vertex="1">
          <mxGeometry x="40" y="235" width="570" height="95" as="geometry" />
        </mxCell>
        <mxCell id="677b7b8949515195-3" value="Search" style="strokeWidth=1;shadow=0;dashed=0;align=center;html=1;shape=mxgraph.mockup.forms.searchBox;strokeColor=#999999;mainText=;strokeColor2=#008cff;fontColor=#666666;fontSize=17;align=left;spacingLeft=3;rounded=0;labelBackgroundColor=none;comic=1;" parent="1" vertex="1">
          <mxGeometry x="860" y="300" width="200" height="30" as="geometry" />
        </mxCell>
        <mxCell id="677b7b8949515195-4" value="&lt;font style=&quot;font-size: 10px;&quot;&gt;HOME&lt;/font&gt;" style="text;html=1;points=[];align=center;verticalAlign=top;spacingTop=-4;fontSize=14;fontFamily=Verdana;labelBorderColor=none;" parent="1" vertex="1">
          <mxGeometry x="660" y="272" width="60" height="20" as="geometry" />
        </mxCell>
        <mxCell id="677b7b8949515195-5" value="&lt;font style=&quot;font-size: 10px;&quot;&gt;FORNECEDORES&lt;/font&gt;" style="text;html=1;points=[];align=left;verticalAlign=top;spacingTop=-4;fontSize=14;fontFamily=Verdana" parent="1" vertex="1">
          <mxGeometry x="740" y="272" width="60" height="20" as="geometry" />
        </mxCell>
        <mxCell id="677b7b8949515195-6" value="&lt;font style=&quot;font-size: 10px;&quot;&gt;PLANTAS&lt;/font&gt;" style="text;html=1;points=[];align=center;verticalAlign=top;spacingTop=-4;fontSize=14;fontFamily=Verdana" parent="1" vertex="1">
          <mxGeometry x="870" y="272" width="60" height="20" as="geometry" />
        </mxCell>
        <mxCell id="677b7b8949515195-7" value="&lt;font style=&quot;font-size: 10px;&quot;&gt;CONTATO&lt;/font&gt;" style="text;html=1;points=[];align=left;verticalAlign=top;spacingTop=-4;fontSize=14;fontFamily=Verdana" parent="1" vertex="1">
          <mxGeometry x="990" y="272" width="60" height="20" as="geometry" />
        </mxCell>
        <mxCell id="677b7b8949515195-8" value="&lt;div style=&quot;&quot;&gt;&lt;span style=&quot;background-color: initial;&quot;&gt;IMAGEM COM UMA BREVE DESCRIÇÃO DO QUE PRETENDE O SITE&lt;/span&gt;&lt;/div&gt;" style="whiteSpace=wrap;html=1;rounded=0;shadow=0;labelBackgroundColor=none;strokeWidth=1;fillColor=none;fontFamily=Verdana;fontSize=12;align=center;comic=1;" parent="1" vertex="1">
          <mxGeometry x="30" y="400" width="200" height="530" as="geometry" />
        </mxCell>
        <mxCell id="677b7b8949515195-9" value="" style="line;strokeWidth=1;html=1;rounded=0;shadow=0;labelBackgroundColor=none;fillColor=none;fontFamily=Verdana;fontSize=14;fontColor=#000000;align=center;comic=1;" parent="1" vertex="1">
          <mxGeometry x="20" y="340" width="1060" height="10" as="geometry" />
        </mxCell>
        <mxCell id="677b7b8949515195-10" value="" style="whiteSpace=wrap;html=1;rounded=0;shadow=0;labelBackgroundColor=none;strokeWidth=1;fillColor=none;fontFamily=Verdana;fontSize=12;align=center;comic=1;" parent="1" vertex="1">
          <mxGeometry x="30" y="360" width="1040" height="20" as="geometry" />
        </mxCell>
        <mxCell id="677b7b8949515195-16" value="" style="verticalLabelPosition=bottom;shadow=0;dashed=0;align=center;html=1;verticalAlign=top;strokeWidth=1;shape=mxgraph.mockup.graphics.simpleIcon;strokeColor=#999999;rounded=0;labelBackgroundColor=none;fontFamily=Verdana;fontSize=14;fontColor=#000000;comic=1;" parent="1" vertex="1">
          <mxGeometry x="250" y="400" width="800" height="530" as="geometry" />
        </mxCell>
        <mxCell id="677b7b8949515195-26" value="" style="whiteSpace=wrap;html=1;rounded=0;shadow=0;labelBackgroundColor=none;strokeWidth=1;fillColor=none;fontFamily=Verdana;fontSize=12;align=center;comic=1;" parent="1" vertex="1">
          <mxGeometry x="30" y="950" width="1040" height="70" as="geometry" />
        </mxCell>
        <mxCell id="QmWCMqJEr-_yizS6cmkQ-1" value="&lt;font style=&quot;font-size: 16px;&quot;&gt;SLOGAN DO SITE&lt;/font&gt;" style="whiteSpace=wrap;html=1;rounded=0;shadow=0;labelBackgroundColor=none;strokeWidth=1;fontFamily=Verdana;fontSize=28;align=center;comic=1;spacingTop=-5;" vertex="1" parent="1">
          <mxGeometry x="630" y="235" width="430" height="25" as="geometry" />
        </mxCell>
        <mxCell id="QmWCMqJEr-_yizS6cmkQ-2" value="" style="shape=image;imageAspect=0;aspect=fixed;verticalLabelPosition=bottom;verticalAlign=top;image=data:image/png,iVBORw0KGgoAAAANSUhEUgAABJ0AAADsCAYAAADegdcwAAAACXBIWXMAAC4jAAAuIwF4pT92AAAAPHRFWHRDb21tZW50AHhyOmQ6REFHQUxTOHVaRVk6MTMsajoyNTQ2MDgyNzgyOTQ5Mzk2NDQxLHQ6MjQwMzI4MTP3HBFbAAAE6GlUWHRYTUw6Y29tLmFkb2JlLnhtcAAAAAAAPHg6eG1wbWV0YSB4bWxuczp4PSdhZG9iZTpuczptZXRhLyc+CiAgICAgICAgPHJkZjpSREYgeG1sbnM6cmRmPSdodHRwOi8vd3d3LnczLm9yZy8xOTk5LzAyLzIyLXJkZi1zeW50YXgtbnMjJz4KCiAgICAgICAgPHJkZjpEZXNjcmlwdGlvbiByZGY6YWJvdXQ9JycKICAgICAgICB4bWxuczpkYz0naHR0cDovL3B1cmwub3JnL2RjL2VsZW1lbnRzLzEuMS8nPgogICAgICAgIDxkYzp0aXRsZT4KICAgICAgICA8cmRmOkFsdD4KICAgICAgICA8cmRmOmxpIHhtbDpsYW5nPSd4LWRlZmF1bHQnPkphcmRpbSBMaXZyZSAtIDE8L3JkZjpsaT4KICAgICAgICA8L3JkZjpBbHQ+CiAgICAgICAgPC9kYzp0aXRsZT4KICAgICAgICA8L3JkZjpEZXNjcmlwdGlvbj4KCiAgICAgICAgPHJkZjpEZXNjcmlwdGlvbiByZGY6YWJvdXQ9JycKICAgICAgICB4bWxuczpBdHRyaWI9J2h0dHA6Ly9ucy5hdHRyaWJ1dGlvbi5jb20vYWRzLzEuMC8nPgogICAgICAgIDxBdHRyaWI6QWRzPgogICAgICAgIDxyZGY6U2VxPgogICAgICAgIDxyZGY6bGkgcmRmOnBhcnNlVHlwZT0nUmVzb3VyY2UnPgogICAgICAgIDxBdHRyaWI6Q3JlYXRlZD4yMDI0LTAzLTI4PC9BdHRyaWI6Q3JlYXRlZD4KICAgICAgICA8QXR0cmliOkV4dElkPjRkZDhkMjNkLWEyZjEtNGIwMy04NTlhLTFjMGRiYzgxMjk5NDwvQXR0cmliOkV4dElkPgogICAgICAgIDxBdHRyaWI6RmJJZD41MjUyNjU5MTQxNzk1ODA8L0F0dHJpYjpGYklkPgogICAgICAgIDxBdHRyaWI6VG91Y2hUeXBlPjI8L0F0dHJpYjpUb3VjaFR5cGU+CiAgICAgICAgPC9yZGY6bGk+CiAgICAgICAgPC9yZGY6U2VxPgogICAgICAgIDwvQXR0cmliOkFkcz4KICAgICAgICA8L3JkZjpEZXNjcmlwdGlvbj4KCiAgICAgICAgPHJkZjpEZXNjcmlwdGlvbiByZGY6YWJvdXQ9JycKICAgICAgICB4bWxuczpwZGY9J2h0dHA6Ly9ucy5hZG9iZS5jb20vcGRmLzEuMy8nPgogICAgICAgIDxwZGY6QXV0aG9yPkNhcmxvcyBGdXJsYW48L3BkZjpBdXRob3I+CiAgICAgICAgPC9yZGY6RGVzY3JpcHRpb24+CgogICAgICAgIDxyZGY6RGVzY3JpcHRpb24gcmRmOmFib3V0PScnCiAgICAgICAgeG1sbnM6eG1wPSdodHRwOi8vbnMuYWRvYmUuY29tL3hhcC8xLjAvJz4KICAgICAgICA8eG1wOkNyZWF0b3JUb29sPkNhbnZhPC94bXA6Q3JlYXRvclRvb2w+CiAgICAgICAgPC9yZGY6RGVzY3JpcHRpb24+CiAgICAgICAgCiAgICAgICAgPC9yZGY6UkRGPgogICAgICAgIDwveDp4bXBtZXRhPlxuPRUAARaLSURBVHic7N17nF1Vfffxz1p7n5lM7twhECzIVUBCICRBQEC8X9qiDwoIYvvYekO0Vi5yEVpUirZeUOGltrUParVPq4/1qfUC1ksRCgESoAIixkASbibknplz9lqrf6y9z+w5OTNzzsw5M5PwffOaV3Jmzl577X1OXuF881u/ZR4b6A+IiIiIiIiIiIh0kJ3sCYiIiIiIiIiIyK5HoZOIiIiIiIiIiHScQicREREREREREek4hU4iIiIiIiIiItJxCp1ERERERERERKTjFDqJiIiIiIiIiEjHKXQSEREREREREZGOU+gkIiIiIiIiIiIdp9BJREREREREREQ6TqGTiIiIiIiIiIh0nEInERERERERERHpOIVOIiIiIiIiIiLScQqdRERERERERESk4xQ6iYiIiIiIiIhIxyl0EhERERERERGRjlPoJCIiIiIiIiIiHafQSUREREREREREOk6hk4iIiIiIiIiIdJxCJxERERERERER6TiFTiIiIiIiIiIi0nEKnUREREREREREpOMUOomIiIiIiIiISMelkz0BaZXJfw0Nj8vfExERERERERGZGrofOpnRn9JNIQSMMcM+nqjzG2MIIYZD5d83P2jHArRizt77+nj1p+PGNDdjDN77Ib9vHHuHqTW5nmbzHPH6WpzbeMdoRXE9E/2+GMlEXfuwlGGKiIiIiIhIB0y5SqdOf+BuJUgon7McDI3lPM3m3vi9sVxfs/Bs8ORtD9d0zOL3I13LcIFTu2FT47WU59L4uB3tvn+stWM6rps68f4QERERERERmWxd7+k01uCgk8of4q21I4ZAYz13EZQ0GqkqaCzn6OS9aRyrWZVTcV3l+XcrnCnOP1q11UjanVtj2Nhpnar8avd8IiIiIiIiIpOt65VOzQKe0ZZvdVq5gmek8cvPK5aatWq0Cqm2wwATaGmdU5OleK0a7l6Ul9CVH4/2nFY1uxflJW7jCenaDea6HdIMF0Z20lSq0hIREREREREpTPjudaN9yG9naVW7FTHFB/NiSdVw5x5LRdF4qnN2mAeOVhvrlPs5NVt+Z8KOq+/C4AEU0VYIDvBAwJiQ/55hg6VmYUrjMsVyEFeem29yXONzygFgN0OkZmFhs+qu8ZyjfJ7i+E6GRI1LE9uhyigRERERERHplinZ0wma9/lpVm0zFpNdFdLsusbTw6g8buP3g8l/X/5ZCARiGFUcbWxaOn7HxueNiuCu8ZyNgV5jkNROONJ4bLvVZ60qB2XFNXS6QqnxfjVb5tnKPBuPG8+SS1VIiYiIiIiISDdNeKXTWO1KFRmNwVphPAHADiHJcE3HMRiTYEliIkWshgohVjkVX/FxC+epn87sEEDVv9ekimio4twjm6ilcOXwqTjvsE3cWxhzrFq93o6+b0REREREREQ6ZMpVOpV1sgn3VDRcFdB4x4KGCqSirKno/2QsmEDwAYMF4wGPweSlT0XljyWGVPWRiEVTeZAUQqmn1I6hUz5IDDaAQMDGs8TjjM+PKZ9j9Ovs1vthuAqnkc43WqVRs2bto43ZeN7Rel21smS12fO0452IiIiIiIh005QOnWDkD+fFh/Cd+cPzcP2Sxno9NoBvONQChLyeyEDAAxaTWPAxELIhyc8LxfI6F+qL7/LgKBAweB+gvtTND1kiGKuDbL6cLy7gMxh8fqwxJmZcGILPF/gZP/j08r1pvLY8FBpr1VEr2g06O7HzYfn4xvfzaMsK262GGtJby/th+5uJiIiIiIiIjNeUD51G0vhBeqSwoPFnUymoGm9fpyFjmbxOyVhC8LHAKQSMtVgLWZaBMSQ2kPmMJEnxLgZJ1iY4Aj4YsJYkBIyNjb99AO8CztWoZhnO+xgkeU9iLcYYEmNI05QkSehJUlJr8CEQjI3BCRB8wBfdpILBmoAPFmMNtghYLFC6J6UbtcP1ll/74l62cr/H8/Py85Ikabk/VTvnLf9+vMFQ4z3q1LgiIiIiIiIiI5kyoVO3Q6CJXKLXWLHSSmVOq8EZxAqV8uNy+BaK8Cp/bIrqoxDIqhlJmuKdJ3hHmiZktQxjUzywdds21m3cyIbNm1j79FOsWvMEzzzzDFu3buXZZ59l48aNbNu+nVqtSuYczscqp8RYDGCtoadSYdb0WcydM4fdd9+d2bNmsdcee3LwQQex7957s8fc3Zgzaxa9vdOo2AQTLEnwMWQiYAmx1VQIOO+xtrjGvCn6DvVPg5rdt2Ff91Buo77j8+uvmWne26p+v9usiGqlMqqTSwgbl3DuqktVRUREREREZOoxjw30d/dTaIs5UrGEqJ3lQiM9d6Sfj7QrW6e000envCtZs+VUjVVQjaFT8dhaiyEpBsXgMSEuucuCJxioZp6eaX1krsq6DRu4/5e/5J777uOee+9l1eOPs3n7NkJisdaSzphGpZLWz+FDrKKqJAk+D5zKu7HlJwYfM520EgMuU3MMbN+Oq9awAfp6p3HUYYezdMkSTjx+EYe98BBmzegjNSmuWsUXl2BdackeeWDWXiXTsK/1MKFTU6ZosD52ExH4lBugN75Hys8ZdU7KpURERERERKQDpkzo1OkgaLTQaSKW1rV6Hu89aZoOCZ3KYxSB1EjngfzeBZs36g55ayVPmlTIgmfFw7/k3vsf5Ge3/4In1q5m09atBBuX1nkCJrH44jx5rycIYEJc+lacpzhn3kw85Ocuqqvi4bFzlDHF7nghr4oy8bEPeO/oSSqkwJ5zd2PBUcew9IRFLDz+OPbdZ18IDlPcnyQBHwbfTsW5zY4ZSbNqosZKI4Ol5TcnjFjxNNU020mwrcBLoZOIiIiIiIh0QNdDJ2OHfuifDM2aT48WBpU/qHe7MqpczVOeX72KCEMgD4by/wixGipgwHsSE5t1e2+x1pB5z+82bWDZiuX81z3LWP7ACp5av47tA1V6enshsXifNwfPl655YimTIVZHFTvPFTvaGUzMskycTwwn8p8bm1dXxTjHEftIhRDysCpg8w3visbiMfopxT81h6/VmDl9BvvP249jDj+CJScu5rhjj2W32XNIMYTgIASSJMUFF5ugJwkuy0iSBBfCjlFSyJOvIfc8/36rdoLQqWPvU4VOIiI7tSzL+Ol/3cmd993Liod+yfoNG9iwaRO9PT3sNmcO8/ebx4kLFnDakqUcNP/AyZ6uyC5p1Zo1/OTOO7hr+X08vmYNz23aSP/AAHNnz2b3OXM55ogjWHLcQl66ZCk9lcpkT1dEpGu6HjoFOldV1Kldy6ZSE/GRGoiXQyfwYBK8d1Cq3jGAJYY7zgTWrXuO5Q8+wPd+9APuWLaMavC4xJD29pB5T96jG9twPuMDFAGhD/HLeKyxMSTyDmuTfBe7fBATl6gVgVUMkJIYDBkI+TIvk6dNxoL3QLFrWvEaGjMYduWVUDhPcA5frTF31mxOXLSIs17zOl502CHMmTUrVksZ8DZWhlXSFF/LwNp60Dl4I4sYrPw906wv+Qgv1NDQaSr2R+rY+3pqXZaIiLThOz/8AV/6xtdZ+/TToz7XGMOZJ5/Cey54GwfO238CZiey61v79NN84ZZ/4Ps/+Y/BFQQj2GfPPfnfbzmXs1716inz+UREpJMmrNIJJrfaqTj/aEvVxjN2O39RlJuMN1aoDDc/G8CF4jkemxiCN5AkLFtxP//nG1/j9jvvwKeGysw+qllGGgweqGVZ3MEOSPKeTOXqqtQNFv6EEGLPJgs2GKxN4/PzcCgY8AZ88HgfILEU0Zgt6oxMHkaFgLV5dRYeH/LrNdmQ6y9Xd9kAoejx5eISup4kpbplGzN7Krz2Fa/kwvPO5wXzD6CWebxz9FYqcWc+wOTXV3RtKpYCNrurLb8XmlQ6tVpZNFEBVcfOo9BJRGSnU61W+cin/pof/OynbR87Y/p0PnbJZZyy6MQuzEzk+eOu5cu59PqPsnHz5raPPX3pSVz355fQN21aF2YmIjJ5JqTSqX6y52l6P1IV02g/K4dTmSt6PkGaWp5dv45//u6/cutPf8rqp56mmtWgYnEm4AL5bnAxCPJFVdQwoZs3QKBegeTz/kt4Q2oqOOcADwR8iL9CrIoqciZr0rhUzgRskkC+5C84MCb2i3IGPB5jQ/29UW4gH0LIt6orVvXF3lCZc0yzKQYPmaMv7eGwg1/IH77u9bzmZWeSJinGGFwIVEpN2evXF0LLWUp5WWXjLnZjqbabyNAJdpxX28vuFDqJiOxUnHO8+6oruHvF8jGPYY3hhg9fyRknvaSDMxN5/vjFPcu4+NqP5P/PPDYvPuJIvnj9DVpuJyK7lCnTSLz+9FGqfabK0rjGeQwXLLSzg17TBth5N27nPQZDFuC/f/MrvvfD7/Ojn/yY5zZtJpnWW/95TAxsPp6PIU0wsdooH4e86Tf5s40xZMFjnI+9nICenh7mTp/JrFmzmNk3g9lzZjF37lxmzZjJ9L7p9PX2kFobQzBjqGU1sv4q27duY8OG51j/3HNs3b6NLdu3sWXLNrZs3UbNB7LgIAFvGVJyHBqu2+T9ofBx2aAHkhBbRxV79LlqBj7wggPm84evfR0vO/lUDpg3j8TlY9u8eiofu5US5/JrUX6NA67p7oqjhUmjvZ87qVPLTxU6iYjsXP7q5i/wze/+67jHmd7Xx1f++lMc8oLfG/+kRJ5Hnli7lvM/8D42bdky7rHecObLueYDH+zArEREpoYpFzpNdeWwqHFpXGNQMZyi2siGWGEUQiDWCMVqHEfeTwkLLhDyJXIrH3+Cz//tl7ntjp8TelJsTwWHx3iP8RCMiT2RiEvxjC/mFat0ih5IiY3j+ry5dpKk7DVnN150xBEcdtDBvPiIF/GCA+Yzp6+P2bNmxsohfN4APPZCCmHwX3HKFVnWDC7Z80DV1di8tZ/1mzfy65Uruf+XD/Krx37NI795jC3bthICJPl9DcbEXe0MhGCwPu89lZ/LWEMVsAQIHo8hv23Utm5jrxmzOfv3z+Ltb34L06f1kfSkZHmKZo0hBEOaBYI1ZCbUw5VyP/Gi33hjE3mM70rYORV7Qyl0EhHZeTz4q0e44AMXd2y8E455MV+8/oaOjSfyfHDxNVfz87vv6th4X7z+Bk445sUdG09EZDJN2dCpWxUi462UGm1ZXKtjG1Pfh47gPY5AYizWGBwB5x0hQE+ll1/+5lE++/mbuPuBFdhKSr+rgbWlyp24FM4b6PGxeTeJpeodNol7w1WShKxWozowwMwZMznysMNZuOA4Tl50IgfNP5AZPb2kNiE4R5L3fsovasiSvNgHanCpWfF9733p5/ljEwMuTwyTXOxgjifgsozN27fxxFNruf3OO7lr2d088uivqDpH2juNYC2h5gneY20ct+YcwcbldzbfvW+wksmSGEtWq1HxcN7/ejN/fP4FTKtUmEZCFY+3kKYpLnN5c/MdXzcTmlcMBcZeKj2S8s6FUyZ8miLTEBGZ6qq1Go+t+i2P/va3PLF2LU89+wxPP/ssm7dupX+gn4FqjZ5Khd7eHubOms1+e+/NCw44gMULjuPIQw7tyD9mvOeqK7jj3ns6cDWDbvrox1m84LiOjimyq7r/4Ye48IMf6OiYC446ir+74a87OqaIyGSZsqFTx7Z/Z+gHe+87V7HSLBgbGs40DxLqS8mAhLw5twXjYsPrmneQJKxc/ThfvuUW/vPu/2LbwADOJnFXOO/ibnB54FLsRBfypXTBgE0SvA+4WpVeW+HA/fbnpSedxKLjFvKCAw9krz32JAmGCobgXOzFlJj6/Kw1hODyHlJhh6VlRVBThE3F/ag/L4Qh4UX9eYZYMRU8WEuwkPlA5hzPrV/Pwyt/zc/vuJP7HnyQJ9Y+CSGQpClVn8WKpGAwBhJC3vPJE4zNu00FEpvgvCf1gb3m7sF5b3oTb37DWfSmCRkBFzwVm8QeTyaGTOX3hGXHwMkYA8Z3rQG9QicRkZ3Pe6++krtWLK9vYtGu+fPm8b4L/4iXveTkMc9hw6ZNnHnum9taPt6K33/FK/nIxZ39EC2yq7rh5pv4xne/0/Fx//0rt7DPXnt1fFwRkYmWTvYEmmlcpjbeJUidWsJUbupdPG48T7Pv7zifWDkUF9MZkhAbZRubUPOODdu28K3//11u+cY32VTrhzTFWwsu7jhnY2OjeK582RgBrEkgAZfvWjd/3jxOXrSEM089jSMPOZTeJMU4H6uZQoLPaqRpSs2CtQneOzAmD5xiSBR3uSuWDhbhzOB1lnfAK98n8qAq5MsHsQZjYxVWIIZswXsSZ6mEQGos8/fZj/322pvTl57M1lqV+1Y8wM9uv50777qLZzeso+ozTFLBe48LkMaGVPF1sSZWKTmPNVB1Geu2beRvvnQz37/1Vt75tgtZcvyi2JgxD9m8icdbY8CYHcKWbvYOa3wviYjIzuWRxx4bc+AEsQfMhz52HX909pt579vePqYxfnHPso4HTgB33LOs42OK7KruuLc7f15uv2cZZ73q1V0ZW0RkIk3J0MkYU1/S1ekP5eMZr7GP03BjF6HZ8PPPK4JCrPoJweMsuOBY9sByLrnmKrYP1MisIaQpnoDxg1VEzmWQ2jy8imGTNQmhltGXWk46+SW89S3ncuShh2G9J2Se1BiMC1gDJAneeEyakOEx1uLi1nUQAiGAMQnex6qiGED5+rUVhUwj3itr6v2pDJAmCc65ev8k6wNp0kOWZRhrsRiCC3kFl6fPJixZcDwvWbSYAZdx14p7uflLX+Thlb8BTAzJMl8P22JoZ3B4LIa0p4fttRppYvn1qt/ygSuv4PQTFnPt1VfTN20aSSAGY5YY6MWXBROa9HOKj0Z/g7RouN3lWjVa6FmuPmv2cxERmTr+7p++ybx99h3Th8sn1q7twozgmXXr6B8YYFpvb1fGF9lV+BB44sknuzL242vWdGVcEZGJ1vXQaazL5Jp/8J98xQf64Xo6AU2rf4Y+0YGHxKZxaVdi2LhlM3/1mU9x2x2/oBZc3KYNA95jQlz0ZfPlbDaJ1U4mP5evVTn8hYfy5j84i5csOpHZs2ZiMdhaLc7HJOSdlXCUGmebWCkFgw20bSnQMKbx3scqpxhKjfza1O9F/ti5uFSvaBqOSci8I6ZgeQt1E/LG4ZBiCFhCLaOC59QFx7P4M59j9ZNP8k/f/jbfu/VHbGGAtFLBu4z8buGJS+Q8kOQBYT8Oeiw/WbGMPzj3HN5xwfmcfdYbyWqO1KT1qqy4u1++S50NBF/uXUXp9+N7T3aq8q7ZOJ1clioiIhPj5q/dwmtOP6PtkGf9xg1dmhGs2/Ac+++zb9fGF9kVbNi4cdh/7Buvbv75FhGZSF0Pndr58LszfGAey9yGVDzl4UaCxTtHDc9//OznfPILn+WZzRvITIyHjIm7tFWcjT2QTNzVzVji8roQSG3CouMW8sbXvYETjj2WmZVejLNx5zoT8D5W/3gTm5KHetPtQbZops1gQDRcBU3jNY3p+vPH3gyet/yzYvGeCZCYWHWVWkvwnj5jOfSAA7j8oou44Nxz+Ldbf8iPfnwrq9auiY3Hg8dkAY/HBENKbMoeEgPB0B8C67LtXH/T57lz+X285x1/wsEHHJgvHxxcLmgM+ODrj4uqu04GoN14j+8Mf37k+WX9hg2s37iB/v5++qtVEmuZ1tvLjOnT2W/vfaikU7LYVmTC/W79em67/T957Rkvm+ypiHTcpi1bePrZZ3lm3e/Y1t9P/0A/wQem9fbSN20a++61N/PnzVNlnYjILkr/xz+KZjuZlR+PtuSuPEaIyQaJTyA41m/axI1//yX+6XvfYfr0GTgsNkkJA1XSNMHG1WME43E2EGzs/zTNVlh41DFccM45nHDsgljpYwLex2V0IcTeTyYxxaK4vLop71henltxLQ3zDYOlPfnPSuVR+PjL0F7hI93F0hhFmVQRwvnB35YCMAO4kMXAp6hEsjYPlAL777EH73zLeZz/+2/kX2/9Pv/47X/hqXXP4lNDLcQwzQZDEgLGGWrBYdOEWghUKhX+4+47uPu/V/AXl36YJQuOpy+t5P2xAhAwGNIkrYdP5de3cRmlzXtVTZWwZyyVVJ2qvpLnHx8C9zxwP79ZtYrfrlnN42vWsPqpJ3n6d7+jWq0Oe5w1hv323oeFRx/DqYsXc/rSk0avEhXZhS174P62Q6fd58zt0mxgj7m7dW1s2XXdce893P/QQ6xc/QSPr1nNE2vXsnX79lGPM8Zw8IEHcsqixfzhK1/F/HnzJmC24zd3zpz6/wd2Wjf/fIuITKRJCZ2afYBv/H2j4kPxRFVzNOvH1OyDebnZeaPG79m8msYnCXffs4wrP/qXPLNtE+nMmVQh9m3KPH3T+qjVapDYvBG3xxqD6x/g2GOP44o/+xAv3H8+xgd8tUZPkv9lZw2Zq5EkFmc8xsRqKtsQnJXnVf4rcshflyYPiAa/UXpswfimOxM2vz+Dy/IGa5kGY6jGVXxF9ZW1FuccSRJ3m4sNvy1ksRF4xSZMr/Rw3uvP4uw3nMVXvvl1/v6rX6VioN/V8Em8qCRAT1qhVqvFygoLmAqbBwa46IrLeO1LX8bVH7yEnkqFEAK9lSS+Ts5hErvD+3Uiw5l2zjfefmUKnWQstmzdyp9efmnbx/kQWPP0U6x5+im+e9uPOPSgg7j83e9lwYuO6sIsRaa+lY8/3vYx3fpgvtfue6jqRMbkpq/ewoOPPNz2cSEEHlu1isdWreJr/+9bXPDGN/Hu8982Zf5BbzjWGObvtx+rutB/6cD9d47gTURkNJPyz8pFddBYl96N5y+gsX6Ab7a8aqR5+BAwWEy+s1ziAok39Ndq3HDzjbz3ykv5XXUrLo19hMBjbUKwBhdi3yZPgMSS1TKOOeRwvvyJz/K3n/w0B+07j9QHbPBU0gQIGBt7PCWJrc/XNQROTVOike/C0HuAIVDsule/CQ2HDH19QtEAiqFf9fcAdkgNlS0NXVQRFffde4/xxRI4Q+YzbN6gnMxx4dnn8H///h/443PfyqxKL8bF5uiZDdRChk0TsloNH2K/Jk/A9Pbwg9t/yvnvfif//cjD2ABZNSMYC0lCCIbgQ5ylD3mj9cbw0xNDtOLX7jUdL39/uH5O7b7HTd4rbKr/j53s2h5duZJ3XXE5d69YPtlTEZkU6557ru1jli48vuHv+c5YevzxHR9TpFW1LONvv/kNrrvxM5M9lZYsWdidPy9LF57QlXFFRCbaTrOWYbxhU/n4TlV0DFfdVIQ9PjhcyPAEnDGsXLOGD374Cr76rX/GVRKqBDLisrlgLNYHKti4bM0YEmPZc+ZsLr34A3z2+k+wZMFCrPdUrIHgSayFEJenNYs6dgzOih3oxnjBIS47M/XwaMfB6gFS+fUKxezKX4NHFI9aiWvKr2EsZY4hVGIMNgT23n0PLjznXL7wqc9w+kknkwRIMFgs3nmSNKWIz1KTB3uVlN8+vZb3XfIhvv/j2/AGfM2ReENwHpumeAM2TXYI2eKjoo158Wuzr85ppYF7O+OowkmmioFqlUs+/rGWlmKI7Gr6BwbaPma3OXNYfNzCjs/llae+tONjirTr2z/4Prfd/p+TPY1Rveqlp3V8zGOPfBH77b13x8cVEZkMXQ+dGsOisX7A9d6P6djGD9bjmc9wywIbJUmSV6J4jIEsy3j48ZVc+MH3cftDDxAqFQZc3GctNRUSb8EbSBOwBmMCPdZyxpKT+MebvsxbXvE6Zqe9+FpGJUljeJQanPF4MxjUjHYt5QqzsdzL4ZYSNt7PVu5T4/MCrb0WfsiOciEP0ny+057HBDDec8TvHczHr/oI115yObv3zcRkntRaSAw1l8UKKO9I0xQXPN4atgXHVR+/jk/c+FmqtSo4jw3gvYs7/flACHlVWvAkxB3+gjexV9aQLzP0axwae4e1U3HX7nlEJtvGzZv46rf/ZbKnITLhMufGdNw7zzu/o/M47qijWdqlyg2Rdt38tVsmewqjOvbIF3HS8Z2tSnrXWy/o6HgiIpOp66FTqyHEaGOM9YP1cBVOxbzGWz3VKDYLB+ccxqaYtIcf/vjHnPP2t7O+1k/VQsgcqYdpwVLxkGJIA2QWSA2zevv41HUf5a8+fDW79/bRA/QESHsSai7fka5L27O2otl9LDQNR5osVRxh8JbP3xigmRC/ZzHgHNYFXnnKafzLLV/n1WecgavVCM7FJXvGgE0IHkwwGAIDxhOm9/Kd237ERZdfyvY86EyDwbq4G2AwlmAsPv9yYfieXkMnXQqj2tQYEpbfzyP1FBtNOZDV0jqZSv7tx7dN9hREdhrHHHEEb3rNazsyVt+0aVz2rvd0ZCyRTnhs1SoeXblysqcxqj//k3cyc8aMjoz1mtPP4MQFCzoylojIVDDhy+vK1TatLpkbNtxp8r3het00qw5p94P2SB/w632HCGDAmhQfLJ/70pf5yCdvoDIzNgfv8dCbVjB5U3FjDS4EQgqpD7zx9FfxrS//AycevYDgHWlPhZAYXBJ3ZQs2Lkfz3tfHaLyeZpVH7VTHNDtmuOeP9P2hy+taO7bViqf6rnFDgpP87WwClUoawzwMs6b1cc0ll3LDtdey5+y59ARL6mLYF5zDmxj4JdbiraGaworHHuXcd/wxq595umjlBGlKZiweS8CCSTBJ2vT9XL6HnaogGi0cardXWivN70Umw+onn2Tdhvb724g8X13yp+9i4dHHjGsMawzXvP/POPSggzo0K5HOeGAMjckn2u8dcAAf/fNLxr0L69GHHc7V73t/h2YlIjI1TEilU7uG++A81uV13dr9K1Y1hfrua9772GzaB7ZnVa779Cf5u298HXoq1DJP6gImBLyHkKQ4a/B5I+q9Z8/lLz94KR+66H3sNmsGFe9JDXgcwYS4G13wJHlHpVitQ/0vt3Ig0SwsGnpt7S0pHOyf1DhEhwKKYOq72LU6Yr1SrTQdV+wO6ALOeYIJGAsJsYn7mSedylduvInFxx5PYm3sJpVXRiUeEh9IrMURqCaBVRue4W0XX8TyRx8hC4bEQU9msCSQpBgMjfVmxbyK12W8vcjGY7RlpM2WW2qJnUwVq1avnuwpiOw00jTlc39xHS8/+ZQxHT+jr49PXnk1Lz/l1A7PTGT8nnhy7WRPoSWnnLiYG6/9S2bPnDmm409dvISbPnY9PT09HZ6ZiMjk6nroZK0dEow0+yqM9gF9pF5C5ePL32+n+qNx2dhwP6//mjkwJvYGMpbEg8Gypb/K+y+7jG//8N+htxdHXJJl0grYBEzAJoA1VKzl8AMP4uuf/xKvPvU0rPeYNMWZ2GAc8lbUIYDx8WuY6y/Pr/w15HnGU0/Jhtw8j7Glc5i4tKzYqW5wjFAaY/id1YaOPXTc+jXUz5nP28TWVj4/lTfNv4I1BGvwBhwBRwAbd9YzRRBnTX0lmwtxF0CcZ7/d9uBzn7iBd5z/NpIs0OstiQv1KRXLIwOBWghsx/HeSz7EikceAh/ikkgM3jmCiU3Km7Vumqzd4Mqve7kP2nAh7nA74IlMtnUbNkz2FER2KtN6e7n+sg9z5UUXt9yA2BjDy15yMrd8+kZOW7K0yzMUGZsNmzZN9hRatnTh8XztMzfyylNf2vLOknvvsQeXvfu9/M1VH2FGX1+XZygiMvHSbp/Aez+k6mO057YbDnVTY3jV+HtrLc57bJLE5tRZYKurcsk1V3PfIw/h0pSaz0iwWAaXhNXHyjL+4PVv4P1/8k56bYINeSVULcMmQ/PA4fpStXMNg0LT4KlxPJuUnt9idVQr/YGMMQQ8IQz/fD/CEI1hWrFjYGzg7gGTv5cSvMmDlZojtUkMtlyNt559Noe/8BCuuvYatruMagjxNSIP24whmMDWaj89ScKHrr6CT155DYuPXoDxgdSCDx5rGnJbG3f3C843fc26qXwea+0OwW7LS1mVO8kUMDCGnbxEnu+MMZz1qlfz+jNfzk/vvIM777uX+x96iHUbnmPj5s30VCrMnT2H+fPmceKxCzh96UkcfOCBkz1tkRHtbH8f7L/vfnz80sv50/PO5yd3/oK7li9n1ZrVPLdxI9VqldmzZrHHbrtx9OFHsPS4hZy29CR6KpXJnraISNf8DwAAAP//7J13nFTV+ca/55w7s4UmIFWkCAIKCEpTwYIajS323mKMYi/5xRqNxk6MJhp7jdHYNVaMiKLSpIhURXrvfYHdnbnnnN8f584yu+wus8udZYH79TMuO3vvOefeOzs788zzPm/WRaeqdEqrijMkXXCoaPxMA5LL2y6TvBsrBcJYrDFYFMUiyZ8evI/xU6eQlAaMxBMSYXHh1kEAuKcknhH88fob+c1xv8YzToyyJumcYUIGMk/Z40qJB7LScqjKOsZB6lgrd5RlmquUyXnLdI5Mr1XZeXXSR3qqpARQCpdNgQi0NSHwlEfSGoRS+L7Gk4KDexzIv558mrseHsS0uXPcvgAYjA7OvrRooMAv5sZ77uSBO/7EEX0OwSZ9REyBMQi5tbiUEn0q6hZYE4JUdcpFo0yniNqCrmYnr4iICIh5Hsf0P4xjqlluFxFRmzA19OFd2LRt1Yrfnnk2vz3z7B29lIiIiIgdSg0EiQtsiVFGlLltobpvvisrncvU2VFRK/qthILU/QKwFmsNEoFEsilZzA133s7w8WPRypV0xYREGIsKBBBwAdcN6tbl0Qce4LTjjiduLDEhwDpHmMGStKWTgoQQIESQ5lRxOPi2jrPc+9NuBBlJqZlK3YTYatuSLKYq3NwBuH9LIZBCuO5xViDTDseW2Tb9jtT1MsHN932WLFvGgqVLMZagG50oCVq31pJEYz3protUKAsxJC2bteDvjzzCkf36uTmMQBiJDELIlTGgNRpDkbTccv9fGDF+DDGl8JAoqUofV+pWqsNc1a9LVdnWYyHTx0pUXhcRERERERERERERERERFtkXnaxAIN1U6eE3ZVrHV8flZK1Fa10qu6bKy9uGU6iUuFPianJOlpgQ+NqSsPDnhx5k3PSf8T2PhLGutAsX7pnwfbS0aGloskcD3nr2Bfof1DMIrlYUG5eRZAArBEqIUi6nVGC5sbakJK2iY6molGqL60aSkn9kukgSuLHcv23av4P7jd1qWyVK75/JTVr3oCt1P9aFeruFbgloD0QpjCs7VAg0BmM0sXicxatWc/8/n+CYc87iqPPO4lcXnct/h32FkR4gS5XvCSRSW5R1Z1YDRgmshAb5uQy663ZOOvYYJGCEwuCBigFOoMIaEsbHxmPcdt+9/DRrJlIblDYoqzC+xVNeyXylXU7pD67S13V7wvErEkvTtyk316sCdmToeURERERERERERERERMSuR9bL67JNWG+Sy+/yVhob5PVgXYC1MhbjSR56/B98M3YM2pMlmT7BYGhr8TwPMHTr0Jn7bruThnXrgdZONBAQj3mYrfqgbU2qZCu1zsoEs+11rGxrnmwhSLnCAsFISoQVJYKfkJLla1Zy/yOPMH76zxT5Bs8K8uvvgcEwY+ZM5LHHY7SBknwiQdmgIiklxhiU8oIcI8Ot115P82bNeP611zBSYXTgmhIKnCRIYSKJLyXX3XUHrzzxT/Zu3Aw/GM/3NVIq0t1YpdlyjbcnaLw6Am1ERETVWV9QwNr16ygqLqaouJjiRIKi4mIEEI/Hicdi5Ofl0bB+Axo2aLBbdhzaVFhIYWGhO0eJYjylyM/Lp25+Pvk7SSCuMYaVq1ezet1aihMJCouKSCST5ObkkJ+Xx54NG9G8adOMQ4EjssOmwkJWrFrJxk2bKUq430ljDLk5OeTm5LBnw4Y0abxnjWbjGGtZu24dK9esobDI/R4kki4qITcnh3p16tKkUSMa7rFH9PiJiNjFsNZSsGlT8BqhiEQiSTweo05ePvXq1t0pcrqMtaxas4ZVa1azuaiIwqIijDHk5eSSm5tD3fw6NG/SZKf5ex5Re6nVolNVApBrAidSKKSFYp3Eyhj/eP5ZPvhiMHgxJBKDdi4dC0IGZWXS0rXDfjx8559p1qARMQlJ30cq5cLFobKIpRK2drdsLaaUvWfrLTKbB7YWsGriOpSU0gV6UcrFJiVIAxPG/8idjw1iccE6pIqDp0ga96Spk8U0bdbMOZwQSLY4xso7ppIyPW2QwpIjBZeeex7xWIznX32VhPVdJztrkUiscCJYwmjWJDZx0dVX8q8nn2GvZi0QCGKeCkr+zFaX080lSo6tJh7Ste33JyKitmGsZe6CBfw8aybzFy9iweLFLF+1ilVr17BqzRoSyWSVxqtfty6tW+5FqxYtaN+mDV06dmL/fTtWu312bSGRSDBj3lxmzJnNL3PmsGjpUpatXMnyVSvZXFhY4X6NGzakQ5u2dOvcmaP79afTPu1rcNXls3TFCn6cNpVf5szmlzmzmb9oESvXrCnJBKyImOfRZq9WdO3UiQO7duWIvlGnt2yxYeNGJv00jRlz5zBz3jxmzZvL8pUr2VTJYy2dpo0b06FtOzq224cDu3bloK7dQukIprVm0s8/8cOUKfwyZzYz5s5h6YoVGeXPxeNx2rXam/Zt2nDAfvtzUNeudGjTdrvXFBFRESvXrGbcpEnMXbiApStWUFhU5D4UyM9nr2bN2bddO/p070Febm6Nr81ay7xFC5kxdy6z589jzbp1FGzahO/71MnPZ8+GjejQti09u3ajWZMmNb6+sqwvKCj5+zdz7lyWrljO0pUrWbFqJUnfL3cfKQQtmzenQ5u29DqgO0f360+zPfes4ZWXJun7TJw2lSm//ML02bP4Zc5slq5YgV/BMaTToF599m7Rgv333ZcunTpxUNdu7NWseQ2sOmJXQcwuLsqyjaWSCj6xbXfPVruUKX0Lg1RXufLGLClNsoBUWG2QxpIQlsHffcufBz2MyI27MGvpCgm3ZBZJhLB06dSZ5x/9B7n+lrmstFgBUliEsegMpKESocSkXFmUKtcCV75mUssVArTByvJFB7mNKcNwTW1POLW1FukpklpjtGbJkiVceu11rCfJJqGdsKQhbgTKUxg/yTMP/pU+PXohhSsThKC8LO1gt4Sw46Sp4GfSgrSupO+9L/7HfY8OQsTiqZOBLyxWCQzuGuYKyb6t2/H0A4+Qn5uHQoACg3FyV0oYtKXDxIVwgfLVefxnynZduyjWKaIKbNi4kSPPOTP0ce++4SZOOfa40MddvHwZw0aNYszEH/lx2tRKRZMwEELQaZ996NerD0f07UvXTp2zOl8YpF6Yjp00iXGTJjJt5oxQgt077dOeqy68iMP7HhzCKjNn4rRpDB05nNETJjB34YJQxvQ8D2PMNsWqqtCgXn2GvfVOtfc3xrBw6VLmLVrI0hXLWbJ8OWvXr6c4kaC4uBjP84jHYtSrW5cWTZuyd4uW9DqgO3vUrx/aMVQHay2Tp//MN9+PZtykSUyfNTPU4GilFAd17caxhx3O0f36V/l4J/40jfcGf8bwsWMp2LQxtHW1aNqUAYccyolHHc1+HfYNbdwdzcV/uJGpv0wPdcxjDz+Ch2+9PdQxs8X6ggLmLVrIgiWLWbbCifObNm+mOJFAa01OiTOvES2bNWO/Dvuy3777huKE01rz2ddf8d8v/sekn3/a5vY58ThH9+vP5eddQJu99tru+SvDWMvwsWMYNmokI8ePZ/W6tdvcRwhB9/3256LTz2DAIYdmdX3pbNi4kXGTJrrb5Mmh/N0QQnBE34O5+uJLalRw3lxYyJfDv2PY96MZP3lSqK95OrbbhwGHHMrxAwbQumV2Hz8ROz87QHRyjemdMlP6xVp6Dk7Z+6G04FTyxr0ctiVMpQshqfnKG0taE4hBMuiGppDWYDGMmTKVK269BevF8HGZQzERCBIWsJacWJxu++3H4/c+QL7wMFiUUluEIlGSsL51aHkgWKRHX5Ws0wqUkEHukcRajRAW959ykVmB6KEs1RadKqOijmxly8bKE1syFaGUUCSswRoNQnDqBeexeOMGtDVoa9HCIqwgR8VIaJ/2LVvxxrMvUt94GGmxLjDKPeJE4PkSpfOQIChbxCK0y7Ky1oJSfPnNN9x2/4OIeA5WGLA+Vjix0BcCoZzIeOT+B/H4Qw8jTBBsbrc+xvRj3/J4E4ApJRyWd17TRdGKzl/6OU53w5XnVis7x1ZzRqJTRBXYGUQnYy1fjRzBf/77AZOn/xzKmNWlbau9OeVXx3Lqcb+mQb16O3Qt6SSSSUb9MJ6hI4bz3dgxbNy0KWtzHXv4Edz7hz9mtfRgfUEB738+mE+GDmH+4sVZmydMqis6vfHRf/noyyHMX7Soyu48KQQHdu3KNRf/lh77d6ny3NvDrPnz+PCLL/hq5HCWr1pVI3PG43FOOHIAF552Bvu0bl3hdoVFRQwe9jXvfvYpM4Luttmkx/5duOTMsziihgXZbLA7ik6r163lzkf+yuwF81m1Zk2V99+jfn3OOvEkfnvm2dV2Hg357lue+NfLLFm+vMr7KqW4eeBVnH3iSdWae1t8/s0wnn7t3yxetrTaYxx84EE8fNsdWXMOry/YwNejRvHVyBGMnTQxI/dPdZBCcONll3PhaadnZfwUs+bP47X332foyOEUFhVldS4hBIcc1JNzTjqZw/r0zepcETsvO0B0Siv4ShOdKhIxquPUqI7Lo6J9FGAsbs1S4hvD7IXzuermW1i3eTO+cNlAUghi1qClCwSPS0mPjl24/0930bROfXI8SZHRxITEiGC+tONPn9da1/HOlPmZTa3TgBApIUyAdSV9br0SbTRGutKy9IyksmyP6FQe4ec/CSccIXnlrTf556svU+gJhLZgwZOypEMdwEWnn8nNl1+J5wuMsE54SldQ0kS+dGEmJehgQRr3vbEWbS1vfPAhT7/0MknpRFItTVC+h8vGl5BXDJeedR4DL/mtG0amHkupiW3FIk/amkq2LrNtqTNSyTneVih+JmMEy42IyJjaLjr9PGsmDzz5T36aOSOEVYVHnfx8zj35FC46/YwdWn43b9EiPvjfYD4ZOpT1BRtqbN6+PQ7k6fsfDL38d8PGjfznww9446MP2bR5c6hjZ5vqik5/emQQn38zbLvnH3j+hQy84MLtHqcyrLUMHTmCtz/5mAlTp2R1rsqQQnDKscdx9UWX0Lhhw5L7fd/nrU8+5sW33mDDxvBcTZnSs1s3br3yGjq0bVvjc4fF7ig6LViymFMvv2y7x9mrWXOefejhKpUtrS8o4N7H/86w0aO2e/4/XjGQ8085bbvHKcvZ11zJrHnztnuczu3b8+/HHg+ycsNh/JTJvD/4M74eNbLCUrlscOWFF3HFeReEPu7s+fN57o3X+WrkiB3Skbprp85cc/El9O1xYI3PHVG72QGZTulvttPurcCRVJOkOo2l2tzLwE0kbdBdThs2FhZxz6BBFCSSJK3FGI2SEg8L1rmQpBS0bNqc+26/g8Z5dYgphY8GZbHoQIwQlb65L8/DpYQLKRfC9Xqz1jihRNgSXclqjVACgXPtaLnVqQ6Fsm6xTLfNYGRAuPBwYcHA8nWref7119kEKONcSwJbotd4SmGSSU45/gSEb4NzVNHYpSnlxAKEkhhtEELiScmFZ57B+nVref29d/A9ScqfpABnOrP4cY9X3n6DA7v3oGePAwNRUFQ6b/rPyp6fSsPsK/mdyLRDXUTE7sLHQ7/kwSefqLL7oybYtHkzL739Jh8O+R83X3Elxx5+RI3OP23GDJ79z2uMHD+uRudNMWbij7zz6Secc/JvQhvzs6+/4tEXnmPdhpoTz3YlnnvjderVrcv5p5yalfGHjR7Fc/95vUacQ9vCWMt/v/gfX40cwe3XXMdxhx/BN9+P5vGXX9yhzrgfpkzhwhuv46oLL+biM86M/mbvZixevoyBt9/K208+Q538/G1ub63lslv+jzkLwikb/sfLL9F9vy506dgxlPEAioqLQ1vf9NmzefX997jsnHO3axxrLUNHDOeFN99g1vx5oaytqrzw5hsc0ffg0LIOE4kEL7z1Bq++/17WXFqZMPWX6Vz1p9s5pv9h3Hrl1aVE/Yjdm0oCl7KESGXZlHb2VLd9fHlUZ6ySfawIbhJrXfizlbgzpSQP/+1vzJw7j0QiiRAShUBa0MZlJ0lraVqnAU8P+ht75NdFIkjYJEbYQEMpXT6YyVqFcKHYQgf5T74m6fskjaHYT+JrS6H28S0YJSnCCTNKZO/yZiqSVLZfBVuU3KSReNLju+/HsMn4xGK5xKxCoRDCQwuJFIoYkoEXX0LbFnshpBPknGiXfl63LuXcCmNLOgoKIfCTSTwBV132e07+9fHYZBKZevga95CQBhJao+MeN955G4tXOVuzCNxo7nhlSVlbRc4jrKRULWXaz9LLTjPND6loroiI3YWvRo7g3n88VisFp3RWr13LbYMe4vZBD1FUXJz1+ZYsX84f7vsLF910/Q4TnFK8+NaboWT3rF63luvvuYu7Hn0kEpy2k2deezWjrJWqsHjZUq6560/83/331grBKZ0NGzdy+6CHOH3g7/nDfX+pFaWYiWSSx195idsGPUQikdjRy4moYZYsX86Lb7+Z0bZhv9bzfZ9/vvpyaOOBcxuHmX338dAh27X/+CmTOf/6a7n14Qd3mOAELn/rpbffCmWsmXPncs61V/HS22/tUMEpnaEjhnPmVVfw1cgRO3opEbWE7ItOKZGpRGwqZxHlhHjX1BvmUm4dWyYzxwBSYgUkgQ8+/5yRY8fh48rYpHb5TQJXUmU8Sf169Xn03gdoll+f3FgcFfeQQuIhiFmBMFuXS2VUQmUtBgtCkMTw3djR3PPIw5xy8SUce+7ZHHf22Rxz9tmcfunveOy5Z1mxdi3aT7jSuyyet6qQuRDohBqJwlrB8BGjEUIhfTBBwZwQ7nwqbTmi98Fccc755BqLCEocrTAuh0kYZMleZecojUS4sFwp8DGoWAzfOAfbtVddzcG9+6C0RaGCskbhgscRFKEp9iT3PzLIlUdK6R4b5RxyKaHRBjV6FaypVJc9Y7aUApZ31tKErYrOdXllpDvCfhsRkU02bd7MA08+EWoYcbb54rtv+d3Nf2DlmtVZm+OjIV9wzrVX8c33o7M2R1VYvW4tk36atl1j/DxrJhfeeD0jxu1YAW1XYVNhIW99/FFo47372aecdfWVjJ7wQ2hjZoN5ixbt6CVsxZfDv+O6u++q9cJ5RPi89fFHGXdrPKhrt1DnHjtxIlOmh1ceOW1GuKXtC5csqVY2VCKZ5LEXn+fK22/llzmzQ11TdRk5ftx2C8uDh33NJf93Y60QzMuyvqCAWx56gKf+/a+d6vVYRHbIuuiUyRva9EDnquy3PZT35twGXcmkVC4vyRP4WmORTJk+g4cff4LNWCQSbXXgbAKhXWC3SsId191I53btyVVxQGAC0ce3Bi0BmVaWlubwKn28QRZTaq2+yzUyCD7+cgjn/v4y/nD3XXzy1VBWbVzPmqJNFOgE6xOFLFi9jHc+/pB/PPkUOTn5GO1yn0Q5ty3ZQ6VDpkuXzZUuEyv78/JCqcvepJQlXyvapuwNISjGsLZgAzNnz0IKhY8BY1HWENOGXG05+4STuPf2O1AIhHSd+4wwpT1OojyRrGxwOyCD+a1AIoMYL4mQkrqxGA//+W46tW6P9jUmcCYZ4YLbEQKtBGMmT+Sfr7xAUli0cVlbsozylH5OKltTWTIpY0x/LKV/Tf3bGFOlcr6IiJ2Rz4Z9vVM6XqbPns2Vd9weutME4JHnnuEvj/+91uUcTf65+sHuw0aP4nc3/x/LV64McUURw8eO3e4xfN/n7sce5aGnn6wRB9+uyrjJk/jTI4OiN2y7GcWJBGN+nJDRtj1DFp0APhv2VWhjZSNPccXqqn04s6mwkCvvuI3X//tBrfpdKiwqYsa8udXe/98fvMedf/trrX6Otdby0ttvcecjg0J1vEXsfGRddMo0Z6am3viWfUNe0TYWsL5GWs3agg088sTjaCUptpBwRXLOuYQTJnLwuOHSKzjykP5IKSnGIKRACrmVUJP6KtKkJVHqJhFIjBUkkxqUZGPRZh74+9+49S/3MHfZEojHMZ7Ct9q1bbaGpPUxngQJPXv2ZHNxEVK6Dmtl5aOylOe2Sq3M2vRVln8+KxvXSnczlcdYpWEQ0iCUoSCxic26ECN8hNZIP0HcWrq034e/3X8/N994PTElg45zEiP0FpdTFdnqWETQOQ5DTCryvVwe+ss9NGu0JxIPJydqpA1cUr5PLD+HNz98nykz3BspKUV5VXPlz4dIcz5VL9epPCJRKWJ3Y+zEH3f0EqrN3IULuO7Pd4bqbhj07NO8GaJ7JUyqK7ANGz2KWx9+kOKo/Ch0Zs2f51y/1cT3fW556AE++erLEFe1+/LVyBG89v57O3oZETVMpm6c3t17hP4676uRI0ITZ36aOTOUcdKpyodKhUVFXHPnHUzcTldttli9tnp/A195923+8dKLIa8me/zv22+4IxKedmtqPtOpHGqyvKeyUrYtzh0Xr+MpQSwW4+V/v8aUGTNIJDVCSTwr8HD5OlIphBD07NGdc087DWVdxzQV9zDG39rBQ2lHikTgCekym4JyLGEFMWEROkFuTKI8waC/P8K7nw+m7p6NSAblfkZKfGtACpcpBQgsHdq248Tjf421TiyRgYwlrOtYJ4wt+Vp5yLcsd93pTxiZuG9Id98I5zwq58qUOICcIcqC8WnRpAlX//4ymubX4YiDenDTVVfy+Xvv88azz3N43z4oo/GkcCVx2kcqVfkDgAwERxuENqVuFtCauJK0aNacW66/AVNUREwppAFpBSI4JwmjSXpwxQ3Xsn7zBqw1QTC5KHXdt/mYD3LFyj1T1XhxEQlPEbsTC5bUPpt5VZg+ezaPPPdMKGMN+e5b3v7k41DGygYbCgqqvM/3P07gtocfrDXZFbsaxpjtKvN8+Jmna00J567C06+9ysy51XdEROx8LF+1KqPtGjZoQMd2+4Q69+q1a5kxZ/vz1zZs3MjCpUtCWFFp8nJzM9727y+9wOTp1XfUZpv11fgb+NGQL/jnv17Jwmqyy5DvvuWxF1/Y0cuI2EHUuNOp0pIqqi9AlS0XyqiEi9Kd1baIT06cMQgm/fwz//3sM2QsjlQe0jcoITBoRExgtU/bvVpy35/vRuLKwpQUiMDpVNFaywo5pTEYrfGkJKl9Phg8mC+GD0fl5lGY9F2+ERBDYgzOcSMEOUKR3FTI9ZcNJFd4xGKxcudNL3Mrr8wrJSxpa0tuRoBVEhO4lnTQda3k52y5pZxiJhCY0o8uJXxtfa22zO0C3C1CKJSB04/5NYPfeJunHniYS844lz3z60JSg7Fb3EhKIb2YK7/Doqyt0CtUVQFGCNDWJYcLAQMO7sv1l16MKSpEGOVyv4wlFghevrUYT/Lsyy9jhHOzlf3UeNvuPlthBlpma45Epojdl9pWQlYd3v98MN9nWF5REesLChj07NMhrSg7ZNKhKZ0ly5dz+6CHa7S19e7Ips2Z5cmUZeT4cXzwv8EhryYi6fs8+uJzO3oZETVIYYaZTgB9evQIff5xkyZu9xg/zZyRFWNB8yZNM9puwtQpvP957X4+qlvFv4FTpk/noaefzNJqss8bH/2Xj7/cvjD4iJ2TGs10yjTfaXuEp4pErsq2T3ehuDf7bh0FRYXc9/DDFPm+630WiEgGAUqgrCVHSm668irqxeOoIPPIauPElQq6x4nAZVSxMGAwwuJby5oNhfzj2RfxpedEFmOJSYkyFqEN8ZiHFRYpBCKp+eNV19G3+4FI47rlVVTPtnVQ+VZbuLI8G7iirMAai9UGYy2BgQlrBNZKjBFYAwQd/wQSaRXWpDmsLKQXFZY+/rK5RxKExBpDTEiUNWA00hgUAmsNNsjLklIAFmsMUgSurirmH1W4HUEmVEyQ0EmENQirueCsM+nWoZPrJqgNCEgmfRcqbwzEFO9/+jGjx41x4l5wvYV0R28DUazCdYqS/0VERFSR3JzMPwWtzTz24vPbZUX/cMgXrF2/PsQVhU/LZs0y3jYZlG2tL9j58rp2NnxdPVHvlXffCXklESnGTpy4wztORtQcfhVKXA8+8KDQ5x8/ZfJ2j5GN0rp4PM7eLVpktO2r771b65vltGzWPONtCzZt5OYH79vpmwv89blnWLJ8+Y5eRkQNU+PldZlkAFXFpZFeGlfRzyuasyTA3OJEGyFAWCwGIy3vfPRfflm4AGIeSWOdAqEEJibR1oI2XHDO2Rx8UE9MwsdLlbLJ1DHYcnUDkTZ/RcdrBQiheOWNNyhIaHwtQUmkJyjWCVAeVkqkFcSkIsfChWeexbmnnI5nXZmdEKKcrm2l3V0ptDUuDNtaDIEEpA1KSKS1CCRaWzYVFbNq7XqWrlzJ7IWLmTFnDrPmz2PhsqWsWLOGtevXk/QTGGswvk9cSleCZlzgujA4cSqYw4og80iUXaNBYJ3QJwVKKaTacn1ESeyRU9YEFilSeVyuRLK8znFlr4MQoqQD4VbnKbgOFic0CiGQwiI9hfI8HntoEA3q5CEt+H5QPmgsyvMoSiYQ+XGefPE5jNHkejHn5hICTymQwol3JddalFwpK9Imria1/Y9sREQ2aZXhC9Lazqx58/jiu2+rvf+3O0GJ0wGd989425ffeSsrobQRW1OdPyHrCwr4cdrU8BcTUcIbH324o5cQUUNU5XVcz67dyInHQ51/wtQp252/k43n645t26EyiNIoLCrabrdwtsnPy6Nju3YZb//3F1+ocoh6bWRzYSEPPPnEjl5GRA3j1eRkmZTQVb30KXAflenKVZkIJW3pn0uco0YIgcFgDCxevJQnn38eVTePREIjJVibRCiFsZaYVNTPyeHc088kWVxMbk6uEzqcsoBFbxFFxJaSMus2QkpZ8mS+dXkbGF9TUFDAJ598QlIorOdhdAJhDHEUUrt5tPFpnF+Pv9x6G4f17AsapAQhTDBX6fD0is5LPBbD942LMBICrSGe47F05WrGfP89oyaMY8q0n1i7fh0bCzdjg/BuKQRCSYw2zmkkJQ1y89i3XXv6HNSTk359PHu3aoUnLCQ0AoEWroTOWBAquF6UVkDLdsarTni2tbZcR1mJ2BdcnhTpWVMVGpCUwDc+sXiMOnXgdxdfzKDH/4mMycBxhcvyUpLNVjN94TxefuN1fn/eRUhPYREkg0+vbDCPcPJa6eMN5o+8ThERVaf7fvszfOyYHb2MUHj/88Ecf+SAKu9nreXnWeF/yhwmezZqRJdOnTLadtHSpZGLppYzY+6c6AOPLDPmxwksXr6MvargjojY9YnH4/Tu3p0R48Jzwm3avJmfZs6ga6fO1R5j2oxfQltPim6dM1vPzHlza30Zdr9evUt1bq+M8VMm89EuVJY2esIPfDvme47oe/COXkpEDVGjolNYlA3+Tt2XieBU/v1bBCutLSoW51+v/weVEyeR1CghiCsFWBLaEI/FiBvBk/94nDo5ecSUwtfaOVjcCrYR0F3agVXeupSKEc+Nc2CPA/hm/I9oo7H4WK1RSpEbl7TZe29O+NWvOOXYY2myRwOUr7FSBW6goKYtyEaqaD0pocP4GmMsSMmaDev4aPCnDBs9ijkLFlJcWIQWAhO4p0x+njPiCFdqh5Ro45xJCsk63+eHmb8w4efpvPbBBzRr3JAjDj2EU048mX32bo0hcJeVHLtbrxHO3ZN6+k0/L+lrz/RFbWXnv7pijtMMnWCY40lOP+lkfpjwI8PGfo9OWoTnopi0sFhP4gOvffAuZ592Og3q1nfCXCDSpS+vOi/U00WqiIiILfyq/2E89e9/7RK/HxOmTmHhkiXs3bJllfZbt2FDre/sdvyRA5AZftD02IvPk6jlx7O7s2bduh29hF0eYy1DR4zgkjPO3NFLiahl9O/VJ1TRCWDc5EnVFp2Wr1yZcRh6VTiwS9eM56/tnDjgqIy3ffzlF7P+mkYIQYN69cjJyWH9hg0UFRdndb7n/vMah/fpG+XQ7ibslKJTdQSIzMYUCBlj3A8/8vm3X5OUFmNASQm+E1xyhEQXJfjNiSfRdq/WxIR02o4S2BLPSjqpYCWZNo8jpW6bwCFUaj0S8vJyuP8vf+a778ezbPkyEsXFxOMx6tWrx34dO9O+fXvylEQlkqANUip8KbGYwKojSrmHyhNxSqyzQrBo6SL+O3gwH3z+KWs3FUBOHI3EegpjDQgZ5DGZknIwKRTGWKQUSCTG91GecjlHMVinN7N5ZSGz3nuTtz76gKMOPYxzTj+DAzruRywnjrYW3/glLiGLLXGMbUsoy/S6lt223HLGjEZzneqMACUESV8jpeCagVfw/YQfKNLaOeaUK630jcHHstEmefDxx7j/9ruISVea6cLo3QvICjPHXDvCCtkV3lBHRGSDvVu25MiDD2HY6FEZ71MnL492e7em3d6tab1XS+rm1yEvL4+6+fnUza+DEFBUXExRcTGr1q5l6YrlzF+0iEk//8SGjRuzeDTuE8Gqik7ZfrFYXXLicfLz8qhbpw7nn3JaRvvMnDuXb8d8n+WVVUy6MzmiYopr8DG3vc1nwqSm1zJ+8qRIdIrYiv69+8AzT4U65vjJk7n0rHOqte/En38KdS3golB6d++e0baFtfBvoBSC3Nxc8nJz2ad1Gw7r0zej/YaNHsW0GeGXKkohOKRnL448+BAO7dmLpo0blypdXLdhAxOmTmHoiOEMGf5d6H8Hp8+ezYjx4zisd59Qx42ondS46FSRCOBcRqlgaLlVFlN5AeEpTFAaV9b1lC7muPI2EYgxW8bVVrhPWo3BM5qceJzHX32RAikRxqJKVBuB7/vUycuncaNGXH/l1cQsxCVoAQbfCQnCYq1EGCfQGGHxMCAsRsigIVnp40+tcUvGk/uFl0LSIK446bD+7kVvcMhG65IueWiN8JQ7f26VW5WNCSHAuA5vWhisNWDBE5JEkU/CaF7+4D2ee+UlbEwiPA+bk7ulLFBaMCYIRneB3QKBlQpj/C0vyCUoJZC+j1TSdbgzBm0VMhanyFqGjh7F518P4/gjj+a266+nWYM9KAISviUn5rn8JKORUrFFsNv6hVxVXuRVVF5XahtceV2qDLLs02pqHi2lC1UHPM/Dw9K2VSv+eO0NPPD4EyS0JiYVEo00Orgugg+HDuG3511El7YdAreTwmBRuNB5QwZCmpU48bK8J/3yQ6zSH1tljyUiYlfm+ksvY/SEHyoUX9rt3Zre3bvTp3sP9t9334y74ZTFWsvUX37hoy+/4NOvhmYl4HPMxB85+6STq7SPsTUvkniexz57t2af1q1p36YNrVq0pHmTJjTbc0/q1alLXl5exs6mdF559+0aed5q2KABvbv3oE/37uy/byca1q9PwwYNiMfjFCcSLFm+jJ9nzeK7sWP4ZvSonT7MNWyyeY32bNSIE448in69e7NP69Y0rN8AgNXr1vLTzJl8NXIEQ4Z/VyNuOCkEh/bqxZEHH0rvA7rTvGlTlFIUbCxgxty5jPlxAh8P/ZJVa9ZkZf4JU6dggniDiIgULZs1o32bNsyePz+0MSf+NA3f9/G8qr9dnDL959DWkaJT+w40qFc/o23tDvigoE5eHh3atmOf1u7vYMtmzWnepAlNGjWmTn4+ebnVa3LywptvhLxSOKhrN/54xZV0bt++wm32qF+fow7tx1GH9uPy887n1oceZNb8eaGu4+Mvh0Si025CjYtOlYV6lyc2VbRt2RK78oSFCnYu9a3nwpqwUuBbwdfffsP06b8EAdfWuXeEc+B4eTmsXbeO2278A9IKfAloQ8xTxKSHCsSMpDVgLEo54cot1CKkexIUsuJuepXdn8qicoKMOxYRnLPUduUJetZYrHAvlKQGkCAFPjBmyiTu/evDLN+4HpEbJ6F9lLVIIZG+6waHtXhIrHbXSMkYCW2QRuLjYS3EpQrKFA1JuaXMUGDwpHLp4cKSNBqVm8OQ4SP4bvRIbrrmas448WTixiISGmKqzHFU/FjYni6H5SHThistTaZdg5IU+LQtjeWYowbw77ffYd7ixVhtUJ7ANxaUE6jq77EH/3r9dR6+6x6kUlvytqp1BJmTEmTLlnJGVtaIXZ02e+3FndfdwF2PPlKSP9e7ew+OO+JI+vXqRZNGjUOZRwhBt86d6da5M+efchq3//UhZs6dG8rYKWaEPF5YtGjalO777U+P/buwf8eOdGy3D/FYLNQ5Vq1Zw5Dh34U6ZlmaNm7MpWedw+nHn0CsgjdXOfF4iRPuhAFHsXzlSn5/2y0sXrY0q2vb3WnRtCm/P/d8Tjr6mHKvTZNGjTmib2OO6HswAy+4kPue+AdjJ25/q/eKOO7wIxh4wUW0bdVqq581qFef3gd0p/cB3bnsnPP4+0sv8N7gz0JfQ2FREctWrKhS58eI3YP+vXqHKjoVFhUx9Zdf6NGlS5X3nfxz+KJTnwxdTjWBEIIObdtyQOf96L7f/nTp2JE2rfYOXQz+aeYMps+eFeqYF51+Bjf+7vdVei/Qbu/WvPLo37n6ztuZMn16aGv5bsz3rC/YkLGYGLHzUivK6yp6I5z+fXnZTeXtU9H+5U8M1viACxDfkCjmkaeeRAdN0xBghEEgkVKitabfwQdzZL9+xITCQyGURQhXSvXduHEMHzWctm3b0qfHQXRuu0+JyCSlK8dSKcFhG1SWT1X2XKREuPK2NcYJR9aC1hplnQOsyGieeeUV3vrwAwqtJoF1HeM8F5RufJ+YkOhgSClcFzkLJKx2YeOACvKiMGCR2MD1pESqnFA655L7DgRoDDInzmapufefjzJhwgRuu+5GGtSrj9G60tK6TM5ZWco+vqorwFhrnYiDCAoXnTQlhSAvJ4dbb7iBm267zZVlWkPKqwWQ1D5DR33HuCkT6dm1OwrXNc+kCU/ZymiqLBsrEp8idmVOGHAUMc9j2cqV/PrII0MTmipin9ateereB7joputDzbJYumI5Sd+vUBCpSTq0bctJRx/DYb370G7v1lmfb8jwb7Na2nbCgKP48/U3Eq9i56dmTZrQsEGDSHTKMuefciqnHffrjLbdq1lz/vmX+7np3nsY9cP40Ndy+Xnnc9WFF2e0bV5uLndccx3WWt7/fHDoa1m4dEkkOkVsxeF9D+bV998LdcyxkydWWXRKJBJMnzM71HUA9D3woNDHrApSCPr0OJBfHzmAfj170bhhw6zP+XHI4eGXnXMe11x8SbX2rZOXx2N33c35113LyjXhdNFL+j7f//gjxx1+RCjjRdReMovMrwWkutNBxe6mKiNASAvWlTuNGDeOBatWIKRyQdeBOyjVWSxm4ZrLryBXeUgJcUDiBJ/iZJK7HxvE20M+576nnuC8q67gsZdeYO3mTfhaI22Q92QqFhWqK7KU7fRWFp0KSfc1CaNZtXEDt/z5Ll555002G5+kdeuS1joFxFiUUviSLTfhhBNjNZ4Q1M/NpXG9OjTbowFN69enfjxOrpJ4xhDH4mlNHIskcHZJibVOrHH+J991aIvH+N+ob7n8jzewZN0qt60QaRlX6eckPIGkPMEpJQClvlr3XdpOEmtd8LyxBovGCI2wFmE0hxzYg8P79MH4/pZcKm3AWldqGFf8++03yYmVzveyNaD7VCZeRkTsyvzqsMO56PQzsi44pdizUSMuPuOsUMc0xtSKUNR+vXrzzlPPcvHpZ9aI4ATwxXffZm3sgedfyP1/vKXKglNE7SXmedx53fVZuabxWNXHvP7S39GgXr3Q17Jk+fLQx4zY+em+fxca7bFHqGP+MHlylfeZNnMGfsid4/Jyc+nZ7YBQx6wq1/72Up6+/0F+c8yvakRwMsaE+jewZ7duXHVRZsJ5RTTeoyG3XX1NSCtyjJ34Y6jjRdROdkh5XSaOlLICSiYtJcsbu9z8HiHwrUEACudzKk4Ynn/5JeJ162KKkkhjEUJilUQoiU769D/kUPbr0AF8i0TgC1e2hjAktY+vjSvLy4lRJCXPv/sGo8d+z+tPPUNxUQIZk0gsupw8okw675UnLpV3ztLvk1Lia02yOImxhrWbN3P5tVexYNVyTDzmQsCFQBmBFZKkNoBFKneftpbi4gQtmjTlyEP6cVT/w+jQri2NGzQkx/MC1w8UJxNs2FTI0pXLGT5mNF988QVz5s3Dy89BeB46aYgphQxCx32j0donNy+O7ylmr17BCWedzqdvvkeLJk1BCmSqFVwpsan0OcvE7eWQJZWV7uvW57AkPSq1HU5gklK6cYVASDDGYl0KUzC3wfMkNpHkissu5ZsJYyjUPsJuWbkxBhOLMX7ij8ycNZd2bdoEZ6402Q4kjdxNERHZ5+h+/XnkuWdCHXPj5s2hjlcdatpptWL16lBt/OmcMOAoBl5wYVbGjtixNG/SlL7dezB83NhQx62O465enboc2rMXn38zLNS1FBYVhTpexK6BFILD+vTloyFfhDbmpOk/k0gkqiTkTspCiHif7j12uNu3puf/adZM1hcUhDbeLQOvDqX8b8Ahh7L/vh35aWY44eaTs5D/FVH7yLrTqbKSuYoo7w33tu5LFx/KIst5/64QiMDYI6Xkm9EjmblgAUnfoKUApUAahARlJY3q1uePN96ETWjngPIEVhgkEjTkxuLke7kIbVEWtDXEvBgzZs/hhttvR+bmYAwYEdTtUTXH1rbEiFIClnRCmbUW4RtiVuDl5LC+sJiBf7iJ+atXo70Y1kgkCk9LPKvwkuAhEDGPos2F5MZinH3yKbz7/Mt88NKr3HXdH+jfoyct6jci30q8Yo1M+KiEJt8qmtatR7d9OjDwvAv5zwsv8eGbb3PdZZfTqlET0D5KCYzxS/KMlFIUFydJaJ8im0TWz+f8q3/P1DkzkQis8Ut32Svn2DMXUFyZobbWlQ8i0FZQnNQYKxBSoaRHTMWQKKQVeBY8FNKAMC5w3hgQqC3XzVqktKANQknatWnDeaedjvQtHgJrBcZakBarNQlhePT5p5HClgSBelKVKySWvsAl8lUFx5fZeQjFIRgREVEpTRo1Cv3FaWFRYajj7Qz8OG1qVsZt1aIFt19zXVbGjqgddN+/6hk02aJLx06hj7k7Ph9EZMaRBx8S6niJRKLKIlI2Pizo16t36GPWdn6YMiW0sfr16s2+7dqFNl6Y5XALlyxx75Uidml2fEDENijr4Mkkz2mr+8s8jlOumFTXtaSUvPPRR8Tzcl2pGe49vkSitUEazcnHn8CedevhWdfBLdUZyGARUhATHl327czCkUtAxRBCUOz75MYUP0ydwjdjx3BE777OPSTdnmGSLlRIITDaOXS0NShrWLluLZffeCNzV64gIRXKCKSQCGuxuMB037No69MwN59zzjyP0351HK32auWyoITAGE2JZCYIHj2uCE1Y5xMS1uU81c2Jk9eiOfuceS6nHns8//vqK954522WF67EKrBBJzwphQsZB3wMG5PF/PHuP/HcXx+jdYtW2KSP8lSa0638J6XyHgulhDgESeO7gHQkRgoKEwnmLZjHnPkLmDdvHkXFhVgDjRs2olvnTnTpvB91cvNcjpOCpNGIINdK2JR4EwR14xRcay1nnngyb7/9HoW+QcRctzmBy9VCScZMnMD8Fcto3aQlWOu6EQLa6KBDYHkHuOXQyzrkUm6rssddNr+pvH9HRESERyKZZOXqVaxYvRrP80iGWF6wO3ZKm5yFT8vBZfPUycvLytgRtYOwS4y2h4YNGoQ+ZlFx9rv0ReycHHJQT/Lz8thcGJ4wOW7yJHp375Hx9tkIEd8dRacJU8MTnY7p13+79l+xejVzFsxnzoIFzFmwgGkzfglpZe71zZJly2jVokVoY0bUPmqd6FT2DXXZN8iZlOdti3TXUNJoJv/yi3uCVBJjfDwVQ1iDNgYpPZo0aMi5p56G9S0Ig/QE0nOB3MYaZxezmt/8+jiGjf4O3wq0sUgl8a3AYHn02afo1eMgGsi4c1gJGZRogZMrKhahREpsyMCgIqV0+Uy4PCEhBZuKk/x50MMsXLWCQm2QXgy0xVgw0mUYJQJX12G9+nLX1TfQpnETrDDg+ygpMdbgybTrIcBYF6Jusa70DMDiShMtKAvCahrn1eH8U07lhKOP4eHHHuPb0SPxfTdmPEchhXLCllIk0SzfsJarb/k/3nnpVerm10EHlnYpZJVinUoJllgQzm20sbiYD7/8knc+/IAZ8+egjSGem4OMe67TX1KjE0nattqLmwZezeF9DiZHCDzA2iCfChPEc7msLht0CVRC0LJ5c35z4om8N2QwSeMjlDsXAFqA9QTvfPoRf7j0yiDhKiidpLSgaksJbK6kz/2sYmfU9pTnZSvIPCJiV2B9QQErV69m+aqVrFi9mhWrV7Fy9WpWrl5d8v26DRuyWhq7u5GNT8sbNmjAcYcfGfq4EbWLnFqU05Wdtex+zwcRmRGPxejfuw9DQswCGl+FXKdFS5eyet3a0OYG6Ny+Ay2aNg11zJ2BMDvhHtKzV0bbLV2xgtnz5zN34QLmLFzA3AULmLtwIQWbNoa2lvJYs35dJDrt4mRddCqvBK4yMi2/2543yMYYlJT42pATy+Hfb75BsfZBKTwpQGsMmrhS+MU+p//mZJo1agRJTTwWwyeJ9d0YVlgEFoXk0L59ad9qb+YuXYLvSYwVWGMoNpqZi+azdM0q6jXdy3WQw0Cqw5vNTFASlR1uSpjSBoUr+0IIEtby7KuvMWL8OIwXQwHSaJACI4LcJwvoBLdecyMXnHAyeVaijcaoIDMpyDXSgSPHWosSEilSXdyCaxJ0ZHMlZ8q5wQQoDEhB4/r1eOjPdzPk22E89LcnKfKL8H0nyqSOTSLRwrCyYB13Pngfg+57gBypUNqCtdhyjECVnbvU48k3riyyuLCICwZeztw1K0liEXXySsQ0HYwlcjxkjseSgjXc/tD9DOhzCA/ddQ/SWqRwOU8iGNumHq9CggyEPKO56vLL+PTLL7BYfKtdaZ+2riRTCD746EMuOfUs9thjD3KUV+I2K7V2SgtPW343DFt+TYIHj0jP8xIlP69KhtPu+KY2IiLFmnXrmDVvHouWLWHxsuUsW7nCiUyrV7Fi1SqKE5GzoKaZt3hR6GOeeNTRxGOx0MeNiIiIqC0c069/qKLT1Bm/UFhURF5u7ja3nfjTtNDmTXHkIeGWDO4MJH2fFavCaSBSr05dmjbe0kzFWMuSZcuYvSAQlxYsYO5CJy6F6ZCrCptqQW5lRHapMdEpFWqdfl9FZOLWKO9nGb+5xuXseMDaDRsYN2kSVnlYI5DCIoKSKeNrpLH8asAR4FvinuecTcK9yTepsimEcwIJwTWXD+Tmu+8kLnJIWrDKIGOKws0Jlq1aQccWe4EuvXYT1Kyli0qBiaZEkCpXmAoEnlI5PQaQAms0xsDE6dP4zwcfYOM5WG2JKYkJJpJWoKxlz7r1uO/2O+jZrTueb/GFxnoCI5xjCpyYle40KnFfpYuKwZoRAm1M0PXPOXO0MWAlSkiOPWwALRs25Y9338mawgTGgvQUJplEegorBT4wauz3DBk6lJOPOgYpPbRwoe+lrr3ITLBTysNPFpPwk2zYtBHhKYxOQFBiKBFIbOBicuWC0johafi4Mdxyz508/uCgks507nid+GMJMqeEAAGeEtTLz+Pofv357Kuh4Al8aYLQdYkVsLGokJHjx3Hqcb8uVRpXlm2VDZa6GFs2wFLmcVHO/lG2U8TuzLxFCxk9YQI/TJnM5Ok/s2rNmh29pIg01hcUsHHTptDHPahrt9DHjIiIiKhNHNanb6gldr7v8+O0qRyagVsmG6LTUYf0C33M2s7iZUtDyznKy83hpbffLCUu1bYP0oqKi3f0EiKyTI0Eide2N7dCpgQSycefD6YwmQApIdWLLXAAeUrxmxNPpHnjpigp01UVCMSmFFa4bKLDDzmYP1x9LZ6vycF1x8OCJxTFmwtLso9KrYfyXUyp+9K/lrql5k4vr1JOUBNSooXkgb89RhEGXwislG6dwbHEhWTPBg154J67OXD/bnhSYiTYYNGlAtgDQWVbWFwJmZaudE8Lp4MJgtD0YNyDunbhmb8/RrM99kBZi/aTKC/m5jFue+Ixnnv5RZavXUOx1S4/CwKHFSXlfBWen/SbccHu9evW45qBV5GDIFd4eCZVBhiUyOGC55UVCONEqGIJwydN4KEn/k7Cd64lrCulw5jA5ZW6loEzzArOO/Ms6ubkooTECoWQCpcCBSInl8+/HurOl/ZLHgehICJBKSKiPFatWcOLb73JmVddwekDL+eR557h61EjI8GpFrJ0RXZawnfr1Dkr40ZERETUFnLicfr37hPqmOMmT8pou7BFp71btqRD27ahjrkzsHjZstDGWrF6NU/9+1U+/2YY02fPrnWCE0B+lLO4y5N10SmdVIB3Tc+ZjgCkMVjjsyFZzL/efhtfQNL4zjEjtohKvq+56IILnLhgDWAxwglMFb6pt4ZzTjmVx+57gLo5HugkMeGEjbp5+ejAliMrE0hs6Z/LSm4q5UTCYrBoqxHCYqzktXfeZd7S5SQt+MYghXIuGAtxL4bwNXfdegvd9+tKbiyGxeDjYxVIBJ4VgQOotOBUaZkfW5xHqTNpRermHD1KuOvSrnUbHr3vAerl5OApSXEygTEghYfVlmKtWbRqOf968z94MQ9hTMXny1R+PpWQCAOe8jj9xBP57dnnE/ct+TKGZ53YqIKbTDtYjSXpQVFM8OYnHzFn8UKSxpSE0AvYsp8FjMUa55bbv2MHunXp6gRLnBBkhEADRgp+mDqF6XPnIJTnwt9LnavgVoGjb0uAePV+nyJRKmJ3YvHyZdzzj8c44dKLefq1V5mzYMGOXlLENli2MpyygnSaNWlC44YNQx83IiIiorbxq/6HhTreDxnkOq0v2MDchQtDnfeoQw4Ndbydhd2t3Cz627zrU6OiU23AYvGkRAjFL7Nns3jVKghK/4QMyqSQSBRdOu1HiyZNUUKUdCYzVrub2bokSkqJ9BQIQ68e3XjnX69y0xUDOWDfTnTepz3tWrfGBvahykrCUmJSSljaFkpIJ0Kkyu2AJSuX88RLL6Kly16KIfG0RhnwhEQXJ7j7jjvo1e0AYgiMMEgFMU+hcF35TBmhKXXbFjENnilfCIJANJGu1K5Th325+YabMIUJ6sRywYCvDViBkAovL5f/DRvKspUrkWZr4VJQuSiXulltkShAoIzl9xdcwN233gGbixC+QRiLSfrg6xL3km8MxtfEpCKGREnJ/PnzXfmidWHpKfEm/asQLkMqARx//PFsLNiIMAJrBMIIsBJtoFhrPhz8GZ6nMEZTUTBo2EJtJDhF7C74vs8Lb77BGQMv5+Mvh+CH2E0uIrtkI1diz+hFbURExG7CYb37hNql8+fZs7b5vDxh6tTQX7Med8SRoY63s1BYVLSjl1Bj1K1Th31at9nRy4jIMrWue11FVDcQOdXNbQsCowVIwbejR5FTN5+kcSVv1hg8KZ3TRcPpp5wauF4CoUiKEpku5UJJuU1K1ubrQDAyNM7N5cLfnMo5vzkVX2vyYjnBWkSlfUdMME3GThYblMJZd7wWwfuffkpSuZBzV27l1is9ie8nOemY4zj6sP5BpzkLEoSxKALHjRIui7wafzus2CKfWBGIPsH3QjhHlrASoQRoy7EDjmLK1Kn8d/BglFIY4XxbWoHG4Bdt4qkXn+G+m/8UlCdWndT10caigJiF4wcMoEunTrz+wbuMHD+WRcuW4Bu7RXATgrp5+bRo3Iz9OnbkmH6HcUiv3oGDSwRuJCcOWuv2SznlPE+R9DUHHXAATfdoxHpdiDQ2CG93a4rHcxkzfjxSCKQgyKyKiIgIg1Vr1nDzg/cz6eefdvRSIqpBNvId6ubXCX3MiIiIiNpIPCix+yKkQHGtNROmTqV/794VbjPpp3D/3rZt1YrO7TuEOubOQm0sgcsWh/fp66JLInZpaqXoVJHAVBXhKYUraQpcKYFcoIVlU1GCr7/9Dq0hqDpzYd1BAHOTJo05uv/hKGNdhpCUrpNY0B0MYbdyuaT+LS2Bq8YijMAToKUC7SOFxFRyDGWPcVvCU8qN5OG2M0azen0Bnw4ZgvViGGMwQhAzTjSTSPZq3JibrrkapSGmJArjzhGuG1sqYyp1S7mygiPfJqUkPlv6+9SxWCGw2iCERVnJlb+9lM+HDMW3GmUNWrjZEtaSH4/z4dAhXPO7K2jRuDEiOBYsuKuSyarcNl5wPpVwOU6tmjfnzhtuYt2mTSxauIDFK5azaXMhOblxGjdsSONGjWndYi/iKvhVESmHWxA0nnZwMugaaAFtDFIq9mzUmBOOPZZ3PvnIrUC6a+ZMaYZFK5cxfc4s2rdqjQryr5ACoZ3wln7e0gP2w3QrRcHiEbsaS1es4PLbbmbJ8uzkAkVkn2y84K5Xt27oY0ZERETUVn512OGhiU4AP0ydXKnoNGHa1NDmAjju8CNDHW9nIpFM7ugl1AhKKX539rk7ehkRNUCtLa/bKoupCoHk6duVHccCvoApM2cwd8kSrCeR1qJSbiZr8X2fvj17UyfXhUArpbDGABV3GSu1RiEw0gV2WyVLOvdJmer+ZkpuNshgSpWBeUK6nKagjCx9/SooldsSor3FaWWsLRl1xJgxLF6xDGMMXiyGl5YBVFRczNlnnE6DvHxyUSgjsSqGwEOI0g8HK1wYeMnxVXAdqidWuOMWwfE02qMRt99yC1gdnEMQ2scT1nURzMll1IQfg8QlBUYgpQvnzozg7AiDkBbPU0hryZUe0kDjOnU5oEMnjj98AGccdzwnHX40fffvRseWrcgVAhXsW3LMlRiuBBBXHkoIhDWccOxx6OJESRh7al/faBJa8+Fnn2GUKCmRtNqgrXGB8OWc27KiZFVIv36R2BSxK7Jh40au/NNtkeC0k6O1Dn3MmFcrP2eLiIiIyAr9e/UOtcTuhylTKvxZUXEx02fPCm0u2H1L68A51XYHbr7iSvZp3XpHLyOiBqi1olN1KJX1E7y5NiXOGiAQc4RUDB81IrhPgjZIXFM3T0ikFRx1xOGlNKaUHlPSNc6WPnWlhC7hMpG03DobKX37/2fvzOOkqs70/33PubeqN2i62ZRmdUEUjaDijrjhijFmcbIas0xMjNtMTMZfYpaZTJbZso6ZbMaYjDGJiclMMnHLIlGjyC4oLqhEFAQEmq2XqnvO+/vj3KoumgYarKZbvI+f+gjV9577nnvPLeo+/TzP21vfs4hg0u13mKN2dXNTVSTO87/33YPU5DCxoVgsBpLDCDaOmHjQeN503gXYYhISjkxQgqUjbnfckiKnEt2JiqCu2jUZt8u5pblI3sNZp02nZeSB4BVRIUpzrbz3qBF+8Zv/oehcIPDEoKnwbG9IE+cdxgbCyiiIS/2JzmOcYtUTp4SWsQZEsJ5e5WyphiwZUcUgTBgzmqZBg4JlkAq1F2DjiN/+/vdsbe/EJT7UIoIaIepGqO1AoO6F1XBnYf4Z8ZRhf8E/fu0rrFy1qr/LyPAqke+DL9x9kROVIUOGDAMVuVyO6cefULXxnnjm6Z0GXC9e9kRVcxMnHXwI40ePrtp4rzXU5PP9XUKfIhfH3Hj1tVw666L+LiXDPsJ+QzrtVBFSYYNTADVYIyx8bDFRLof3jshGqKYqFFFGHzCCyZMm4Z0LNIx4HC4oXWQnBEv6HL8DKSM9h4aXLFIi2zM7JVKgskPZLukA1a7QcYR1rZt4auVfcZHBFRMiG+HSvCDvE94yaxZNtbXk4ijUZUG9A3FA5W+WKxRV3eoukyaqIYC9B5vhnkBUMepR4OKLLsIVHTgNxJ4Ggsmr58lnnmbVmtUk6XUJ57b3xEupuuDcExLvwEggBgFvLd4IzgiJAWdDtpVD0/96B5Mq2wCsKHX5HOefdTZOHWoEayr644ll1fpXWLV2DdYYbNoBz6fEZXeSEarXBTIjmjLsb/jjXx7iTw//pb/LyFAF5PvgC/fWtm1VHzNDhgwZBjLOOW1G1cby3jNvSc9d7BYs3bkKam8w66yzqzreaw21+ynpFEUR5804nTu+9R3efN75/V1Ohn2I/YZ0gu07iFU+mItQVgphlFXr1vLCSy/hRTFWSLxHrA0WNZdw2qmnMKi+HmNCWLT3DlMhb+mJfii9Z0qd5EpWqR7sfTvbt/s8ekLJptdF9kjawS2QT3MXLWL95s2oQGwt3vkgyjKB3Dnz5FOgmIRoqgg8HmtKlZVehHG1gqjpRiyp96iGLm/OufKuveVCVCttel35RefOPIchgwYTmRifblNSUhVdkaXPPBXmgmD2gHjpfkYNQiQGTVVuViByEPsQMh55MC68V1If+V7eLaWyND0pFnjLJZcQx3HXOinli3lPrq6GJY8/HroQpudc04F2ZYGrZrZTtbuNZMiwr6GqfOvHt/Z3GRmqhNqamqqPuXXb66sFdYYMGTKcetw0GgcNqtp4cxcv7vH9RY8/XrVjRFHE+aefUbXxXovYXzIIa/J5Jh18MBefcy6fvuY67vvvn/DFT9zAmFGj+ru0DPsY+zzgoNohyD2Fbm93DA2d4gJxoKjx3P/Qg2xu78TEJqh8rEn3g7Zt7Zx8wklYVcBjTIlEMOUOcCEbKCVhKoK2A8kUCBJjDCoeU9nKjS7yY3cWrZ1hx6Bxg2qCikcR5j76KB6DeAOuiNgokGeqnPCGKYxoHl7ypIEhKIy8puNUju3L2UMl4qdMOCUOD9hIeKV1EyOHNqNFj0GCVirNMtoVRBRVQ6CPPF48kc0xbMgQphx1FPfPm4MXJfKCMwZBSPIxi59cxhvPOAcSUrekR1LutDsxVmn72y7MXLrekHSSHu3umCzvJ4ROfhbphd6pqwWdkdQaqMrBE8YxcugwVqxbR4g/d6gK6pU4zjP7gQe49NxZqLWIeCLtfZ5J94ymyvcrr1v3bV6tQi1DhoGEhxfM57kXXujvMjJUCcObmqs+5gurXsKrZl1yMmTI8LpBFEWcdcp07rz7d1UZ79HFC3d4r5gkPPbksqqMDzB92vE0NTZWbbzXIkaNHNnfJfQaxhgOHDGS8aNHM3bUKMa1jGbc6NGMa2lh5LDh2XNGBmCAda/r6YF4T/fbgZQBxJe9b6iHP/zxfsRYEu+JjJQb0lljyDc0MH7sOLRkreuGXdVVmdMU/m92vf0u5tHTMSvHLr1nhEDeiKeoypKnlyHG4tRjRHDqUSdExnDmaTNCuPVOgsAlVTd1L650XE+qqDIGrPD5//g37rnvPs489TQ+c/0/EJkIE+/ET7hLhK56hY5OcjV5phx1FH965GEkTq1t6lEPcRyxaOlSPIqRMHnp1kGust7u89xbNY+mHekqbY+7G6tcQ7q+BGHiIYfywpq1gCLWBhITJcGzeNnjbNy2mUG1DWA0hKwjmDIhuv29sf062xE7W3c7U0xVmwzO8PpBXwQ+7w3umT17nx8zn8vR1DiEpsbGHV4//+1vWPPKK/u8pv0FB/bBF+72jg5WrFyZhZZmyJDhdYULzjijaqTT8hUrWL9xI0ObmsrvLX3qyap2HH29W+sARo0YiTHmVeXmVhvNQ4YwtqUlkEotLYwd1cL40WMYM2pU1qgjw27R5yukkgDozUP/nj747u7hu2JLVJVCIWHZs8+ixgZbmXq89+Vw6oMPmkDToMGIB2OCJGbnNaVsVbmW3tdfuVXp3GynPNEuTU3JatV93mG/oDBShIJzvLJxI2qDuqqUBmVshFHluClT0w50JgSsdztlQmr7KpEs3WtO9/Eov/7d7/jVPXfjRfjl3XczdcoxXHL+Bey1Y1OFmigmSRxHTpxEZ3s7+biurEBT77EibNiyifZiJ/Umj3eKKQW895IM3BUqBFC7LnUP1rFLs6qMwHFTp/LH2Q8gNii8Sv+MeGDD5s089dyzTDt6Kj5JEJtehx4smpXj97aO3syjfK/uOkUsQ4btsHXbwMjJeWj+3D4be/SBB3LyscdxxKETGX3AAYwcNoymxiHU7aIr0D2zZ2ek06vAiKFDycVx1dtGP/7MUxnplCFDhtcVpk4+kgNHjGD12rVVGe/hBfO3I4Z21dVuT9E8ZAinVTH8/LWKKIoYMXQYL6+rzjXrLWprahg7qoWxKak0rqWF8aODcmlQ/f5h+cvQP9gntGT3rKWdoRS+vCdd3Sr/3ON+YnBaxCKIsbz8ysts6+xE4xj1CTViMTaonpIk4byZ55ATg2XnBEQXkVbqQlZOPgp2r3JdJQJm9/OpJJ1KfzaQkkPbE3eVRJ6IgA/iorZigS1t21DS8O1iAlGE95762joOHDosWMUAjJRzlMo2utR1p6X3TJdNTUQwmp7j2PLDn/6UJM7RWSxiB9Vy889v5/xzzqUGKDNBhLp2nfVtqGwTaA00Nw8hX1tb7mpXgnfK+s2bWPvKOsYPbwlnVwUvEq5vStAY2y1sWzUl2yoUQj1UUmmV7F575X7dc652pTYSCf5MlxQ5+qg3kDMRaiISFIwPaVZeiaxhyZPLmDb1WEwabo7pfYfDntB9Te28xm621CzeKcMeoHXz5v4ugZWrVrGhtbXq406ZPJmPvudyjj3qqKqPnWHXEBHGjmph+V9XVHXc2Y88wkVnzazqmBkyZMgwkCEinDfjDG6542dVGe+RhQu6kU49h4vvDc4//Uystbvf8HWAQydM6BPSyRjDqJElO1wLY1tGMz5VL40cPrzqx8uQAfYB6bS3NrndjdkbuWFJCSQSsnNUlGdW/BWJIxKXkDeCV4+IweYicAlnz5hBJIbIg7MaHv5JiQYRnHPY1PJl1aJGyNsIQ7CeIRFJwafdzjxiTCAeBLwoeEVSUqEUGl168PfSFVpdpq0qibWS/KhbRo9JrVgdhQJFVSJjcM6FXCkFFSGOhDojWBTv03OIw1iDU0+k6TFLCiprMc6FOm0I3LZYiup46rnneHHdOpyARBanyoqVLzF7ziPMOnU6RQlEkGiYb8oCUVKNqWqajuSxaeaVWKHoPSg0DR1KfX0t7UlJqpuSL6okXtm8dSt+aEIkEds1ZxWlp+XWG6VTIJd8SgAFog4JXQFVlcgIsbVlPqbgHOJL50wQK4FIAlRd+ZglYiwxnoNaWhg5tJk1W7aEn/k02wmw+RxPPLcc7xy5KKLgihglnMfdZDLtam49WTJ3tn9mr8uwN3jy2eX9XULViQmAS849j09dfW2W/9OPOPKww6p+bf/86BzWt25k6JCm3W+cIUOGDPsJZp11VtVIpzmLunKdkirnOb3x7OyXAiVMnTyZBx6dU7Xx3vHGi3nrBRcy5sBRRJkdLsM+xj5fcZUEwN4+5JZUGcbs2spV+cBtjSERw4LFCwMhIwSCpZS5o9Dc1MzI5qFQVIxYHF1ZJYGTUCIxFAtF4nzM8hV/Zc7ChTyzfDnr1q4jH8WMaxnNMVOmcNKxx1KTr+nKAjIG55OQh5SSEd3nb9MQ6p7OSplWMNLViS/9iQgYNbS1deITh8RxGCuFeMjHefJpPlCJXDFRyEOyKrhIwHls2leNYhEfGTwhV8kYwSUeYw33/v4+ii5BoqhrDtawYMli3jhjBuISxKSKGZOGiks4z977QGKpgjF4p0QieBcYOAXiOKa2rpatrZ1ly6JIsBAmSUJHZyHYIdPudoaUNJLSmdp5ltPO1pymwV5RFKHFhCiKKPoQmL5o2eM8umghz694ns7OTpqGNDHxkImccsJJjB45Ak08BpMqlHxK9lUcExAVanI5Dj7kYF6aOw81JhTtPNYaVJSlTy7DWIv3rofado6eSLXuOWc7n3NGNmV4dZhf5TbJe4NqWQZKGN48lP935VUZ4dTPOGrS4fz63nuqOmaSJNx511387TveWdVxM2TIkGEgY8KYsRxx6ESeeObpVz3W+o0beeb55zl0wgSWPv0U7R0dVagQJh18CIdOmFCVsfYHTDliclXHW7Z8ORPGZPbyDP2DfqE5q/GQ29sxgsLD4ryngOPxp57EiceYCHGBVBBjUPUcOGwEkRiMepw6EvGkIqUygeKd0tbRyc0/uIUf3/lzOopFbJQjivO4JCGe+yg3/+x2Dhk9ho9dey0nHz+NnIRj5Y3FJUGBJCJlxZJKBQEQJrfjfLvNuysHirT7XFBzOe+xPmQvdamKTPnhSdRhjC3/3KeEnEmSNOvJoWKRyJbJMaceK6nKR2DJsidQm9r0XAgslzjixVfWkKBpxlQXUeYFKFv0wKZKq6JqsD8mHhsZJCUTrTXk4lxKOKXEYuoyVIWkmJTJJtPNEre3kJQUk7STX6GQsHzlX/nqt7/F7LmP4IzFGkMUWVySIO431OdqeN+73sU73/JW6kwtNgET21Qltf34kUR0eM8xxx7LfQ/+hbimBi9KnBKeDmHjplZWrVrFqBHDUVEcvc9X2pWaa09CxTNk2BO0bt7M/Q//pU/G3hN5fevmTVU99snHHZf9FnAA4Jgj+8bW+IOf/5SZ009j/OjRfTJ+hgwZMgxEXHjmWVUhnSBY7A6dMIF5j1XPWndRpnLaDpMnHkZdbS1t7e1VGW/RE48ze84jzDjhxKqMlyHDnmAvU59fPV7NA29vbEWV26oqKpat27bx11UvBpLHOUrh4ol3JM5xxOGHIz486KspkVGCOEG84Jyypb2NK/7uOm678xcUrRDV1eFzMduKRRJr6bCg9TW8tK2Vy6/+MD+4/TbAYxWMU+LKU17KGtLQOc9UWKlEu17lrmkAXndQqAglFZFDVfHq8eq3yyFK0m58ikF9sO25YoKibCl08sVv3cSX//ObPLtyJXljkI4iUaJEDiIX6jCprXHjlk0U0/GsDeRUgtJRLBAjXblAXsGn598IxlrWtW7gR7f/lO/e+mM6OzsR7zCRCcQUJXtcsDFWhqeH+Uv4uZWUaOrKpCpxeN2VdDt99bBWjInCubaGu/70B9783vdw/9KF+NoaTJzDO8F7AYkgzlGMhG/dejPvverDdGgSFGEpcdUd3iuxGCaOG48rdgZVlw/nxXmPU8+Wtm08s+LZtKW3QXaj5OtprXfP/drd9pV4NflRGV6fuOlHP6x60HMJ+Xy+19tWs2sOwOCGLCxzIGBcSwuHjBtf9XE7CwU+99X/oJgku984Q4YMGfYTnDfj9Kr9QmXuY4sAmLdkcVXGi6OI808/oypj7S+Io4jTTzypqmP+49e+wtr166s6ZoYMvUG/kU6lTKa9JZ+26/TWi23VezZu2sSadeu69ikROpFFVTli0uFBNURQ55QyegzBoqaqXP3xj/HsiytIDCChlaV4JY4MgsMaUBztnR00jxzOf938XW6+7cd4E1RFmC6FU6ghEBXb1VsinLr/PVUnmTQ0O7wMmpI1cS7CGhusbOkcPIoKFIsOp4pi0owlSyQGRfjKd2/iR/97J7f+7538zYc+yAXv+Bt+e/8fyjlMmmZfhXOpdBYK2MgG0sR7IhOsZYlzYY5BW4VRE5RNYliwcBGXffTDzLrsnfzrD7/N126/lWs+eUOabeVR71LSJLRg7+jowBiDJaijTEnZJEIujlENFjR5FanX0u1VWpN33XsPX/j3fyNqqMNgsU6wCdREMXm15FITYsEVsXV5nlv1Iu9+3+UkLsH7kOe1w7GMgcQxfuRIGnI5PL4cXO7TwHY1wrJnnkasDRlge9iKvqd7YU+612XKpwx7gl/dcze/vKs6LZh7Qs0ekE7V7ri4as2aqo6XYe9x1qmn9sm4jz25jKs/e2PVfoOcIUOGDAMdTY2NTJ92fFXGWrB0KR2dnSx+4omqjHf6SSczZPDgqoy1P+GCM86s6nitmzfztzd8nBdXr67quLvClm1b+fotN/PNH96SPidmeD2i3/wDvemqVanYMEjZRhVCpdMH9u77V3bsoiKo2wprN27AGSGWCCRBRdEo8G652homjBuHcR5vQzh2pIJVSNShRvjeT25lyfInsVGEepfazUwI4VZwolgJPeFUoMMnRDU5vn37Dznr7DOYMKJlu5pKcwl7VARGC2VvmpSnpT0oXwIzJWm2UW1tLdYKSfoIZhSQQA51dnSwrZjQEFlIw9M9Bo/y8pq1RLkI76FD4fkNr3DDv3yJPy1cwA0f/ghN9fUYE4EoSWql8z5kUKmYNBJc0454pWsjaGRwLuG/vvt9brnzZyF4XKEQG1SEl7e2Yr3Hi4CVVEmltG/dSlt7e1D8pOHjPlWF2Thi8KDBGCe4iDJtul2SUzclU4nc6Z6zVOaGhEDc4Wjdso0vfOsmtsRB2SYuDT03ihNwpIqoEFNFUT3GCCvWreY/v/Ntrrv2WiI129FOKqDeI0YY1DSEkQeMZFXrJlRK9sBAU+XiHPMeW8xVRig67VWeTPn+6JYj1f3nGTLsDJu2bGFwQ0OvScc169bx/Z/d3qeEE8Dw5uZeb1tXV1vVYz+8YD6tmzdnX4AHAM6bcQbf/cltffJZ9uiiRXzwH67nU1ddy+SJE/do3+UrVrB6bUZOZsiwLzD7kYc577J37bPjNQ8Zwq1f+TrxfmizvujsmfypCrb4tvZ2rvnsp6umNH7LeRdUZZz9DSdOPYbhzUNZt6F66qSVq1Zx+fV/x/Uf+jDnzTi9auN2x0trXuaO3/6WO++5i63btgHwzIrn+PdPfYZcHPfZcTMMTPT5p2lPXbN6ux+wHYFUCUMgNiohSAiu9rpdzo/zHmNjXly1ijgXoT4JChmxeKfYCBrr6pkwZiyG1OolIEZwiQNrWPnyar73k5+gEuNV6DRB/ZTDYD2YYFxDsYGcSYrkcjmKvoh6+PdvfpOvf/5LxCKESGzB+2AQk5R82NlZKp2DyoST0vnxIlhr8ao05PPkoxjvAkGi6hBjMSJ0tLXT2raNhiE1oOA1QYzBqDJxwgQenPMoTj0aWTqMQt7yu/v/wIsrVvDtr3yVwTW5YBsLciO88UFxRbDzqVgwEV4EY8F4z5aOTq7/7I08Mn8+LmfpTIpEYhAMonDYxMPQtPOf0JVJtWHjBto7OonyuZTYSy1zRqivraWpqSlYH0tXvfu563Yie8x8krSzYVmXpCTO8eWvf431bVspRhYTllMw8UkIRI8wJJqQWIisCaSZCSvytjt+xoUXz2LS2AlhPhXH9T7B2oja2jomjBvPyxsX41CchGB3QRAjrFq7hiQlVY0Iu+/RuOs8pwwZdoWX163l0o9+BIDDDjqIcS1jGH3gATQOGkxDXR1RFJEkCVu2bWX12rUsfuIJFi97Yp/Ykg4YPqLX2zY2DKrqsdva2/niTd/kyzd8MgsT72eMa2nh1OOm8cDcR/tk/CeffZbL/v5aZk4/jbecfwFTj5i8S/vJihdf5Pb//TX/c+89fWYtzZAhw/boLBT2qSVo7fr1/PKu/+PtF128z465r3Da8ScwrLmZVzZseNVjzVtSnTynMaNGMe3oo6sy1v4GYwzvfNMlfP0H36/quBtaW/nkv36ZO+/6He95y1s55bhpVfm+s6G1lfsfeZh7/jybeY8t3uH55MG5c/m37/wXn7rqmld9rAyvLfQ56VSNbnXd9y1borrb0lKFkOJDlpCEDCMRg1PPulfWoWIQCeHaXh0hKVwYNriRhjgPLuQiYcF5F3KWjGHe4sUUvCFWi3pQ6zE5i9/aziknnsTMmWfT2dnJf//sDlasfoE4zoXOeBLTmRS494H7WbthPS3DRgTCyTmQYNPypYTu7VA5udTaVtmRLv2jMcE6aBRq45jB+Tzt2zoQ0XLukdWQGzR/yVJGTp9OnbUUEkAVq3DsUUdz0w9uoaahgaL3OFHiKMIXHU++sIL3Xnklt337uzTEeVR96MBHIESM+oqaguxIXQJi+fy/fIn5S5bgTFgDsbWo81inJC7hpOOmlWdqCQQakeW5lStJnCMSG4ghkdTqZ2ge3MiQ+gbUhSAnq7rDOiBESZVJH69azlnqysEK1kHRoHJSVba1tYVQ5DgP3hEutEeA5sYmrrjsvTTU1PGnhx/i3odmk+AxiUdiixMwtTF//MsDHD7hkJAZVrFmoyjCe481ERPGjuPhBQsxRgPBJGn4uipthU62JQUG2RjV3VNOlfdFOfsre0jO0Et89ebvl3/7NH/JEuYv6f9OdBAylfZEZTR+zJiq1/D7Bx/g2s99hhs+ciUtBxzY6/1WrVnD7/70R1auXlX1ml6vePclb+4z0gnCZ+e9f57NvX+eTX1tLVOPPJIRQ4fT1DiYhrp6trZtY92GDSx6/HFeWPVSn9WRIUOGgYM7/m//JJ2MMVx4xpnc+stf9HcpZbz53POz7667wKUXzuJHv7yDjZuq2zQFAnE4b8ljtIw8gDNOPpkTpkxl6uQjqavtnYJ89dq1PPP8cyx84nHmL1nCE08/tVsL3S/v+h3T3nA055w2oxpTyPAawT4hnao9xg4kQwotZRBpqXeaKVv0JIpYt3491lqkHLCtGBN4pxHNw7DqwStipNzm3hAon8VLloA1qAud7vAe117gxmuu463nXwAIFjj95FP49Be/wKNLFqIuqIAkitEo4ennn2XM8JGI+jT8u9I6GCx25bmUnHZpjpPs5AbWUhi5QD6KOGTcBNYsWgo5E+YSBZVNHMf86v9+w3nTp4PzRKneCmDyYYczfEgzWzrasTaokIxTxFg6cDyz5kW++PWv8tm/ux6xhhqTI3IWFYuSBMLIB1WQBRKFb/7oZv7vwT/jS+oo1xV0bVUY3jiUM088NZBJ1oCDIg4iy7xFC8nV1aOqZduYNRZxylGHTiLWkP2kaWB5hRuxDKMpTyXsoDoqWRqlrHEKOVsvbVhPa2c71DagKjgRbCS8YcJE/uPzX2B4QyNRHDFzxgyOveto/uWmb+DyUdrlT5B8njmLF3HVu0jJzy44F7oWOu+ZNGlSeQ2b1LInGr4IbG3bhiJlO96OM+t27SvJ2ArCKVM+ZdgdXlrzMn946MH+LqNHTJ542B5t3xdh0wAPzZvLxR98P1MmH8nUyUcyYcwYGgcNor62jsQ7trW1saG1lVVrXmbl6tUsW/4MK1dlZFO1Me3oKUydfCQLH1/a58fa1t7Og3Pn9vlxekL2zJUhw8DB8ytfYOnTT3HkHv579FrAxeecO2BIpziKsq51u0FtTQ2XvfmtfP2Wm/vsGC+teZn//tWd/Pev7kREGDFsGONaWmhsGERtbS25OKZQLFIoFGjdvJlXNmxg9do1bNvLXMRv/PAHnHXKqXvUqTjDaxv7xF63q/d2SkqV1S07jlH6a8/7CiKmTMZYERINJMvatWsDQaHB0mSMCblQiWPo0OYQWm0siSYYLGIN6kKc+NpX1pGLoxAu7sOH5OCaGt408xzqxKJGiL1g6hq44n2X88AVD5Kvr8eIoegS4lzE+s2b2dTexuqXXmLI4Eaam5qJsVijJN1ChnZUcckO/IOU+tEZgzhPzhqOPXoqDy1cAgrWBAsfRlEV5i9azIbWVhoGNabEmoBAU+NgPnTZ5XzzO9+m4DwmjoL6x3uIDc4Kv773bqYccQRvmnURdVENVk3Id8IimoAxWIkwCA/Mm8/3fvoTCjkhKqY1CmANBsEVEo6fegxDamqRxAVyzwRh0ZbONh5dOB9rDYlXbCmfSRUKCVMnH4VxIKUOdrvgVkqnVAjEYSCXNORZJQ6Hp7VtK2Cpr6vlhfVrSYyUbYwSWbZt2cJ7/+YdjBrcROQUTTx1JuKSmedyy89/ykutG7FpHYk61rdupLNYpMbYoGArXTZr8M6DiRg+YjjFYhFrTbrO0zXpHGItW7dtpXHQkBDe3o0s677uwzqX8na97VyXIcPsRx4ph+cPNBx12KQ92n5oUxMHjR3Lcy+8UPVavCoLli5hwdKBoQJ7veLjV3yEd1971X4dQronHRszZMjQ93hkwYL9knQaP3oMxxx51ID4d23m9NNoHjKkv8sY8Hjnmy7hN3+4r0++53SHqrJm3TrWrFvXZ8dYtWYNf5k/j+nHn9Bnx8gwsNAv3et6pX7q9sWyssObl93l2ATiyaTh3MZaQNnQuhGbKmckZXXUKzhobmoGgg3LEJQ3Ju0K571n06ZNqXIJQNFigZaRB1Ab16DOYwgqH4twwPARWLE45wAlZyKKKtzz0IOc886386YPvJ8Zb7qYj33uc2x1BQpJgkWxJctXtyDsnZ7DksQpVdpEqlww82wia9OgKMGk3F1Rla2FDh57fAlYAVMKsA5ZSpdd+jaGNzcH61xKZIgIxrmQ2ZSz/Of3v8eGTa3U1dWlOVQOqwoaOrZZE/Hyls186gv/TFHBJ6E+KwbS8+69JxdFXPaOd+AKSehQl843MkHl9NeXVuJFMWIRH/ax1uI9vOHQQ6HoEK/lDn69eQSxErK+QhO5hG3tnVz/mc9xykWzOOWiC7n8muu4+/7Z2DiHeI9Rj0+K4KG5sRHjfDkDy+Opz9UwZuwYJPEYJ0FVJoYthY5y3o14DeurYj2rKkOHDQuKOxFUS6o6MASCcu2aNUFNVzGxXRFJQtphMfs1eYY9wPwqZTH0BWaceOIe77O/f3GxOzSSeH1h0sEH8+bz9++g2WFNTf1dQoYMGSqwL9SV/YVLzj2vv0sA4O0XvbG/S3hNII4ibrzq2v3qu/6cRYv6u4QM+xD9RjoZY3Z74xiteGExakBDZHeCEKie8NIe06IB7xBROgoFNm3ZHAgXwkO8T+1JHUknBx54AF4Fpx4vQSVUsi9ZEYY0DibCoN4BDmtg5YrnKXRuxZqQY1RwBUBp27KVYlLEp8QI3hPnYu57+EHWdG6lozaHH1TP3X95gG/c/F2ifEwar92VOZRapXoioCylXCK2t92pcHDLKA4eMxojhsQLptTXzSi5hhru+M3/UBBDMUkwGmxlWIs3lk994gYiH8639ymRhGATh1hhQ2cb133mRgoRFJLO0PvOF3HiMN6xcdN6rv6nT7O+0I7HYMTiCZ0AvSpehGJngb997/uYNP5gcjZKFT4JJAmREW77xR1oLofzHkcRxRGlhNVBhx7ChFGjia3BGhDvMCn3ZiR0vyvnfXV7lZRfJJ58HPHFb36D++Y8TCGXJ2moZ+7yZ/jtvffiBZwmGFFiDzmxrF69GpuLSIqdqGgqD1Q2btgIoljnA6klwuD6QcQ1NSQiOGPQNOfKikmJJqWxvj5Njg+MoKhJ88cUlaDIK98nGsgro13EkqT3hEXSYPbAaVWqnCrXT2m9Z8hQiVVrBmbnrZaRB3D4IYfu8X4Xzzx3v/oy1h2DqhyW/lrEde//IONaWvq7jD7DYQcd3N8lZMjwqlG7Hyn2nl+5sr9L6DPMnH4ajYP6t0Pr5IkTOXIPlc2vZ0yZPJl3XnxJf5dRNbz48ur+LiHDPsQ+J51KCiWtUH70BjvbrmxIq3jW6P7AXfSObR3tdHR0oonfjshRAe8dQ5uHBvtTagELlEsYPTLCIePGp4RTqhIC2jo7+eEdP6dowUWCiy2bO9r4xve+QxTniGKL98Vgb3PF1LYleBGcGFwu5rEnn8CiGK/bzWc7CyIlJYxgU1OdSWOrguJJyufVKJx+4gloZydGomCvS31oiToeXDCP+x5+EG8Nqg71ingwqkybMoWPvO/9SCEhkkDmeQWrgveegiiLnnmS++fMwUYW513ZBSl4HluyiHmLF1P0Hu8dxhE8cxJIIes8px03jbdf/CasChEgzoU5WsO8x5ew+MllqDVhckaDjQ6HFgqcd/qZ1NfU4Cwk6kGkTBzuCpXWRJsmOS179mkkH+PEU3AFnDiiOIc6j5TWpyo2ivjR7T/hxTUvY3I5CgKJMfz69/fy7PLlxBrmKIEPZezIUcRisFq5Bg3qPU494pWcMaErmHcVVZrQydCYQI6KBHtdxXoue+jS6ahqqqbbce2X748qhPhn2D/RumVzf5fQI9564ay92m/86NGctp+qnay1jB01qr/L6HfU1dby5Rs+SS6X6+9S+gQzTthzhV+GDAMNjXvQBGKgo3Vz9YObBwpyccyss87u1xounXVRvx7/tYjr3v8BjjvqDf1dRlVQKBT6u4QM+xD9rtfv7cNwpZCpZKuqfPgW6XkskaCMamtvp9Deia0YqJzvJMKgutqgGjLh59t1P/PKqSeeTGdbGyX7m3qP5iK+c9uPuP5zn+HhRQv4/SMPcsXHP8afHvkLkosD8WIENFjKbGTTnB6PsYLkIta1bsRpBeGUHrc0r0oYuiJ+uigIKe9bynCadc6Z1IhH1OA07FWysPmamJt+fCudzmO8EhnBKljvqYsi3vPWt/GeS99OLAZDhKQMm1UhSoktmzNpSJJQdI4Ii+IQAzkVIu/JicEaJTYGG0WoU46ZdCRf+ecvMaSugchAzkrIyVLHxvY2Pv2lz1NIEpzz6Xn3OHVBXSSeWadPBx869olYLCZY93q1nlISUZS2xLG1vR2nniiKggrJw+gRB1BnorT7nSAYbByzfNVKPvjxv+OeBXOY89Qy/uk/v86NX/t3TG0+WAstJDiKhQKnHnMsJlWLiZaujC+vO9FAOsVxtJ0tMISbB0Js67ataa3bz6WyG59XX1bidSdx95TQzdRQr094N/DynBrq63nzeXsv+b/mfe8n3kW7+9cqphxxRK87yZSwv9rxDjvoYD5zzXX7HZE+fvRoTpl2/F7tawbItTZ2YNQBA2v9D5Trs68wvLm5v0uoGjo6O3uVfTiQ1tue4G0XXthvn6VDhzRx7mmn99n4A+nzqJqw1vLlGz7JqJEj+7uUV43BgzIF9+sJ/XJH7urhttR5TkTxAh6Dx6Al9VKpo5lAIgYThQf4yFi8c0TeQALOg1GDE8V4R0dnQqGjELKDNFjZIHwZEIRBcQ5QbCHQE1ZD3o5NhFzimXzYoQwb0USUt6gabBrEXTDwx7kPc9lVH+GjN36Sp154PnQpUxcas4kFo5w8/RSaG4ciUUwkgWhR59na0Y6xFknthkZCvzyRoGqKSvVWnLJK251VyDmI0o5zsYUjJxzMeaecSt4GdVTkDc4LxgeuaOnzy/nWj26hKEIuUWoVIrU458nl8lxzxRW8/9JLyRcKxFGMV4t3FrzFOEucRIiG7ngoFEVDC0AVCkbRSMAqxiiRBe0sMHPaSdzy1W9Qm4tDOLs4nHdECkWj/PjuX7Fi/RrwUO8jokRDmLiJMIlw5tTjGdM8NFwXl14/8XhJUtlXyGEy6okkNMQz6UskBJkbgsXPJUpnsYgxhsQ7xAIRNNY38IbDDyeHECceF4NHaMez/JWXufzvr+btH34/v7jrd3QYQT14a+jE4wQGOZh53ElE3iMuIULBe6wYXBr4jgRVV30+jzFxSpYqqsEGilc2bNlMggYVnoRraHxYk+KF2MbkbY58nMepgBrEWLwKRqJgQe2FAqw79reHuAy7RuMA/Mf+w+96D4PqG/Z6/wljxnL52y6tYkUDA++55C17vE8+t/9YXLrjgjPO5B8+fGV/l1FV/P0Hr8Ds5WfwQLnWNQOkDhhYoew1A6iWfYEpR0zu7xKqhlwu1yvScKDcg3uKsaNaOPnY4/rl2G+bNYtcHPfZ+APp86jaaB4yhO986V9e88TToePH93cJGfYhBigNHAgftKu8kiKpZCmy1nLXfXdz9Q0f52+u+AB//7nP8vRfV+KswUQRxlq8BPLGIBSLRTTNKgrjpcoir8RRjDEWS1Ci2NSOZhFMkhAljmH5Wv7t/91IgxfyXkCikCtlLR0odUMGIzURbb5I0ShiDcaGrnZ1uTwf+8jVxASippzJU+pe1jXJEAquIZTcVPyopy+jxoQAa0jtdyKBoPLwocsuo3P9RmopHUMDOaGCiQy3/Ow2Hlw4Fx+BcwngiazBosQoV3zgA3z1P/6VoU2N2MggOUMiirdCIooTD1aQNKlcAW9AIoMxJqiUnCO2EZ/+xA18+bOfxXqIvZAzFuMNIoaCCH+eM4ebvncznU5RE9RgApBAjCVnI6796Eept3HIbZJuii/VkG1UQcaJhpD4Unh5yapWyj7yPnT0M8aigd2kJh/z6Y9/glwUk4vz2E6fEoeh293ghgbytbWoc+RUsEWPxRBFFi0kXH3llYwYPgxRxZlwHJN2T1QJCqUQnG7I5/N478rKpKBYCoV3dHYixoS8KMKa90CCsnT5k1z/uU/z7is/xJU3fIKHHp2DRJYkcZj0/hCzfTZY+a7KSKUMFZgwdmx/l7Adjpx4WFUCRa9457s56Zhjq1DRwMAbZ57DaXthuxoyePB+qfoq4dJZF/Gxv/3QXhM1AwmXv/VSTp02ba/3Hz50YChLhg8d2t8llDFiANUyvHng1LIvMO3oKftNG/RB9fW92q55yJDX7Jzf8caL9/kx87kcb7tg76z0vcVA+jzqC7SMPIDvfulfaTngwP4uZa9x2vGZpfz1hP8PAAD//+ydd5hkVZn/P+8591Z1mNAz05MjMwyZcRiCCENQBAXFgAqiIlFcA4IBXBAFXASBNbGGNSCGXd01rbrBdVfXnwmRKEoOI2mGyXm6u6ruOe/vj3NuVXUzMwzDJPR8nqee7q66de85597qmfvt7/t9dznRqXVjPPg/kkYEVxSIMdSKBpdfdSUf+8S1/PrOW/nTY4/w09/9mnd+4H386rZbGSgKIJRlSdxnoyjK7vQRbR7BGqGSZYA2w6idc6j39Lk6Dz31GOuLAeYfcBBvPuFEjBUwOVklxwdzCg3nQ8c8MU3XElYQlNNfdwozRowlL5QKBmvCdho7s5kwwUEqUzPHSVvjLAUK7338PmzoVfHBaNTsArf3zFmcdPzxmKKOqg/ZTaEVH4riqhnnXXYJN9/3J5wJRiUjYFXpNJbcKUcccCBf/eSnOed1b2DG6F66xSCuQCSUMxokdHSLwogCvl6HeoNpY8Zy7smn8oMvfYXXH/syOrMKFSN0GIvxjooINVdwxwP3cM2nP03DKyIZ3nsKCQJjRQyyocYJR72Y3SZPRhoeIx4jGh6EErhwEfu2kkMGfR9+DtlXxpTCpcbw+dLxZtF6gz0nTubUk09moFGnUqlgbQipN2IQL2RiwSlGFYzBW4N45ZWHHsmpx70SFNa6Gt4Iqh7xHmtaZXASLnJsJQ82JkIwuEgorRMRBvr7sRJD4tXjvMNbw3/84n848/x38t+//TV/fGwBv/zDbfztR6/gm9/9LibLwMcUsiFGwqE5T0NJZXV/nRzygrk7ewhNekaM4NpLPrRNylCMMVz9wYvZZ/Ye22BkO5eXH3U0H3nPBVv1XhFht6m7lrC4rXnza07imos/9Lx2krzp1a/hvDPOfE77mLmLnOdd6XqbMWXqLlPWNm3y5L9oAXgoPSNGcPzRL97Zw9gm7D59xhZtZ4xhxpQp23cw24nDDjyIPXabuUOPeeJLj2XUyJHb9Ri70u+j7cWk8eP5+ic+xcFzXrCzh/KseeHcA5i92247exiJHciu8S/yRhmUeIN3DTJjcOq5+6EH+MF//4TCCoUJbqOGEdYUA3z+a1+hUs3Qug4KgvIagpw9OiivKexeybIsiDgGHJ7MWv5w37286pzTOPGc03nNWW/l/916M+9659t57atfRTWKLXleIc8q5JJjXRCJLIYqhq4s54w3vpmz3nAqVRHq9TqG4LYSkVBvLBICpGOpWisrukz4aVF2uGt2ugsqRciAEgkliEZQE5xSl114IT3DOkN/PxPymcRpLLMz9GXKBVdcyp8eW0BRNMhEqBgDzpFJyGeaOWYcHzjzHH5044189oqP8o5TTmVkpRq7tZWyj0UVeqpdnH7iSXzmw1fw/S9+lYvOPpeZo8dR9Rq6zRlFNKxtgfL48iW855IPsmjZMoQg5mSEmjiHYr1n8oge3vGmN0PhophH7Finzd6FQy8X0XIN41cpHVnhNWtiGaNIOG6kNlBDBM59y1t468kn0/CNENoeu9D5KFqa3FBogRUhx/Da447nyg9eQqNW5/obb+C1Z76Vd150IQtXr6QQgUKa568U/6yxeIJ4FzK8Yq6Sh0ajEc+wRYxFrGX56lVce/319KFobhhQh8uEIjfc8C//xKJlS2NGmY9usOf/X/8T25eXzp9PZ0fHzh4Gw7q7+cxlH2XC2HHbbJ8jhg3ji1d9nAP23W+b7XNH8/oTXsGVF37wOd04H7wLCYvbi2MOn89Xr/vE8+4Go7Ojg0vPO58PnPs3z/n39YH7z9klBJaRw4ez16zdd/YwgLC+++8iXbHyLGPu8/h30dZwzhtP/YsI/H82ndUOnvP8/X175smn7LBjGWN460mv3+7H2ZV+H21PRvf08IWPXc1bT3r98+b//l2dnXzwHX9ZJfKJZ2aH/i9lUx+G9m5zQx+ID2VG0RmU2Yz7H3kodh4TREMQthio4Vi4fAkbGg0yY4PzI7o4Sgt++R+zkAJE6FIXa+2MNRTq8QbWrF3De/72Azy6cgX9Ynhq+SrOuuB8bvj2P/P+s97GRy68EFu1oYsaoVQMb9CY2zN17AS+cN2nOPvU08jEUHMFdfEUJsw3lJBJELsAUyjWKdZDJkHQetpaRJEiBGmHWTS3jyV7WijGezpsxujubv72fe/DFQVGBW24IGWEhnLUUJb2reXs897JE489jnpH0WiEEj8jIQ/LWioidGcVjpx3IO8+6wx6hg0LjiujIUvIK9bk7LPbbK54z3s54eD5jKt2Y53HWkM1s3h1qIQueIV33PfoY5x0+ltZvG4DLssRyalKJZxn4yETBjZs4APvfBezYkc4bwUxQHQ52egsM2UelpG4NvFhwmvGGIxI8xrITSi/dKpoLMFEoK82gFPPSDVcePa5XPWRy8lsEDpVBLWCM+AllLANz3KuvvASLj3/fTy2aCGvOO1N3Phv32PRypX8/r67Of/Dl7LBNSjiNWhNOE9Wg2AWPGehU2L8JLSe0yAgNZyCWB559FHW9/dTiKLqsYS1dAZW9K3n3ocewHnfLEE1GoRM8doWar51n8/EXyYjh4/gTa9+zU4dw5hRo/jClVez/17b/uawu6uLL171cU476XXPq2t75PARXHfJpVzyrvOec+nY644/geyvwGGx16zd+fb1n+Utrz3peVFud9QLD+U7n/sCJ738+G2yv9E9PRx3xJHbZF/PlV2pG9UbtrIT5vbg5F1oLDuCaZMmc8k7372zh/GcMCK86qXHbvH2rz/hFc/bErtjjziSvXefvUOO9fKjjmbKxB1TErYr/T7anhhjuODsc7jhmr9n1vTpO3s4m6VaqXDdJZcyY8rUnT2UxA5mh4pO7fk1z0QoQ2p1jAjlY0EqqubVcHNN7E6nkIslE4tgyI0NbewBwSFiESNBnPDa7A5X5impKt6F2301BSrwxMKFLF+3Bpwnx1JXT8eoEXz2hq/wz9/9F151xJH82xdvZHRHZ8jQJrS79z7k9lx28YeYM202XTWlohnLVi1jQ62vVQpng/uqs6srCBCxNE43ujQasqZEWkJC/Dp0Ka0N3iOnQRx5+ZFH8NZXvQp1NUxuwzEI77VeaHhlpTY44R1v5cYffZ+6AcSQqaFDwRQFhY0CVJYhYskrFQqCUKex4594hTz0uyM3OGNwNqMwhgEf8oYK5+m3wvd++t+ccf559DvBYyFIKHjx0aVlkX7HCUcewzFHHBbdY4LNtNW5sO06KX9udW6LYfTQzM8qhaVMlEpF6MosYhQ1ivVBtVy6ZiUDzlEFKr7g2MMO4+uf/wJdeTUIm9E8ZxSGd3Tyta98iZcecTg3/f5mzn7/+fQZqHnFmZw+77jnkQd59JEF5GIxIdSp6b4KXQwlCp4GV85GDNWs0mzPaOM2lUolBOVLBr4l1BZFI5QhmvDItXVNNz9nbc6+9s/e0LK6VGb318fbTn0z++2x50459kH7z+Hb13+OfffYfmVwWZbx3rPfxpc/fu0OLx94tlhrOenlx/Pdz/8jxxw+f5vsc8aUKX81N7uVSoX3nXMu//SZz3L4QVufj7Q9mbvvvnzhY1fzqY9cvs1zOM4746xdoszwVccet8u4C44/+sXM2WvvnT0MIDjyno8lMM+FVx17HO8+/cznlejfzutPeAVTJ03a4u1nTpvG644/YTuOaPthRPjI+Rdsd/ezEeGcN566XY/Rzq70+2hHMHffffn29Z/j/DPPpmfEiJ09nKcxffJkbvz7T/5F5W4mtpxdwum0MYbe/mr0gHiv7LfXPmReqHjTDLEWp2SFsv8ee1OJAd7G2OAq8p5KpRK6g0noOheMQq3W8oULt/0Ggyj0jOqhIjZ0SbOCAwbqNXzF8MVvfo2f/N/PmT16PBOGjwqhTjGTSYxBnad35Cis8+QxGPtXv72ZRqMIGUwEgapwjinjJ4RcKCuo2XxZVLODn5T5RBs5fZ7Y9UwRp3Rhed9ZZzJvt92h8HgMRiVkVgW9g0I8/R05l33xM7z3uit5ePGTuFoDC1SNwaoGd456BKWrWo3CHk3hLgS2m2aGlpdQzuhitpaK4YmVy7n805/kI9d/ijXaoBAN2VYC3giSW5wXqHlm9Y7nI+99P93GkqFksYPboNJC3xKhBj1o+9p2QRlCR8OKCL2jRiLqMV4QH7oAbqgN8Kvf/w5vQ9h5txf2mDSNzIRz473HFCEkvKOjg8kTJvLLm3/HJZ+8hnUUbHChO6IYsNVQrplZi1cdJCb6eC0pLaHHtIUxdXV1tIQ0EZx6pk6ZyuRxE6iKxUZx1aqh01YZ2TmMfffYq+mg29xnKQlLiXYqec4/fPRK5u23/w475pieUVx2/nv54tXX0LuDWmvP229/vnX9Z7n8gvftcn8F7Ors5HXHn8D3vvAlLj3v/G2+JuefdQ5HbUUQ+fOVvWbN4h+u+Du+cs11zD/44J3ufMqyjGPnH8GXP34dX732E7xw7gHb5TgTx43jE5d+hOpOLmkyInzqw5c9q5v17YWI8Pcf+vAu8xf1qz94MbvPmLGzh7FDOevkU/jkhy/bpYLdt4QXv+gw3n/u3zzr973vnHM54uBDtsOItj97zpzF9Zf/HSOHbx+xwhjDO0576w79PO5Kv492FFmWcfrr38B/3vgN3nPmWYwZNWpnD4ne0aO54Oxz+M7nv/hXJQImBmPP//Cll2/XI8T/75U3uxsTVZ5JjIreDUSD4NIzchTr1qzl/vvvD+KSCFWbMapzGFdcfDE9w0YQQsEJ5XIK6/v6+f6Pf4gzNIWq2K+eoig4+fgT6O3poWJDOHi1WuW2O+5g6coVoYQuHqcQqFvhN7/7HQcfeDD/c8tNLF+/BnUeEcWpUjGGM99wKt3GosAGX+eij36Ufu/x0cEiKL7hOO7gF/HiQw4ZtA5maBB0FMmaj82slzEtF1eGUFHo6qhw2KGH870f/wgvHu9CmZ2WIUcoxljw8OcFj/LdH/+IgUrGtN2mM6zaEUr3jEELD6r88Cf/zcIVy5AsA/WxS5th8vjxnHzcy6AI+/XG0PAF9YbjP372M979wQ9w7xOPssEVFFpQzXJwBRDa9YkYMg+j8k6++slPMXV0Lx0ClZh/lGcxlymuQxn6PlRkMm3XHXGbkJ8k0U0m3PXAA9x5771gM3INJZFePDfd9Ftee+Kr6M4rWK+s39DHN//t+9TVk2UZEgWkzq5O5h/yIt5z8UWs9w28KhSODhvKJSUz7DZxMueeehoVY0OovQgGKNTxze99j/X1Ou2B9iKCWDh0zlxeNPfAEDSvQp5lVPKcnlGj+fnPfoaokBtLh8koNvRz0Xsu4KA5c1DvQilN0+3V9glqu2RKF9Tz9a+PiW1LR7XKK15yDJ0dHdzz0IPUG43tcpypkybxN29+C3/3/gvZd489d/j1JyLsOWsWbzjhlczZa29UlSefeqr5B4cdibWWF849gDPe8AYuv+D9HHP4/O32V0lrDC89fD7VapV7HnqQxnM4v3vMnMVL5x+xDUe3/Zg4bjzHH/0SXnnMsXR2dLBk+TLWbdiww46/z+w9ePNrX8vlF7yPVx/3sh3S2nrqxEkcftBB/PmJJ1i8bOlW7yfLMk5+xYmM7unZqvcP6+7muCOPZO369Ty0YMHT/oj4bDj60Bc9JzdkV2cnxx15FOs39PHAgkee0x9eDj/oYObus89Wv7+zo4PjjjyK/oEB7n/kuY3l0APmceD+O+6PBc+FGVOmcMqJr2bcmDFs6O9n+cqVzU7Suxq7TZ3GBWedzXlnnLlVpXLWWl46/wgqec69Dz1Ioyi2eix7zdp9m7let5RJ48dz4jEvZfWatfz5ice3yXmq5DnHHnEkH7vwgzvl349d6ffRjiTPMubusy9vfvVr2Xv32dQbDRYufmqHffZEhLn77svbTn0zl1/wPubttz92F8geTOw85JHawHa1PiitMh/vPdbazf5DO6jFu9eYcBNdRLGcq/BBJPm/3/6Wn/z8f1i9di17zt6DN73uDUwYNYbMhJt+o44gaVgWLV/BKWedTp+v433wTRFzf/r6+/n+Zz7PvL33ocPmOA8qnlvuuoszznsXRWeGN4JFEGvodw2qJsMUjlpmMSJUHBRFgeaWTpvxnzd+i0kjevCZ4XP/dCM3fue7OCzeFHgRchRfa/Ct667noL1mU8k7EQllZDDYGdNeIrYlt2mlASmuOtYrfcbw0BNP8oZzzmY9jgYOJzRD1XMvFM6R5Xn0lEEV4dgXHsprXvlKDpk3j2GmQs05Tjn3XP706ALEhtF67xEjzN17b37w6X8ACUHgjy9bxv/+v19w47e+xeoN6ykyob8INzyZGHIx4IDc4pynqkKXFz537bUcuOc+DKvkiHchkyk34HzsUdd2nQhNfaUppvgQFl8Gf2vcRgkd4ZyB/735Zs656CKKjk4qalGrOOoYgVcdfQxXXXgRWcPz4MJFnPqud7DBh7JL5z3GOahYumxYD5sbGkVBVSzqQkJTrVHj2g9fzknzjwkdA/MyKNyzoVHnpW86mZW1Bs6F9bAKWINkcOFZ53LaiSc1O92pKg3v8EZ44KGH+cEPf8iK1avoHdPLGW86lYmjx2GtYG1wY1ljmu9T1Za7rv25oZ+1stQPeE7/Iiee12zo6+Pff/6//PCnP+XBPy94TvsSEWZNm84hcw/gZUcetV1ym54rA7Uat971B26+8w7uvOduHn7sMYrncJOwKaqVCrvPmMEL9t6Hefvtz4H7z2Hk8OHb/DjPxLoN6/nd7bdzy1138cRTi1iybBlr16+jVq9TFAV5nlPJc4Z1d9M7ejTjxvQyefwEdps6lb13n83MadOe12L1w48+yq9u+T2/v/MO7nvkYdZvQxFq5PDhHLj/HA6ZewCHH3jgTm9jff8jD/Pb227l3oce4qmlS1mxahX9tQHq9ToiQke1g+6uTsaN6WV8by9TJk5i5rRpzJ6xGzOmTNlmWWCLly3lN7feyp333M2iJUtYumI5ff39DNRqqCp5ntNRqTJi+HDGjgnX3NSJk5g1fTr7zt6D8WPHbpNxACxZvpzf3nYLd9wdxrJk+bLmWEpHfEelSs/IEYwdPYZxY8YwbfIUZk6bxt67z2Z8b+82G8uylSv49S23cOc9d7NwyWKWLl/Ohr6+1ljynGq1yohhwxg7egxjx4xhajxH+8yevdOvr+fCQK3GgscfY9WaNaxdvx63E4T/dqy1jBg2jJnTpjNx3LZraLF2/Xp+d8ft3HrXH3hi0SIWL1/GuvXrm79vK5UKHdUqo0aMZMK4sUwcN57pk6cwa/p0dp8xgzE9O9ehsnzlSv73N7/mpttv4+4H7mfNunVb9L4sy5gxZQp7zpzFIXPncuQhh+6Uf+82xq70+2hn0Nffz+//cCe/u+N2bvvjXTy2cOE2rYDoHT2aOXvtzQvnHsDhBx28Q/7Yknj+sENFpy3Oc4rCQfvPzf3Fm2b1QOyC1nCOSp4jzpOLwQg4XAxrBieW1es38PozT2ftQF/4y4PEsWWW/g0b+Nrff5qXzD2IihgKwg14XQs+eOUV/PQ3v8JbEwK/McGt5B2FhGDpioeqExoi1DOliuH7X/k6u02YxNf/9dt89htfxVkDTpqOKSPK9LHj+dE/3sDwzGLUIjGgGmk1shvaiS0uwqB1aV9S1dbPqkEMsoWnLh5V4aZ77+b9V/0dC1eupDCCiwqDKTyaWwpCsLYWDmsyhODgmjxmHAfstS+zZs3iB//5Xzy+ZDHqiR32FIxh5vSpvOtNp3Hb7bdy/yML+PPCJ1k/UMNbQx3FqSOnzNYSEBvytvBkCtW647NXX838gw4ia3hygSyWLWp0hz0txGrjF13I54JmSLeWLjKC+21N0eD1b3s7Dz61BO8VMR61nsJ4KoXjLSe8movOu4AHH3+cU9/xdhoIRaOGF7AiNHBUK9XgvisKbCw3DHnvygFz5vDJj17JGFulQyx1q6govnCsq9c4+vWvZT1QeIfV4NpSA2KFy857Lye95LjwHIQcsJidpT4E3jt1lL33bDyuVx+Xx4T5t/1DUuaYDRKXNrN+icSKVau49Y938cAjD7NwyRIWLl7M2vXrGRgYYKBew4iJN0YVRg4fQe+oUYwdM4YZU6ay29Sp7LvHnrtkpsDmqDcaPPTnP/PnJx5n4ZLFLFq8hBWrV7Fm3VrWrFvHQK1Go1FQuCBM5VlGlmVUK1WGd3czYvgwRg4bztgxY5g4bhwTxo5j5rRpTJ88ZZfoLpZooao8vmgR9z38EE8+9RSLly1j6YplLFuxkv6BAWr1GgO1OoUrmm7TdhFgzKhRTBw3nlnTpzN7xm7pP9eJROIvmqeWLm0KpOvWr6fWqAPQ3dlFV2cnw7q6GNfby8xp08n/ChpY/CXQ19/PgwsW8MCCR8K5XbGCJcuWsWbdWgZqdWr1GvVGgzzL6OzooKPaQWdHBz0jRjC+t5cJY8cxvreXiePHM2va9K12xyb+OtihotOWIm0CQdxJ+5emGOOMCR27CDftVkybOONR9YDixFJreE4643SWrlpJQx0igsMjmaXW38fHLrqY0487ASk8arNwE+89axsDvOMD7+eu++7DicFJCOtuuBoiFidK7sF6ocgsDRwVY7ni4kv5+f/+jJtu+z0FPpSnNRxiMrxkNPrXcdVFF/OmY0+gI3Zja3Wqa7lzhq6cbOT7QaJT+2vexxudIL1YMfR7z58WPMJ7L7+M+1cspk4o38u9UoiGjn7qySR0d8PE8j7V4DTyDi+ha2AmNh7Lh8wj59BanUo1x2Q5hVcky2l4RyFKpsERhoBmGYWCzTKkXmPKyNF87sqPsf9uszASXFZIKzCbIXPdEmHeDxFdgoAneDwNI/zg5z/j3ZdcSnX4CFQUJw5fASkKKg4OPehgjnvZ8fzdddfRcD6WEoZuiopSyau4hgYR0SlZZtFGg92nTuNzn/oUvcNHUFEhU/CZ4HB4r6zs6+MlJ72GWp5RqCPzhJytDKzAdR++guMOPjSIZ0I4D+XkVeM5DRlbAGIkio2tdQqfCyUanQaJTmH9NrOASXRKJBKJRCKRSCQSicQ2YIf86XVrrXu+fLSVgamUzyuqDmvAGsgkyAnNV2OuTfm1s5rT1dVBs5WXRp+IFyodnTy28AkwgrUWo0Fwyo1hGJbrr/448/bejyqhc5h3DiOGTEOZmENpxO5r4pV6w3Hhhy/lN3fezgCKesXVPZJX8caSm5z9dt+DVxz5EjINYlBLLosupjKjSNoecQsbHxLDsUW1+TBlKd6gNQ9OoUajoFMM86bP4gdf/gov2mcfqk7pyDIa3jW3tSYP6yMG9YJXQHKczXBZToGQVTKcLyh8AzUh7FqyjEpXFy7PqauCsaj3WIUOb8g9iM3xJsMpdOQ5DPTzon3353tf/grzZu1OJ1ARMLZt4kPWYWNs7LWWiBfCx03MVDIIuYbOfoe/4AVIUadQT4EgzqBk1KzhV3+8k/df9iHqzmHVUxR1TGYQQkh9XZWaBWcEZ4V6o8Hcffbhi5/4BKPyLjIfBCFny5U1iBj6aw1qzuNRrEozX8sSyuN6x/ailN0ZFTHxIR4xisEjsfsdMUfMoWEO6ml4Fy/x6BIzYXGez2UxiUQikUgkEolEIpF4/rHdRaf2G/9tuU9jDFZCzpPELmZNwab9mMaAhCSgYcOGIRByk2KGtvdgbcaqVavQKDYpoFZouAJrLaO6h/Opq6/mjDeeTLeA9g9QFQtG8epxRvCZQQofxQ+hu9pNMdDAOIP4CqbSSWEsiGW4GL5w5VX0VCpkcQ6Y0EkuNOQr57Hx+asOLqMb8ipDrSoSaq8gtzRQvChd1vKNqz7BJy74AMMLpTPPqRhLyFlX1GYYDJkIGQbvHVaFzEOOwRUOyQxiDaqKNRlewYW+ahgJ4p14pUMtVTJULLXM4ytC7j3DnOdj73kvX77y40zpHIbUi1gyZkHLMsQgsJVi2taWHnsJ1Y1OwJkQ391lc7583bXMHD+JTDKQDCly1OWIqQKGju5u1DUQ78miKOQFyCxiBYyitQF6Ozu56J3v4rMfv4axPaPp7KgEd5v6EO7eDPdWVq1eTRH7MbZ/AIWQLdDbOza69EpxdXCpnDeCNxLnY0LnxPK8pe50iUQikUgkEolEIpHYRdhhRbfP+ma4DDXaCM2yMhW8D6VyKi0hpnUsA+qDs8lC75heXPEAKqEkyotgxCAKixcvaZZzIWBVEGMp04R6u7u54OwzeeWLj+ZXN93EL2+5mUUrlrJ45Ur68DiCK8UQ9utVsTbDmyC8eOfwhWfyiB4+ccllTBvdSyXmOwnQwIEJY/Em5PS0C0tlXrbEHzYl4W1s2Qqv5MbgYtaRFUs1MxTO8caXvZw5++3Lp756A7/87U0YVZwJr2HLnCKHSCjVCmV6EnOQgkNHfBDfrDGhTMyF8G9vBPVKn4BkQiGCL+qMlg5ec+xxnPW6k9lr2rRQmiYCeYYxgiHuO1SIDQpV31rKjoA+ro9ByQVsVzefv+bjvOsjH+GhRYvIBGrG0PANMuODmyyeTxUTgsKNoI2CCaPGsN+s2cw/9IW89ND5TBo9NnSQcx4Rg1NFrWlmLSmhNG7JssV4ie60kPAdL9yQEdPd2RUHXbqdBi+Aej/4uaQzJRKJRCKRSCQSiURiF2S7i07tHbO21O3UdPpsQlrRshUZT8+oGSpuaZmLgzJx/HgaBMeOGonig0eNYelTi3HeU7FB7ChigndZ5gSQK+w+Yzr7zpzJO95yGhus8Oq3nsZDTz6J4CksZCEBCSg7rZlQ5tRoMHviBD512eXMmT6LDjVYwInSkJAJZXwsJSM4c6QUnmh1pINWuPhG17v9+7j2hlYukCkzozyIDaVae06axOcu+yi333UXX/zmN7j5j39kAOj3DpsZnBfUeyCGtDtHyMQN5WGFeGw03KiE4xkxmBi0ji9w9QajOrs47qij+Ju3nMZeEyaFsHKvSHyzJYiBzfFrexbTRib4DJTrNvTJ8vwIQlclZ8+pU7jhmqv42yuu4I6HH8JJhnoBteTWx2tIoygJ1lhGjR3NL2/4NnluKQpHpkLmwz4RCVlYUl49ChoELDXwwCMPI7kN58eAdaCZwRuoVKpBsPOKEb/J+W5MxN2Sz1dyQiUSiUQikUgkEolEYkex3UUn3+bK2BLhaWinurJMblM3y1uyP4lh5uPGj6co6uSVTpyUmUlh32vWrmX1ujV0Dh+NKQWsKHgYr6GkCkMeS9AK76lYyKwFMeA9FfVBzMksWiiVimX9wHq6spxzTnsLbzvljfTkHWSOUJoXO7PlGrJ/WmOOdY9DHE1mc2LTsyhfVCEkVmsQkTqsxQocNucFzL3mWp5au5Yf/vdP+MYPvs+fFz2JqeZUKhXEecRaJM8piiJmDWVYH/xDPmYMZTZjoF7gag1oFMzdaw9OO/lkXnnMsYyUjMx5ciy2koEPXeYkqmulU6v9WpGyBk1DqV38dsik4pe2F7wMcYi1rWGQuKCvXlCpZEwbO44vXX89//bzn3Ht5/6BpWvXUOnswNc82CxkVhkTHF8ImcmDW6xekFnbOk9R1POxbLJ0aRkN13FN4b4HH8TaDOdcyMxqG/iIYcOp2gxRFwPCt1wk2trPSCKRSCQSiUQikUgkEtuDHVZeF9wb/hm3e7pT6bk5MyQe23nHlEkTUecQE90nsbzOeVhf7+feBx6k9wUHktuwLBJzhBBp5gr5UFCGFYMSurmpWAwe6wsKq2Q45r/wEMYMG8FRhx/OvH33YcLoXiyKVagYQWxwtghteUXSSmRq1wk252xqX6ctdpJRBpNbUEUEnDoyEbozw4xRPZx3yqmc+apX8/iyJdzz54f5w51/4O7772fJmjU8tnwZajPUKVhFVDCZBRxTx49nXE8P+++7H3P32IcXzNyDyWPH0JlVyJFwwYU0b0wpzpggPJUupxDP1W7raqsxfBYYbQlPJe3fq2oIRG84hmUZVWd40zHHceJhh3PfQw9xx91/5Kb77+VXd9yOxlJID1jJ8M6DQmay1vkyBkVj58HWta6EDDJ1nvWNOgseexxRQ8X5sE8rFJkgoowdNZouEVwyJCUSiUQikUgkEolE4nnODs102hmOC5XotsIwaew4sug4QVsBzd4XODz3LHiEIw84uFna1syOauugFnYKXhWPhLI1o4gaVDPECpkYLnrXu9hr4mTyaN8xgLEWdaA2dp+LuzPScu4IUWfZZFD4Zua6hWtcOokgrEXoEBj65wlKNVqturs66Z0xg7m7zeTko4/BIyxau5aT3v42Fq5ehRoTMpKsoVEUzD/wAL74savpxpIZQ1UhKzSWnJngAAKIIeNOABtK6tqFtfayuE2VWG5ybtJyO6lsLow9lst5Jc8MhVOwhq7M0GGHMeGggzhs3jym3/xbfn3nbRhjsUbQwqPeo76BCBQ+5FcRHXMioVuhSBCpXCgGDSIVsHrdGhYsfAIq1ZDbJS2x0asya8ZuuEKxeUbhipbLi5YA+2w/R6mkLpFIJBKJRCKRSCQSO4Pt3r3OmK07xOY6cT2bW2ivwWUiCKNH9jCmZ1TIJwq1dRhCYLg3hlvuvAOTmWY4dimEqAbhwLWNDUKntlBYFtrWq+R4tYDFmgxxijU2lM5lQaAyIqgN9pvScDV0mq3jPv35oa6nrdHxpKlsBSeQClgnoasfgidkXnlrsRhyCUJaJ0JvtUpVBXwpcIUJWCvYhmO8rdLjLcOdUEVCkLbxqFUKCcKKIbirMiF07/NaNmB7tmamZ5ho23yHYiSElkvI8HLGID4EuGeEMaJKh83JJEMw+KCShTwrCWlNxlqMMfEaY1DnRBMFR1VFRXDqeWrZMjbUBhCFhi1LOJVMwXqYs//+oIrzHjby2dlSAak5plRal0gkEolEIpFIJBKJncR2F522to27iGz2ptlLeDgUhzZ/HvoIXdcUj2f4yBFMnzoF9aGLmFqhUE9VLbnJePSphTQIAkhGDN2OZV6i8ThaluWFLm2uXscAYgwNdYDHu4KuLKNiM3CK8QYpDJk3ZApZGW4eNJ6m8FM+MCDGI8aBOFRc6HZmQr6RkbLhmSJ4jAn6hBGNZXODH601bQsjx6CGZji2t6Wo1p6pBS6WemXG4IxQt4aGL9PNFUXJTehs56xQIQhLKDgPhQGfmZir5EMpnZEQzu2DK4h2d1IZOk9rLhu/PsI6RJMR7VJk+zzLeTS/L6eo4D34tvJJVSgQvKmg3pBLhlRsUzjyRrHG4MRR0YwMsIRzLvH8lMdwHhoiwUEmFhEDec5ji57EWIOLOWMqBHFSDB1Zzu5TpyEEgUoY/NkpPxPtjjbv/aBtyvVrf7S/lkgkEolEIpFIJBKJxI5iu4tOsGXlQJva5plEq9JVsrHnWmVxEp01wj577dXMl2qW1xUFxhpWrFvNsnVr0LLFvXdhhSTk8jSr6zSIT7m1QQAwBlWBzKISBBVjLaIeYxRjPdYomQkdyUQVIWR5C8HxY4xG0UhBfOyBZ5oP0+qD1pRXVASPwavgNfRjC18HP1prGQWYZpj2kHI+bROqhpR+qUKmilXFVC0NoIFgVGgULpwja6kBLhMKE8ZnY26WiCDRfQNBPNMYpK5GWscypcsqdHbTstYujq8pzNEaF9oeFd62SDr4vVKugY9PP03sk+a+nQZB05o8nAkRvHOomCCUIXgNApoY09yfF0El5DMRhSPU400QLR/48wJstYJHW+fGhvXp7uhk+rTpoeOgbP6juTVi7ta6DhOJRCKRSCQSiUQikdgadvhd6LYq99mSG+5ym2YXPODgAw6kUauHm3qNN+LW4FXp669x0223gAcnHjXgcRS+wGuB+oLSW+W0wKmS53lwqqCI82Q+uoKcA2OCCEFQNYIwIYh4JO6n3B/aJiZFQcMDWipC+FZ9XXyEPZfSkkbZxYf9tz2QsI3iUPF48XhtexC2UQlSiEalRpzDqMfgMd5jPFiETCBXJXc+uM2Mot5jNJQaijoMngxH7j3WK0bDQzSULroouwhByLLla20Ph6fA4yQ8CvGIhkcpqSk+OsWCm83j42q1FDYNW8UIeI/Hoeqg7aHq8OrD8zgQj1elYmwQ/LwLYphrYK2lXjSC6CfEeZRiokfa9omGIkxtFOA8f7r7brJqHsWq+FmIotOMyVPpqFSjOLSZ8tKtdCy1fx6S6ymRSCQSiUQikUgkEtubHRYkXvJMN9KbCkse+vzGXm8vOSopy5HQYAHaa/ZsxPvg6PEa29I78MGx8l+/+H+8/IgXM8IZbCwby6PLqXQ7CcHR0uccai2Fd6Hcy8CAdVjJYumeo6ItN5ECThTxwXkV8nzKki83KKuq6TZqTjCU4cGQXKchBp9B79n4Sre+24z+5zUokr5c93L8qlSrVVx07uQKDecwYumoVCmco6qh1C+MR0Mjt9KdpLE0Lg7Dtc+hfeBKKP9re9qXzz+Dbqnet+RUbVui+L3d1PtU8T6UP5Zr0O9qOHWgnixmg7l6nZE9HXQ2HFYMdatx+1ASGOYtbWV+Qi2DJStX8fiTC/GFw5YOLAQ1Sr0+wJ6zd0fVU0SnnQly1SbH2hRTn6WQW74nCU+JRCKRSCQSiUQikdieyCO1ge1757kF98Nb0nVtcyJTefNclg8F8cAPeo8xhqLhKLznlae+kVXrN6BZq3bLx5AgaThGdnVjay64jCR4ZULStcWYKD8ZQ2ENK9avw6kHDTlRpaNndPdwTMNjolKkKD4KMeJdVCPK3CIBNdFhFIWIQWsXyrmC02fwmoQ5Sluu0eCMpHI3RqUZ1t2sOotlZiKC9yEbqlX0pSgGT8i1yoxBBQorrNywDlfqOlEEssaSidBT7SAjiHVKzNVSV560cirBmSSgxuJiSJX4MPOwhuB9cCmJBJkolNe16gPL0jujYHy7AGMGXXei4NU9rQpvMKYp72QaSuQKlH5xrBvox6gEN5eEfXvnGT9yJB6HeGnOrfSJSexoWDrpbOzgt3TtKhomnN/ME0SrDFx/jWs/fAUvP/olmKIIHQ2HpsbzdHG2vWRuaP7T0OfK59sF3HbxqrWjTa1RIpFIJBKJRCKRSCQSW84Odzptji0Rn4bSfnM9tJwuvN6+raFSqXDAfnP4xc2/C8IU4EVx6nEerDWsGuhDy8wnAxBcUEJLoIEQgu2ldRBVpSGKMcLyvnVYH8Wk8AUfFQ9pihNlyVcY2yDRgNDprhXiJHjTpgZI65tyjptaP99WXlgKNcG5pM3XggVJo3hm4z4NjvCSKcDELCs1BkxcbxEUxanDq7Ckb10ISI+pVBJzm6RUwjQIUiaKgoai2eXNiW8LVS/PZykGlWLfRmxR2nJ/SRxPM/CpnPegzdvFGQ15XIT5AlgfzolDm24j9R4rsbOhClhh8fo1YX3FIKrtpyrum2ZJZRbPD3GtQ7c7xatHMFRsxh67zUQ0BtiL0mYQaxuvbNXnpDn3jbibUoe7RCKRSCQSiUQikUhsD3YJ0WljJXObcza1v14+v7GcmrCNbwpFIha8cuzRL+b/fvsbxGb4wsWucII1QplqZE1QDCSoSk1hRCSEZ0NZludD9zNrEA0dyxSlMKF0zKrHqAFvQiZ5dAaF1B4L+KZAYloDb8aWl14sAWxDYq2ehMwhSklG2h4tJ1Bzd940O6V5ExOgBFDfdCuJmOh8ktDKTgRPI3Rd8xrHXTqItDkMfHB9IbGsUQTBliuG8VGkMzTHKAJqs5DKpCDig5OoKcoFt5N1YZy+Kb1IGV81pDudDgo9F43CDO3rWAqSDHGLmShIhU5z4BEVxIdgd5Uy9D12jaNMkiI6wRTrJLqxwjqJkeY6aRxfo6zt0+BWC+IYIWQdYcbUaUydMAnj2kv0lKES0daU0w0lldUlEolEIpFIJBKJRGJHsEuITrDpcqB2NubweOZQ5FJUiDfz6jnshS9kWEcn/Qp1CaVQVj3exxBraWXpiGk5kEqXjcTOYlZBy+ChmPOdEYUS76NrxQSNKAaJiygiodubLzUkwA/tLBbDtIPsYPDELCIt3TmxsV5zPdrXYIgoYcJ+SkOPEMZq2m055fdqQ8mc+hBwHTxXIZRcwanHSCnCxXPmwppZk4XufbGksDRmWWOaVqNQiaYYLUPIoRAfAteNwXqwDqyGjnHBCVZKaz6st0QPkBKD1MvOftI8F63n4pyHuI+Ibia0KXUR48djSV/sTBedSVp4MKHkziAYDfPIxVAYDWPS4E4zElxS5fiEkAsWIspDmZ1i8BK61KnCUYfPpzPPQ9u8uEYa1649o+y5ZDENLa1LJBKJRCKRSCQSiURie7LLiE6leLQ1bd03W26kBsUNcj2NGN7N3rP34PZ778Nbg6cIMUBNJ1PbDbrxg8rXlJbTpCFtjh8NJXTWB80jE4P44NpBQgkfaOwQF1050fUkgClzj0pE2krMQsh4w4aNRSTsl1CGJuUAgI01JNTSgdO+e8pjR1FNYkx6HKeIx3gTjxM65RlrMb5pNmoKNDYKcz4KOFFei84jCcHtTfdOOHYR3V65g4oGV1SpwKkY1EAhZTaUj2OOBYlGUPWxs14UviQ6pDx48XHe5VIOvTbCfLW5Vbg2cq84Gby9qg5yJtm246kodXHYWDJIuVIKFg0CHLGcMs6lvJisStlPkIFajUMPPTS8zxicFlH4Audcczwtx95zF4xSkHgikUgkEolEIpFIJLY3u4zoBE93YmxJh67ytaE30a33+maJVXwBvOfgeQdw6113oWoQW27RkiG8xiyjqAoFgSgoJ1o6T0SbwopRxfpgeLFGYl5SKNVCFI+DzKJGEVemFAnqQQxQloQFW1RwGlFWaZVlYtpWWlaOWFtunWY2k7SFbscw7/YliMtg21ZGJThxvLpQ+tfwiBWsmLJSDO/CmGyZcxTf51Wx1jbXXeK4THlQb5vlbUTHlXjXPB0a0tRjhpU2O+Zp6SyjLEuMnidfPhtK2lQ9IgaPD9lZUZiRKMA1z6pEsUltOC9tYhFAw7QtUvt6SevnpiMvioUZQMx0MqVDzoSyO6JI5LXAmAzjw/XkjeBFEQ+ZWEZUOpkxaQrqPT6KdSISrp8hAlj71+ZQN/JZ2ZigNPTzkUgkEolEIpFIJBKJxPZklxKdYMvK7DaGj8Hf7SLURvcPuFrB0fPn86VvfB3JK9R9g5Z3J5R1ZVbQQlFHCJoWAzictAQe1Za4FZuXxQyi0oXUJgjY2D2u8Kh4KmS4gQaVSgWcUDfKxke88fUpKbvjSSmItZuefCgPzFwpBIXtiuZstZXpVMRSNhOCx00Wy+ycQ12cYykYRVFLaAk8akqhJ+wwNvmjcEVcUxvK5QS8d9E7pSH/ScoubDFY3RgwQcwqBTUtz6tvObtKp5jGxTYSLmcjgvqw9wwTyyKjayxmKjmJpX7ta7sFl5wvXW9tVY1ZLKN0zkVd0AeHkjXYShU1FQocFRNcdKiSeXDW4FyDgw84kJ4RI+K1Fhe2Ldfr2bK5z067KNXuLEwiVCKRSCQSiUQikUgktjW7nOgEg2+Ah4pQmyst2pzY1F6CV8kypk+dyp6zZnHvY09g2sQHVQ9i6ejq5oq/vRi/vh/jCgrvKRQKdbhS4IoB2oLE8jIfLFIQw8JD9pGIhAI573CNOlUxeDXYzm4Wr1nJ//zylzyy4CHwoUtaewlV+NpmtRkyX19W02nMjYqikdKyNxkRrLFYEepFgaAUtTquaFDNc6p5Tld3J8OGD6d3TC+TJ0xg1KjRjBndQ3e1kxFd3QwbNozOri66Ojro7OykmlfIjCXL7KB1b9e8VDU4fcIi4b1SNArq3lEf6KNWq9GoFWwY6Gd93wb6an30DfTT39/Pug0bWL5sBWvXrmXN6tWsWbuWvr4+1tUGaDTq9A8MIEJwWImQZznYLI7DxpI8AwjeKZpZnDpUhcxEt5pumdAHLbGpLEtsXlfRhiUI8/abw1GHH8l+e+9LpVDWPLWYDQ3Hf916E/93200YH06UiqLWoN5RsRmvO/GV5BiMRLeUFqjXjZ3yTbKlJXfbqjwvkUgkEolEIpFIJBKJZ2KXE52ejeOivdzomQSn1nYGr0olyzjy8CO4++FvoFZjSncQibz39K9Yy9onl/DGV7yCzIMxFh/Dv4kZSdoenyQtkaflglGsgvEeay1157BZRr1/gJ/+6pf8+Be/4Pb772FtXx/OlGHRm8mn2giigBFEDOIVXyiZMRTqKYo6eE+1o5OR3Z1M6B3HrGkzmDRhApMnTWTyhAl0dXUxZsRIRg4fTndnB4awn8yYULbmy6kJvikAxnGW5YFCWWwXRZnStUQZttQW1i3N/CViaV5wRhlEfexEJ3iBQlpuJyW4plb39bNuzRr6+vtZu2ENq1atZunSZSxZspTFS5exeOliVq9aE4WsfgrAZBnqCsQYjDV47zDSVlqoinpFbOuEbuw63NR5Kbzi1XHLnXdwxx/+wJie0bxgz705fN4BHHjoC/n8D/45CE0CxLJJj5JlGd2dnRz5osPwRQNjsqb7SDWIYn4LLoWm22xz2WabmFNyOCUSiUQikUgkEolEYnshj9QGtu9d5xbcND+bUOOhzqd2B9Smbrzb9x3EjbDdQ489zutPPxPbXcHhUFGMhtIxgzB78hT+5cs3YJzBiGmGeEPMGDIOQZoZSyIhRUhjvk9w04TYbXXKyg3r+J9f/5pv/eA73P/oAqSrE6zFFR6PD53zwoDDfgjlcVLW7aGD5idi2oLIBeOF7kqV3jFjmDhpArNnz2SP3Xdn5tRpzJw6nc68Qt4mD6kPx8QrSMhHstagKnh12BgyXgpsofiwnG9cg2ZaNzFPSlEGu2mkrD2Mc1NAm4HxwY3U3jHOe990irXOL8TaPwrvQllY83wEAckRC/Q8PPbEEzy2aCGPL1rIgscf46mnFvPUsqUsX72KvlofzoVwdu99cKwhoVtdGQgec7vKcsUybrz5XPs1qWH8QTAL58V4oVYM0DV8GLV6gbEWKTw2XqNGQzz8US86jE9/9EqsC+dBFMRomMkWik5bSrmWpq0j48Y33HbHTCQSiUQikUgkEonEXy+7hNPp2botNlZ+tznaxajQkQ584ZgxdSp7zZ7FgqeeQBGcgM2yUObmlEcXLeTJFcuZMmYcGaGUrYjiio3ZPQpYEwQbieqEMYLzDiR0uFsz0M93fvRjbvjnb7K6fwNSzaC7I3R78w5vgggRgstbwdlGBIroCDJBkBEJ6o96T1Gv0ZlVmDRhPEccehjzX3QY8/adw4iOCnkUowZqdTIbT3PMQwp52hoFJAM2lOSJmFDWZcBKy/Xj2tau7Pkm2CD62GZMd7PLXDQxtZ0w2oSMtjCk8msz+4pYVhbEm0J9y5Ek4CjIVMjjc955jLGxE2DMpxLIjGH21KnMmjwZk1nUGHKgDtTU8+RTi7jngQf44733cMutt7J8+QpWr1uLU0d31zAK73DGhDJKH4S4ohT7ojAEBhHFexetYGE2RsCgiIVqpYNGvR4C2ws/qPucZBZpFLz8JS+laDhEQ8fDEFpfut42fh1vLUMDx5PLKZFIJBKJRCKRSCQS25Ndwum0zQ/5DKVG3nuMAYPhJ//3Cy696mo0z3BWcM5hbcgpolHndce/gg+f9z6qGJwojVgqlqugRlHnsdbgnUe9J7OWhnq8tSxc/BT/+LWv8Yvf38TaWn8QdqJ45VzoEidiUDSIPM5jmlHcAs5jjUVtKG2rD/RRrVTYe/fZvGT+URxywDxmjh1Lz/ARVPMM70MrPBGJIlZQf9oFBhPPdtlZLrwnlLM1w8bLdTKGwbpEqR6Z6HJSjJFSamp2y3vaBRXdTUE8anOk0QrvFmh2rZM4HkSRmJ9ljMELGNeedbVxIablNAvPe/XRUBUdSSJI7CLnnKMYqLFy3RoWLV3KPQ88yC133Ma9Dz3E0mXLkEzIKx3UY+y6eo93DmMkNgv0ceylA6oMmjexs2AQ6IzE/n1xLsYYJo4ezT99+UaG2YzMmKajKrbnA/HN+WzJdb2lPGNYf9KiEolEIpFIJBKJRCKxDfiLF52efpNeihTBXdTwyomnnMrqvg3UcJDZIDzF8q+84fj3b3yTab0TUGtix7PoTCKKRM61SsEyy2NLF/P17/0r//Xzn7Nq3VpMllEQhBDjw/vFt8WDS3ATlcKKjx3c1DkK7xnf28th+81j/rx5HDBnfyZNmEiHyfBFcAllZbc8VcQGsSWEnEtL8CnXIKo/Gru/lUqTk7JpWnxPM1uI5r5LNaLZo65tbcsspqbpp03QeFqXuNjFLrwY8pRM22tDz2VpnSqFKjax7ZA3NudRjjnIRvF5EZzEkjjnwRrUhNc8sGFDH48+8QSPPP4of/jTn/jj/ffx5KJF9A/UsJkN3fXivJ1Ks3NhGKBvzqd80sTMr7K0zheOt7/lNM49/QwyDOqL5vXZ7gIrDWfbypXUvmZJdEokEolEIpFIJBKJxPbkL1Z0gqffVLee92BMKGVTw8c/8w98799/BJUMb4Ig4gG1gnWOd5zyZt51+pnggmihaCjFU8VEwahAWbF2Nd//8X/wze/+Kyv712EqeRB/VCkKFx0uNgodLuRElUlJAuo8omCtMHLESA6ZM5fjjz2OFxwwl95qF1WUer0e9iMGI5bCeWwmwV+j2nIOScyAIgoupeYkTw9gHyoI+ZhnVHqYAJz65j6bRhza39ue4TTEndMmOjXPgZGm60pxUagq99Aq7TMS3EVKcHCV7p9NnfOS9uNbIzhXzqm1nYvlgtaYUCip4XVfBpqbIBSJMdS844nHH+fWu+7il7/+FQ8uWMDKNWvxCN6GEj+nLk7Ct+oLo+hUZo6JCLkHnPLPX/oyM6dMw3gf8sTsRrKWZEhZ3nMoixtaXrdJkuiUSCQSiUQikUgkEoltwA4VnbamNKjc3jk3qEPdxm6+y4Dkpz2vg8ux2genYnj8iUW89e1vY513+MzjtUCkQsM7cmvpzTv5zpdvYGLPaASlYUPJVk4QKwpj+Jef/gdXXf9pvEJFLL7eiMeLLqDMhp+94kVx3ofxisHYjHptAxUnHPuiwznjlDcxZ++9qWRZKMOLrivTJj7EFYXYca/EaxQ3Bs1f8SIhqFs0lISJHbSmBgnCEoIrCnJjY0c9g3Mu1I+Z4H6qZDk+HsE0DVTt2U4aM6mC4ObKroHe02g08BqEHtVYVighy6kUxozNwzmMDqQiCl5ZDE73qthSGYkuKNsWOu5NEO9C/pVFFQrxWG2JToK2zk28LjMk5DgZAQw+JLiH8rlYXumiC61Rr3P3fffxr9/9Dr+67Vb6NvShlYzcWOq50PAuzM0rotI8h9YYbKEcc+SRXH7Jh8gLjxGN15wBsa3PifitFpjaRbdn/+atOmQikUgkEolEIpFIJBKD2OFOp00JQ8+4m410rdtoKVbbNuX3tt2FM0i0Ch3EcptxwcUf4te338GAOJAYUG2CUGP667z51SfxwXefhy1cyHLyQe65/Z67uOYLn+XeJx5jAIdVE0K6y2o0G8Qci8GKwWsQRHxuabgGOYZ9dpvNa19xAkcecigTesbQlee4eoGRIGoZCf4qLwLaEp1UFNEQaN02wZarSMF4De6tGHCO9003j8QOe5kET5MX8EYoUNb1bWCg0WDN2vUsW7aUJUsWs2rNWlasXMWKlStYvWYN6/s2UK834vksBRIhsxkmdt2rVCt05h10dXQwfPgIxowZzYiRIxjVM4IR3d30jOxh1KhRdHR0kucZlWqVSp6TW4OJ3eBUBFQwXkFdcHQ1y/iikGRM06EmzWtAMLE7nmgIfccIzsQud4SyvhyDdw6N3QdbF27MxIrPeA2d+crSQ4fiVVm5ag1P/n/2zj3crqo897/vG3OutZOde0K4Jggk4eINgqJIvbZYwKrVHiq2ogUUrz2257SnrU8ftWLxivdbuaiAd9R6irUcpXoQ8IoVVKRyBAJJuAiESy7sveYc33f+GGOuvXbYSaSSFMr4PfAke6+15phzzJk/1vu87/vdcjNfv/xSfvDDK7ju9lu4bzAgiOTzS4KbhkAlQmidsz78YQ7ad39qBFXHPQKarnWIDcW8XUoRnQqFQqFQKBQKhUKh8CCwy0WnUYfSb+TG4Nd3To06nUbXm4qSKd//8Y95zV/8Jd7vpxJrNYyIq9APgblS84WzP8FeCxbhCvdu3sx5n/8853/xc2yyJkWsOqFJkrg2LMbOHU5A7g2C+bPHedJhq3nhcc/hSYcezpgG1JPo4ZZ8RJqdPZ2mFLtj5aPm/zCPI9dlubMpiT4pQuj5XLLjyMEwqAIbt2zmzg13su72O7hp/Tp+fu0vuHH9WtbffDP3btzClokJmrbBLA6LyUNV4apIyHHBbl+7DbZ8bzr3UUwdR5ZLwR2Q7OAKIlR1TV1VVHXNrFl95o6Ps2DuPBbMncf4nHHmL1jAwnnzWbxoEQvGx5k9axa9fo/xOXOYO2cOs/s96l6fqqoJoaLnhmShDZcsH03F/GSk8HtYaC5CZCo+iSQhi+51bCgkmqW/mKdInOTnsFFh0+Qkb3j3O/nGty8ZlrWDDsXWWgMH77+Cj7znvfRM6InmCYAGLuke59hlapcqolOhUCgUCoVCoVAoFB6eVLt6wVEXUhc5+o9EiH6Tbptp54DgIhx26KEcdeRT+P6VV9HE9GU/qNLgTDQNRuT0M87gjNPeyrVr1vCWd72Dn153bS6gVkJ0gkGrafLawCKVBgKphkhEIBpzZ83m6U99Kq876RSWL1qSImQpX5bOKxeAOxAlix9ZeMrtQEn8EM9eHYbClObfiyXxyQUigogRxYjA5GDA2lt+xc/+/Rq+f9W/8cOfXMmadetocUJQ+v0+IQS8Tc4bU8F7NSoVAYgWc/QrLepZ8IIRrSLISKxO0Kqb3KbD8nShTt1PQIvQEvEmsilOcPume/Bb1uHmmBkxxhQrdMfbpN61lhxPISi9Xo95c+ay9x57snyvvdl94UKWLFnE8uXLWLbXPsyfP5/xsdnMHeujEiAKkgulXLL4KI6bQQjDQnfPccM08S5HCA1CSNFEVGndqdwIEmgmJ7jtltu47LLLk8dKhVyPhZlRhwpvIi9/6Z9Qo0n8EknF8dBZtDDLIqJOL2ovFAqFQqFQKBQKhULh4cTDtkh8tFx5R4QZTqIrxRac1gTXwDXXXc+LTzqZsfG5RFpEDAtOk1071aDlNSeexDmfOZ9JhQk1cEfNqVqoENpKiJKiaooQ8nn2teKVL3kZxx9zLEvnzR8WeKf2oCRUdRPfuqlxyVk0tYXDa7Wp6Wbu4GJoJzrhqKXuKA/KoK648bZb+MYl3+Ibl17KtTesYWJiElWlESeKEM3pmSG5ULubsDYq7ClTIlfIsb8urjZtX9OJ3i/iOG1q2jDaNhVnE1LUTzQQ8zl47k8ysxQxVKEyT2tb3r0cqUM6Yc/RToUzw2PEEfpVRd3vsWDuPA5adSD7LVvGwStX8bhHP5rFCxYxu9dL0bkmItEIkuKIokqU5C9z9yxGTS/jrmJEgUEdeMPpb+OL37w4Tz90QkizBYMnsWrVfgdwzgc+SBXTXgXAxJII5oZtte/Tn9cHl21Osiv6VqFQKBQKhUKhUCgUHgR2udPpgbAjl8ev+0XchOGktGmfJ01Gq0PFpEVWPGo5Rz/1aVz6wysIKjRuybWj2Z8zVvPeT5xFPdZnMra4pwJrFaUNqbcp6SBO5YK0xrxZs3nh83+PE573fJYt3RPJnUr5woZOl9Ev+l2MTbcSHzRnw6Jbjm4p6oYaDKTFEDTU3DO5mSuvvobvXHEF3/vRFdywfi1b2gFWVWnJOtDmJJ7HSBDBNTt63JPTyT1N08t7nNw4kku1fSqqttWeendd27lP6TiBFPLzPAMvTk3WU80dUyHXKulQlJPOXZUny3mXlxOhNSPdgtTjZVUFVKjDhDmTgwFb7trAussvG04irENg3ths9t5zL5btvRerVq7ggH2XcdDKFey+ZDdmkbulLJ2fuhMh7TWCmBPFcQ1c/qMfcdG3/y+hK0TPz5eELHtONLz0+BdhTSRIwHU4CPB+UdOdITLtzOMWCoVCoVAoFAqFQqGwNQ9Zp9P2BKdtOjRmeB2mBKdRB8nWx0iii7D+1tv5oz85ifusxRRiMEyENsfKuilpjaefk6tGUHdC9FRG7dALyjOOPIpXveRlHLTv/qlXCSNUARvpEerW7zp/Zrp+ERnG57rpbSjEaEn0isamyfu4es0NfO2yb/Ht732X69auQzTQq/toju5FSM6dnPlSkiMKBA8yreC9K2CfcvR0hVUJ2859ndafZWlPtvccaBbdnFxunu9FTLJOFqWm+rGmzqMTaPLe5TQiuccKSQ6ykEvFPSZnmqtgko5dqUJ0PEZMjHbQEBR6dc2BK1Zw6EEHc/hjH8ejV6xiz92WUlc9RJPvy/IEwqjOxi0T/NGrTuX6W2/J1yvTpi32q5pDVx7E+/7+7VSqBCT1TgmkHq6uv2nnikLbEp2K06lQKBQKhUKhUCgUCg82D1mn07aic7+JU8PZ9tS7LEuwz5678/SjjuTrl3wbw4kekaDUqkTz1CvkTi8kB43jmCoRQyQJQQcu25fT3/BGDnnUfin2FoTBYEBVVUNRhG0IYPc759HzdUkCjTlN0xCqwMa25fNfu5BPf/ECbli7lrHZY0QVvNdDtaZpIyLJXSWWXEWV6pSLSZLe0bpP23NVTZPuhsKJDw1M2xOctsakK+7eFppFIkACeaQgokrF/R1qQhj2Q6UtMVxsSqrpSuPdhi6i1JrlaXofKf4IhnmKViJABRIqQh0YtAPaAFevu4lr1tzA2V/4Av1QsduixRzz27/NcUc/mwP3X8GCXs19g4ia84nzz+eG9euxXkihwU68i0avrtm8cROnnPgyxjQkGU1ykflQcEpX959B6YsqFAqFQqFQKBQKhcLO4CHrdBrl151St6PPDgWVkSs2AaIhVUAw2sa4bcMGTj71Vdw9sYWBggUnxoiiOeKWNIWsexBFUIWew+tOOZXjj30uc6RiVq+msRRFq0PnxpkuNI06mTqSaDJSEt5N2TOSWBWEH/70Kj7/5S9x+RVXcOdgAncI2UHTti0aAuC4pA4kADehcggS0jXkyJqTis87t9WwQ0ohtm0qwa7rGScPbo1kp1cXv0uRtKnupql9z7XonSvJZThVruuy6qa/iU85hlLnVFdHblMH1Nz1lMUxRbB8oyu6KYXDkxyeq/nUeoim8vDsVDJzVNLEwZhFutqTe2vBvHk8as+9Oe7o36VX17zj3e9mUFU0JOGxK8kPWeB72hFH8LY3vonaSOKje35+DJdt/xP8T5GhigZVKBQKhUKhUCgUCoUHgYe86DQUG7JosD33044cG1uLTj7yeyNNDas0OWk+9dkL+MDZZ9HWFQ0todIUi8v6hANRU1G4iLD6MY/l9a94JY/bbwW9FnqiRFI/0XC1zt2S414yWsLtqWy663gKWbiJlqbQmcDmyUkuufxyLvjqhVx57TVsbgdoVYOBWjqIWyrAxj2JRkKazObZ7SMBMU9yTY53qUNsmlTUHQJzxmaz55KlLF66mN322IN7Nm3kZz+/mttuuw2V6RMHHYbdU5JdRlPRtrRO6CQn1+EegEx1OHV9UZ3I45Yii6pgqUy8e5BySHB48yRPH7QsOaX1Jd9TI3qeRChKzIKSeFenlUQn0ex0c09l4nktzedn0vVHeSo075xxMSLRqeoKaw3L1eiCEM3QkM5//uw5fOacs9lt/oJhqb2KYEScJPZ1D9W0iCUzl4pv/TzbNEfag+BcKqJToVAoFAqFQqFQKBQeBB6y8bqObUXQtnbdbO/1+5GdRN0nOieQqg5dJy/8/edx4UUXseZXt2OAWxwKaN1Rewh9Aif98Ymc+OI/omrT1DeVLKjk6WrK9LgXIwLB8Od8HY4TLUIu8w6q3L15I//nsks467Of5robb6Q/Zw6TGB5CEjc89SCJCFoJ3qaicScJSpaFmyhOqxHRJATVOLN6ffZavJTHH3gwB61cyaNXHczSvfZk0A7410sv5bNfvIAb1t5EqCtCFe6nRwhgMRJUh3uuebqd5pl3JjIsBBdsmpgiIZeBm1MFzX1HSqgCEaOuK6qqTo4h0qTAdJwkyMUYiThtNGI0YmxBhRhjmgwYQu5NSg6vNra4QEVq8U4CUp7EJwKEJDbZlPsqnb4P3Utd4bpUASPSCnigs44hJkOXFm3khb/3PHabtyjFFUNWl5RhTVbXRzUT2+os6/q3dvRvYFvHKBQKhUKhUCgUCoVCYWfzkHc6dWyvMHxbI+Z/3S/b04qvJX2RVxN+8otfcvJr/xSZNUZjLVEiyFTvUb91nnbEk3nnm99CIFDnw0iy/9BKmpBWudB5cbZet0tWmac4G4OWXlBaYILIRZd8i3e8/z3csWkTzBqjsZje6Mm9Q8xz5USTC8g6cUQwhxACuOABtkxspqfKst335FlPfgov+N1jWLF8OXN7Y4RJp9cLrLn9Nt73qY/z6X/534j2CVWVSsibhqBheDtHxQ4dEZzcnVBXNE2DaMBVqYLi0YmTA9qJAZUIC8bH2WvvvVi+zzL2228/Vh6wP4/aex+WLl5Cv66p6x6VCHXVlYmnR6kHw8JwJ3VRNQIDh0Eb2TI5SWwH3Hnnndy0di3X3XA962+9mdvuupsb197Er+64gza2iCtVVSdRKrvYhgKnCm5GUMFccOLQkdXdt1TmLsPrt9i5rBQl7bsaLFu6B+eddQ51I1SVJhVQYo7xKZ4L6bu9nPYswoyvjXZvbes5/00iqbvK6fSjn/5k1yxUKBQKhUKhUCgUCoUZecyBB9Hv9Xba8R82otNMdF+2tzf5bUds68t7QGgR/vqNb+aS7/+QAYZJTGYYVVwMYiQMIv/jVa/lxOOPpxcFR5NooSnWpgjBSKJT7lDq1hNSLE4dGpITKphjAv9y8cV8+NOf5NoNt6S4HQEnlXtrjrCJp9id54iZCKglaUuyC8qjsXDBAp7wuMM45unP4LH7H8AeCxczr+5DNCa9pVH4zlU/5tzPfYafX/f/2DixBQnKZJsFpRzd62JlM+2ty9R9cBE8RtrJAeOzZnPA8n05ZNWBHPr4x7P/sn1ZunAh82bPpj82i7G6h8dIkBRMc8v7Aynflq/XbSTXSJ70NiLyuWhaV6cmDIo7JooDjRgTExNMDia5Z+NGfnXnXdy4di3fv+KH3LD2JtatX8dE2wCC1KnwvWlaJCTXFl3/lcDWFUzdPdCh6CT0QsAmG9512ukccdjh1C6EoJgYIjb66W0/mzt8encSu0h0OuI5x+2ahQqFQqFQKBQKhUKhMCNfOutslu211047/sNGdNqe02lbv38gotNMvzMz7r53Mye9+rXcuuEuGm+T4qCCiRHVqVxY0JvFOe/9II/eZ7/UOBSSANRNTRMDFZ9RdKosFVM3Ytznxnev+AEf+vS5XHXtv0Ndpc9YishVyLAzSbHUdyQB66J0mouwgYVz5rH6kEM4+unP5EmHHsbShYupTGibFsepRWg9culPfsxZF3yWy352VXJOuafOJ4tUpjlymKbEJYfV9PtRMxU5a80YHx9n/32Wc9hjH8PqQx7NY1auYumS3aireiS25rkHKnVieTrgsC8qHS91LA3rwoedR1OT31QFd0tJNUuRNZfs8PEc2/MUnzOPw3gcdEXnac3Nk/dx19338IsbbuCaX/6Sn1xzNb+8aQ13bNjA5GASCYFQVUSL6bzMpz3W5pIEMoFgyfVlTctLjn8Rrzn5FYg5va5IXrPAOYxrPnDRaTRyuj2n0+iz/IAoolOhUCgUCoVCoVAoPCIootOvwbYcT9ti6y/qo58bfknvJsah/Ou3v8Mb//50XJxJb4ei0kDj0FWz59xF/NM5n2B89lzq1kDBKiVGA1UCyZkUzQi5YLoSJcYIKlyzfh0fOPNjXHz5pcRZNR4Ea9tcS50mwAkBz/E+d0vl4xpo3BBzZoeaFfss53nHHsfzjj6axXPHoY2IgZgQUJpK2WwNP19zHe8962P84MofQ1AmRRGPqWTdHIKiMQkiaWpf6HaPEAITPiCQSsHmzZ7DY1au4rm/+2yeuPoJLF2wGBXHm5iihSEJP2gqBzf3FFmzTjSR+00ZzLVb9yN2k/i8ixFOxdVyIC25jhAwJ3QCpMlINNLy+MG0VsyV3qmDSxFVJgYD1t96Cxdd/HWu+MlPuX7Njdw7uYVWIMZIUIjRkyBljrpiOVZZhcCSeQs492NnMm9sNnUIw3s2nEbojtDu+Fnd4Tt2AkV0KhQKhUKhUCgUCoVHBEV02t6hH0BvU/d+2L4DqntPQIg51mYO7/zgh/jyV/8Zr5WBDQhBidKmIu+6omqMIw5+HB9627uYLYGqXzHRRqo6MGgjfVU0Om6GhOT2iQ4TZvzDJz/OuV/5CgOMxpIjp/WYBKeYHUBuqGiaRqegolQIg/vuY/74HJ777GM44QUvZN+le1IjVAhVFwlToTGn6gWuuWkt7/7Yh/nOlVewxdsp4cWS+yi1NiVHkBGpsvgWJUUHe1oTB5P0exXPecaz+P1jfo9DVh7AWH8MaY2xXk3SqiyVcHfOKBg+C0lwMUSykNU1fecpe7l/fcb7ZDrVHTW9jD1PNyQMXxPz4WS9NDmvcxVlD5qPPBMARCBgFkkD9JQQhEHTcu/kBFffeD2f/PznuPz738MDhFBh0QFDTQkhEFSpUc764IdYsc9yVJSgilnubsrjDz3vwUOSIjoVCoVCoVAoFAqFwiOCnS06PeSn122PByI4bd35tL3Pujtt/uZttIhUnPKyl/Lt71zO7fdsQLJLRk1wCWCCVRWX/exKzjjrI/zlq1/HLDN6rtggUqsi0dCYpsg11iB1xXf/7d94zz98lJ//8pdYr8ekOK7JYRS6zqcceXOS2NTiqAaIxn7L9+MPjj2Oo496KnstXoy6IRZINeJC44ZlV82t92zgE5/7DP/0ja9z18RmWgEJisdI5VBJdgXlvmyRQBRhQh2tKmhaxlCesno1z37mMznysNXsPX9BcloNGoKlMnNaR3VKyPEZRMckBE1F3Tplaug2245SORVtk6moHyRRKf80vI58zCRCjQo8+b2jmhUAIb+qOEZVKU0cUIfAovE5HHLAKm5Zd3MSj0LAohNciUGnJhu2kZe95I9ZtWxfpDWkIkUANZ+pWBbBchv6g8BvVBpeKBQKhUKhUCgUCoXCTuJhLTo9WGwtQnWF2dJNJXNn/rw5vOutp3Hqf/9TRIVBEwmVYm6okWrA+zXnX/gVdt99d07+bycw5k4tgTYaSCqcRpxNTcu5n/8sH/3UuUyYEeqaGA1Tp9KAay7jttQ7RJVKsqMbPQms2mdfTnj+Czj2Wb/D/H4fzKlFaWMcClWNRdogbGkm+Nq3vsmHP3EON99xO9KviQIEJVqkFk193SKYJHeXCOBGZUoQY/H8+Rx95FG84JhjOeSAlcxWpY1GABprqXoVghBNUleSOyJT8bWZJgtuTyTZrhNthveNTnnLL0wrPd/OQvcTftyTE0mrQBsjldS4t2y8dzNveutprF27Dg2CR8uxwCSEhSwEPuPIo3jpi05Ao1FpV26ez6RzcpFcVA+WpagIToVCoVAoFAqFQqFQeCjyiBGdRkuX7zd5LTuXnJGCZnfE0hSypjGCCoccuIqXvPjFnH3eeVShR9NOIiFNdwuimApVf4z3f/ijrFy2L8864sm0kwNClQrBGzduvfNO/ubvTuO7P78KG+9jEvDW8KAoJJeTBmKMiHSxLGjV2WPRbvzVq/+UY5/yW4xFR6MhbaRVpcGgrpgEzI3GW9bdfjv/601/y9X//guqeeNYr8LNk+DhyTHl5pimMmzDIUgSodrIvkuWcsoJL+YPn3McPVVibJG2pZIarZVJN5SQXWGCVoI5GI5ECDJ9/3fkNgsh5B6tkfuynfsJnWdp9FhZsJthmuFMn5ccH+wKwrWaOgcHJtsBbYB3n/MRvvXjH9BWFZUIwUliYlA0F1DN7o/x+te8mp5qKnsPSsQwczQw7J1yd1QCTtzm9RUKhUKhUCgUCoVCofBw5xEjOsE2RIyRmFeqoZ4ezWrM0ECaINdEXv7HJ3Lzzbdy4TcuJprQ01zurUKvhYaGMKfP6//2DXzk7e/gqNWHA0YQ5Z8vvZTTP/h+frX5XujXeOsEUnE1FtEQiFgahFZVqKU+psULF/L6U17B7zz5t1jYm0WISViJQbEYqYJCFjfEjC2bNvPej5/N5y76KlLX+FiPickBIkIlFSpA6xiCBbDYgjtjY7OY3LyFJzzuMbz25JfzxBUrGOuP0RNNHUcECIGWNE1PRUCEuhN9LBe6Z7fQDvd+9HUYij/dz6P3ZfQ4eQhcXn/kfZIift17RmfMDQXHYZ/S9Alw4qBBmRwMsttMaC3S79W87QNn8IWLLyJWiqTaJ8CpNI3UE1eCCGe85a3suXBJOn4lSQjMz5QbQEjTBUWGgtMDmbS4s3mgHWmFQqFQKBQKhUKhUChsj0eU6PTrMM0ho2nqmjmpp8gMcF73qlO54cYb+cX1awAnmuMecXEkKK1FpF/zl2/9O975prdw6EGHcObHP86nLvwKW4ipDDxPVlM3ggmoMmmWPu9GZcbiOfP4g+c8lxe98AXsMXchvTa93pBUF0GJtFRu0KYI36Xf+x7vO/tMfrp+DTo+Thw0hOy8SWJLWttVMFVQJ3jNrNY4fNUhnHj88Ry5ejX9EFKRuUMTI1Vdpc+NlIN3LqHRiNpMDqOZxAzvDE1JtyHPt5v6DCnyR9d/RBJvJEcUHc914N18P4YOJclimHRimFjqkMot5d373VO/Um6UwhyqukaBQWywILz/vHO54J+/Rpsn7wVNEwlFFXchSEWwlhOP/0NWH3wwwcHDdCFpe8LSzhZ5RvuedtT9VASnQqFQKBQKhUKhUCg8mOxS0WnrL+EPZTwLFO6OkqJnISgBWDJ/Pqe/6Y0cf9LJtF1cTT29J0fNBs2ALaq8+Yx38VtPegoX/OOXaOtAK+DZJRRji2rAxFGp6IXU89NDecrhh/Pnr34tK/deBoOGfnSolQEMnT6OU2nFILbctWUzZ55/Pp/60pex2X2s30Oahiq2RMkhtCzGGKChwuOAygMH778/f3byKzjy0NXMRvBmQBCnEVBVJCiDPH1NSOXgW9/DUYGp279RkWNUeEq/62SmEbOSMxSYIDumfFj7zTA614lRecydM10sEU8Rw+EhjdQxBSk2KZJihgDRCKq4pn4m3LIoJXz5wq9y5nnn0VYBTQoXUUB7Fa05FRXiyjOPehqvOeUUaGI6JU+C2NYiT9cXJTO8tivYUeSwUCgUCoVCoVAoFAqFB5NdKjo93L7opun23TknkSgZbYS9ly7lvLPO5OWnvpJNg0miRqpeRSSiKFGE+yYnWH/n7Xzuq/9IW2VxxEBJ7h2tApYLvQNG3TpLZs3lXae9hSc+9vE0kwNCTOJEVKd1o/HIrNBPUTpVzCPX33Ybr/yLP2PdXXfC7B4DawhAFVOEbli0LZJKxFWoicwLNW9/82k8/QlPxKMxpkpsGvr9PtYaIsk9JNnhMypadKLJaCn4TELTcB/z+u6OjPRnuRiOM224XD5WJ6wZJFeTCJ4FtGgxHVd1+DvJf3pe1yTdt+EwuzyZr/t7J/60FofdVv26h8XIV7/5Td78znfSmz+H6I6bUYUqrxvAnH6vYtXy/fjbN7yByYkBvV6NCUh2f+2oMH1X81A7n0KhUCgUCoVCoVAo/NfmERqvyy6ZmV4ZEVOSM2XEeVMFxEAREGXFPnvz1//zz3nbu89gICn2Jiag6X9zSb1CqukzpDiaSsAwXJUojvYq7L6Gl/7Bizn1+BNYMGcetM6sqpfKrUMgqoMLY1UgNilmNxkbPnvBBXz00+dzx+RmrFIsl5v7IOIuSK9C3ADFHYIb4/0xXvaiEzjhOc9l6dwFaJPOxSNUVU00T+IJguj9o1md+NS5wIY7JDJtVyVvtahMm2QnOVKHOVUVMI9JhHJHVZLI404rae/QtHuGs9mcu+++m7vvuYeNGzey6d57uWPDXdyxYQN33X0X901MENsWcyfGSLSIe5ouF4LSq3r0+z3mjM9mwfx5LFq8mCWLFrNg/nyWLF7MkkWL+MYll/D2972Xsflz2BQbQlXhCKbgJqg5fa2Y35/Fm/7mr6iAqlfjScWaNpnu/u6iXeP2mykqN7rmQ6lLqlAoFAqFQqFQKBQK/zX5/wAAAP//7d15uKVVdefx79r7PefWXNRAAcU8CSgSAqIi2oQIKsQpJpr4mE5ak+7EGI2dwaAJMQYFTLRjx25pB2KMneDQ2CiJQdFIAsaoKCKiCCJDBYqxCquoqnvPefda+WPv99xzzz13qFvnFlSyPs8DdYf3vNN57x/n96y19j4bOu1Je1Ie5hx7M47m2Lr8WwKTErIIRtuE837yuezYtp0/fe//JI5VJBG0mRMkk4FMKEeKvSqgXD1UJePgdQfwuxf8Js85+TRiJxHzpGqgbwU0M5IZ2hUCgYcf3cqlH76Myz/zKWzJEizkoeKtEPMMqiqCQSolPZUa1MrTTz6ZN/7qa3nyMcfQShCTESSQylBsLdtL6GtqG6hwaki5vhzOTb+TVgaLqxohBNTykHRV692b1NX88xDQEKgxdoyP88jWrTz46I+4855N3PfA/fzgjjt48IEHeHDnNrZt386OnTtJKZW7pHm2kwiKIqECcrjVNPFZ0xqIYbUSei2K+TraVcWK9hLWrFnLI1u3sCN1SQKtqkKSIiHfz6qKRIX991vDu995CQdv2IAkhRjpjS6fzJYeV3P9fXjg5JxzzjnnnHNuMe2V0GmxVsVaaLWGSOz7QK5geZ5Pf7tY3ufA8GuzXD3UWwEtFzW9/KUvpVN3+T8fvowdqYuKQQhUVUVdJwJ9w7dN6EagyoO6z3zG6Vx0/u+zSlpYV6laFaiWIeaQyDOUTAKVwoR2eXjrI/z2H76FG39wK7p8CXW3pqKinSKI5dXvWpE65RXxohqrlyzh11/9y7zyJS9hzIRYArQaQ6OUOU3QVICpldXpBu71oN6cplI8Zn3b91dJaZ1nQiXLoV+uBDM0CNt27OK+hx7ijrvu4ov/+CW++/3buPf++6lNkBio2m1qcnubWDlmaBFDC4lgqr0h4jFUvbFQItK79wkgaL6mmIOvGiPGCCJ0zdgpxqMP3EfZEUkToRYqCSCRriaqSli7fAWX/PHbOOKgjaRdE4wtWYKEsvqeNKHknjHLQV3/PR58Hwaf+8G/s9n+7jxwcs4555xzzjm32PZK6LSQD7jT2twGzBY4zTeMmmz3Cr1CHVXtrXg2+AG/mUtUtqSjSmi1SCnxcy//WVIw3vehD4EptQimWkKP0HuNCbQSdHft4nfe+Fu86rwXs0JDHu5dRVTIrXRAlEA31YRAnsdUGz+4ZxOvfdNv8+CObejYEkyVmBOPUtUjWJ2oqiqf60SH008+lbe96XwOXLOWqgzQlhjyKnqmKEpgauVXWSSuXDyUVC6305mRwzrK4GwI0gzinhzUraY5pFMlhkgnGdVYRVfh9rvu5trrr+PL3/ga37vjDh6b2EWMkWSah6svaVNRVqkLKd/TUqEmZnkWVMhTuSWGXkCm5N9BQM3K1PMAlnK42LS3WV49MDaznRQ6VmMhP3N1XedASktARm53jKpc/LY/5oSjjkVTTXvZWFkFT5oHpSmfmvac7a7+v4HBn89kPsd6PIaYO+ecc84555z7j0fumBhf3JKHgc+28/0APlfoNOsh5/GButnv0BXGmP7BvGnDCtP23UynDnSBj37841z6F3+BjbWo627ZYjKoyhVFRlR48uFHcfH5v8/RBx9KJOaQJwgpQpDQm0uEJWIIfPYf/oEL3vUnjIdcuaNahm0Hy8FRCEQVRA0JQitGfutXX8fPnHMOy6sWiiEhTgkymha55n/9FVmKznIvy+pwYkSjN9spYQQU1Zy/xBhJImy6fzM33vJdrv3qV/n2rd/j3i0PMT4+QawihNzOp6pUIWApIVbOS/K+c5VUHm4uJdzqDQrXXGJlTVKWl6vDmgo2Ql61LtrkAPPm3SuXJ8hktZbllQo15WvUIFShxTIi77n4Ek467ikEVSQKIUxfmW9YO+LkfZycEzbfZ3u+odNcQex8q6D2Vmvg9h079s6BnHPOOeecc84NtXzZsiE5x+js9dBpvvYkdJrPfhuhrMrWHzY1Zhq8HPrmHfVLKUGo+OgnP8H/uuyDKBFBSKJ5MLflldoqgTrvjY2r1vHW3/k9zjjlFKIJ7ZCrnSwKdVJS6kJV8fFPXcGfXvo+UhAmRFERhJArlyLUZah3kEDsJo4/4kjeev6bOeHIo6lqqKrc1mYiSAhDA4pe4NT3u+b+T47yzkPSQ0qYaK4SkkhQK9VQoAZdjPu3bOGb372ZL/7T9Vx/w9d5ZPt2tB2oWjFXIeVbkCulynH75raXgEgmB48DoaxypxgRIWoOuhTJIZSVACo0JUwGmudWiSZSlUMksck5W73jCUQFLaGemdGSSDRh3X5r+JO3XcjxRxxFEEHKcyDBpoQ0w57XqT+bDJ1m2n6m1y60nXR68DXXC3Zr984555xzzjnn3FBPyNBJJK/ythih00xmazma8vPSKiehP6SSXjeVEeikms9fey3v+NN3kUTokFAzqhhQTagmZKxFnWqWxhY7t27jdf/5Nbz2Na9mWWxjSQkRalPqGPnIJz/Ge9//fjpRMEKuJrJcnbOk1aKbuiRNVJorhs4+4zm884I/YiwZyyRXYJkZFiwPCO91gg2piGl+FHKgowO3JFdLBdqpRuuaVmxRayLGSFcCO1OXb916Gx/9xMe49l++zGOdcZasWE6d8murANqt0Rh6QVNvELkIllJuF4RcsVUGsxPKdmX6t5rmWUspR1OptLQJTYVTQqKA5ecoJaNqBbqWiCZUEvPQ9CkPQR703iG37gWESo21S1fw7ovfydFHHEUrBCopaxGKlYbG3XnIp4dOzbM+zGAAONP7Npe5jjN4is4555xzzjnn3J56woVOzYfieX9AHpGZQqdprXc2tUpoWNWTmNFJiWu/+hXeevE7sFaLTkp0uxPEGDGMukQeMUZEjXYNxx95FBe++S0cdchhVAodS1x+1ZW857IPMq4phylMBkECVBJQrQlArI3zX/+bvOh5z2fl2BJEoV3a3kxyQ5zEeVTXNKOQBip40Jy5mda5wsoMa7cwEe7YdDd/fcWn+Ltrv8T2HeOMpw5hrMWEJSryzKWUlCo09zrkVeyC9Vr8tMxZogw572tII6U8p0pFsDq3zwUztNOlW3fz+ZkhmudLiZBX/tOaUFaes+VL6KJIMlohwsA9CAZ1XROWtEmaWNpqs2H5at594UUceeihgBFCVdr9Zm5xmz0Umho6wfDZTcOe/z0JnXZrjpOHTs4555xzzjnnRuAJGzotZnXT4DFmCwqmzdNRmVZ9Mq0NT5WUElZV/MuN3+Rtl1zEw9t+hIS8WhxMzpIycjiCGiEZG1au5g2/9lrOOfMsPnblFbz3Qx9gIpQJSonJ6q9yzKBKFQNrV63md37tdZz77DOJmiuHJJYGsjIrCgMRnf3e9Le3SRnMlIclkedzC2qJGANbd+3i+hu+ziev+gw3fucWdnQnsHbIFUr0DWkvbXciUqI2AYm9ex6aoe3N+0GuytGUMDWiBJYvXcrY2Bjr9lvDIQcexP7r17N29X6sWbWK/VavZsXy5Swda7Os1aIlgRhCWT1PSMADW7by4Ss+yddvujHPj8q/mvZe91bdS4mTjjmei37/Dzlw7frezKxQZk/N9azM/PxOD53m+3oPnZxzzjnnnHPO7UuecKHT3rLg+Tg6JGTqfV2qdUKu7KlVsRD44b338sbf+102P/gAKQoa8uCjWFrCkmquQAJaBDqP7eQnzjyLL3/tK9SV0KnrcoRALFVDsVQCBYUN69ZyydvfzklHH0u7VkhGrCISBVXDmmHhAaI1odfUe2GWh4hLM6JIwIKiqgSFYAFEqAV27NrB56+7jg994nJ+eOcPsbHlaAyodbGgBDFEhUiAWtFKelVMZiChImmTgxmoYprb5YLAsqVLOXDjQRxz2JE8+YQTOObwIzj04ENYu2YtK2KgIp9nMwMqmRIlr5IXTOmKYZqroSZU+f7td/Dmiy7kzs2bCTHm+9/XYijk75tAKYpw9rPP5MLfewutBBIkz4gq7XdpAYO8+56gGSudhu2vf67W3mo19dDJOeecc84559woPCFCp1Eu4T7ffc0nIBj6Id+mttM1g8jzC3Ty92VYdW4bUyQG3vCW87nua18lLFuGduvcDtYM9bZ68hBWZjA1wUhSguWB2UZAlrbBjBbC/stW8jeXfoD1+61F1GjRtJfJkHOaXEdv2Cp9FQGta0LI85cUQ1Rpx4qJpHSryMc/cyWXvPfPmbBEXDJWVngLKKnsJw8drzV/H0IgqUL5N8bYO1Znx07qiQ7rV+3HM572DJ51+rM4/bRTOWjDBqpSpYQCdSIYpTVRpwweN1OqKtDtdnIIRW4/1BC55/7N/MFFb+fGW25Bx1oE62tbC2U1vBBygKU5dOtMTHDhH1zAC886h0rLfYqT1xfY0wBo5kqnQTOtqhjKMzNTxdUe89DJOeecc84559wIPCFCp1EaDATmM6B5tv1M/8XU0GnKNqJTWu6C5cxHgI4ZO1Pi/131Gf78/e8jjLXoWA5hTJVgeSB2s5JekIA2X5dgK6iRYqAOuSXvpGOexP/4wwvZuHw10SBUsVcB1H9OgpSV4GbOO/JAbHLYU9e911gI7OpM8JdXXMFHP30FD+54jK7kVkCx6S2GZkq0JrSCKgRqwEJAA3R3jbNy6TJ+7IQTOfuMZ/PMp57ExvUbWLZ0Ga0qkro1Mddw5WAJcoDXtNy1JF9ruQ41JURBaiUB0opseuQR/vdlH+Ca669j2/guQlXRsQSqeYU/yDOlREhRkJSICTauW89FF7yNE489lqgQYkVtuSRLpMwwN1vU0Kn/uZvW2tn3PDTfLwoPnZxzzjnnnHPOjcA+EzrNZ9n33Vmha8HzceYROgFECTkYUetV36QSwHz9m9/gkvf8GfdteShXM6khBJJpri4S8tDuXlRE37BtZaxq8fTjT+Sdb/kD1i5fiYkwVrUQK0PG+1v+goH17SePV5qWK+SwwwhYGfAtdDpdrvzHf+AvL7+cO+++h9bSJexMHTQIoRTZTKn0Iu87ob2qo6BgqqxauZLjjz2O5595Fk976klsPGgjy2PAujVIDlKixDz2XI2k5TpC2Wvo9cPlMM/ARFAUsRyQ3fvAA1z5uau5/G8/zZbHtlG3SpWV5XsZSzteADDJ9z4GqqSc+Yxn8d9//Tc4YN1axghltb+AlQCtqayiWWmP+T0708Op+Vc69e+jOV5/yDfK0GnK/jx0cs4555xzzjk3Ans1dJpvS9tc28z22t0Jnfo/xM9n23xi01era7ZhYEh3rxpHlVarharmoEThRzsf448ufjs33HQjhtCppVQHaS+0gb6wrQwDjzFST0zw7gveyrnPPAORQFW1CKmsUCdCCM1ryZVOkzO6h+YdvfugCYmBrsD37r6bt7/7XXzl5ptYsmwFSRNiSmRynlIdIJLb1EIIuVoqBMCgVpbGikP2P5Dznvd8zj3nHA474EDSRJcq5tXkhDzLKqVEDJEgkZS6ECSv1BdL8KalpS4ExHI7HElJEWpg88OP8LFPX8nfXPFJdqWa1rKljHc6JKuJMaJ1ykPASxCG5psw1moTauW1/+XV/OIrfh6rE6EEh1VV5WvUfF97M6/mNSx8hmcnv2rO0GlKiDeittO5TBmQ7qGTc84555xzzrkR2GcqnUa9ql1TodN80F7Qh/u+AGqm0Mkgz24q1SmaBzaVr+EL1/8T73jnJexS0GB0VUlixBBRywFIVPIsoSAkMZIqLRM2rl3P63/lv/GC/3Qmq6oWdVKsaqqWYu/WiynEQF0rMeRV6KoQ6JKaMyVMdKjaLR7cto1LLn0fV17zeazVJlleb6632ptpDo00IaGEfKXNrmpVTHQmWLV0KS97/nm88sUv47CDDqKSajL1UkNCnvuUV8IrK9hhSIiknEblczagTlRVRFO5LxapqgoLwi13/pBL/+JDfPGfr6PTalHHQDLD6kRbYm6HI1dGJRWkHZjQDstii3rnOD924lO56II/4sBV+zFmQl3ptNUIsRym9QcxMz2LQ8MiyYPbpz0686zcG/a8N+11o57p1Dueh07OOeecc84550ZgnwmdRjlsHHav0mnmkxpotQtTb2Xz7bBjiERUDakimx98gPd/5MNc/cXP0zHoYlQxUnfrPKcp5fYuBTTkyptokmc81TUHbziAs5/zHF7xkp/mmEMOgTIwO0iApGgAJJ9rEHK7nSktCZgmzKDbqrjys3/HpX/1Ee7bspWOgKXJ6p4UwEKZJ2RG0EQQoQqBTll97tQTTuQlz3sBZz3zGazbby3B8j2OIUwNMiQHWSb5x4IRQpk7JYImzY9NyjOYsFxNVbVabBkf5/qvfoWPX3Ult9x2K+OdDsRIjeSpVOX6Ks3hTJ1SnhEVA6n05R2wfDWv/rlXcu7zns/KJctoC8RkdOLMc7zmW9XUvN+TPxweOj2h7WOn65xzzjnnnHPuiWmfCZ1GWem00Hk408KjXuhUpiTJ1Na+MOQQk78PmFIWaMuvveYfv8QHPvIR7t58PyrNzCLDtMwUQtDSmtXsO5Uh19bpMkbguaefwQuf/wJ+/MQT2bBqDUGMWpsTyWGThEAVI9rpoiLc88Bm/uQDH8wVQ1WgNohUkDpUms83RbCQq4DqlBhrV2i3ZmkI/NiJJ/GLP/sKzjjlNJYGIdWJVrtNXSdiK5Lq3FZo5HFIZWR6787l4iYjWImgUg7MrBJqM3bWXe645x7+6Z+/zFVXf567HtxMaoXeanJ5YHue/1SX3CmUOU4SczhXEQityLNPP53X/9JrOPKAg1BypVBEEDXqMLzyKFf/hKnf972XzfO0L4dOU67piX+6zjnnnHPOOef2AftM6PREMK19akilU/+H99lCJ1XyvCFVgoBqImF0DC697DI+8f8/hZRV17qWUDMqG6yWElJKWKBXGdRuV+zYvp39V6zmBWedzate/nMcuXEj7VARtCa2KtQSSKQW4TNf+hIXXPwO6laLXamLBcFSImqgCs0Q7lxhFUOFqREDdMfHefopp/C7r3s9Jx39JGRHl3a7xYR2ia2KlPIcJU0JqapmjFIe3o0SS2dYKUwCM1pIHtwdAkrNv27Zwt9+4Ro+fc3nuH3T3YQYWBLHmLCEBkFTok0gJMvXEw2VPFfK6rpUUAXGQuCwAzZywZvO58Tjj0M6iVYQupaoqoo65TbDMEPgZCUMy+veTf58evXanodOuxOu7m6V3ny2NzPk39MfrXPOOeecc865x81eCZ3mGr483/k2zbbz2X7WUxqyGthCTL5WyoJmOZxofteEToP7N8urwzUTvgMCKoQQSBhJhPsfeoi/uvyv+eRVV0K7IpmhqazARl55TcmtawntVUahdZ6bZHk7MdiwajWnnfBUfullL+fkp5xAu12xZXwXv3XBW/nyTTfRCcK4GRIUUCqDlhkkIwXBYujFLdqtOeGoY3nzb7yBk590HK2Y+/0EaFURTXW+AxKbq81BVq/YKocwYrm6iFjlcCrAjk6XG775Df72C5/nhu/ezKNbt+XQLZSqJVU6IVc35XDEqCQ0iRjd1CFGISmMxUB3fIJDDjyQN/3GGznt1FNZKS2qZkVAMVKpGmvex/lVv0nv/zYlTCoVZyWgogkIF7HSaba/g2Hto/N+1r3SyTnnnHPOOefcCOz11etmCp3ms4Jcs+0o7UnoNNv1hDILab77DsReTmFmqOXWuVtv/z4f+b8f5bqvfZUJlFbVpu7WEEvFlEAKhmiJQEKufmqOG0KgZULqdBkLgUMPOpinnXIqN9/8He64+y4mxOg2A71NiGY0M8ODCF2rGWuPUe/axVGHH8FrXvkqzj3jTJbHSDCjNsViE0zl1qxIzi2sDE0nlKDMjBjzdW7vTPDolq187/Y7uOW227jxO9/m1jt/yGOdXYyXVfSk1Nzk8C7f5zLlqdegJyKIGZqU0G7ltrpdNUcffhgvf/GL+Kmzz2blihVYne9J7L0fhmG5tRGmBTOjfs72thDClOdgt+zbl+6cc84555xz7glin2mvmyl0GgwI5ttCNGzfCzmnmcKJAL0P7/PZvzaVQZZnGwUJ1KbUlljSavMv37qRD3zib/j2jd8u91SoUxcVI0lu/iIIWALClCoYE3JVlYAaaNI8XFutzGiqkRB61VG969NcWVWp8tJzz+UNr/kVNuy3BuqEleNaDHkVNYPYdytMBFMl1TXbdu1i62Pb2fzQA9z03e9w973/yrdvu43NDz7Itp07abVatKoxVLtIDHnVPjXUlBBCmftUKsNKRRhmaPkRyWhXFWrGAevW8pqXv4oXvuB5LK8qUp2oBEximZ9V3h8BM0VLC96oV4Kbjz2t2JuNSFlZcJZ9z1gFtZdCp+07duydAznnnHPOOeecG2r5smVDR82MyqKHTsb8K4lmC3EGf9c/vHnYa+aqVuk/p2Efzs1yGLE7FS/NB32g91qxXDE0VwhQI6VqJ4c3EqCbaqpWBWrUJlBFHt6ylXe958+49vrrkCpAK+YZR3UqS9MpIUS075h5gHg+TgwVTb6iWoMqMQYslanm5T8DghpiyrGHHs55Zz2XlgQ27L+etev3Z9Xq1UhVAdDpdNj+2GNs2bqFrdt+xP0PPcjdmzZx11138chDD7FtfAfdVLN0xXJMBIl5Nbu6tAgGA6uVUEW0rnPQFQIpGklLOFPaGM3KPUKoqsCuiXGCGkcffBi/+brX8Zynn04oc6eC5XAtV/zE0pKY86tQKp363+/+r+cKa5r3e08sVvVes+/Z9jvrNeyl0OnpP3Xe3jmQc84555xzzrmhrvjghzh048ZF2/8+U+nU213fimFNwDMYEgydoTTwfdP6NtMH8/7QaT4tV/OZRzWbYP0TocqQ8FKFIwoJMDVEIhOp5uEtD/O5L3yBz17zOX6w6W7aS8ZKS15ueRNCCaEA0xx8GWgyJAghRiYmJibDscBkGVARDZKWdjvNoZQBIUYqIgFBQl5tTs2og6FAEsvBjuQqJZEcGtV1na9HhAio5aHfqBLJs6mkrHKnloeDm5Qh3kLeLgQkGfX4BOvWrOEnf+JMfvqFL+KYQw9nrNXO4VUQcjGUIs1xJt+Mae9z868MCQeHBVBzhU4zDRmf6Tmc6feLrX/u05SA1UMn55xzzjnnnPsPYbFDp2rR9lzszofp2SpMBn++J+1QCw2IFlTZUkKUOTfr9eKRV4zTkhkl7a2aFkOkrhNLWxUHrd/AL//CL/CKn3kZX//Wt7j6C9fwre/czCPbf4RYIMSIEjBLYBVJE4RAkhoxwzqJUMUSZJVB3wLSC9iUJIJGMASqqrTRKUGUWoxIzC1uMc/LtnKtTYiRAxyjJQFNNbGveU/LvaEET1paCtWMBITYVGQFBMszmdRY0g485ckncN7Z53DG6c9k//3WEFIimqB1wiQQJK/AV0ZMkeuaFERKHZfkOqfdrGKb7/a7U9nXeDxnSO32oHHnnHPOOeecc24eFj102t0P9gvZz2yVKPNpMZrr9/P9ID5s+5leOa3qhcnZS2I25YWK5thJA1WIqCpBDEs1y2KLs575LM561hn8aOcOrrr67/ns1X/PnXffAwJJBc3lSXTrmlZV5RXmYuxrW4PQnHuZbyQSJod0qyJmVAgSqt5spFpKxVlpI2yuPZT5VLmSqfxeAjE2X09W2DQzwgWoYj7HGCPUSlsqtNulioFDNh7Mmc96Ni8691wOP+RQoiZIhtRKRQA1qjK/yswwCb2V46RpLyzHs4EYcLYV3oZVxC0kmBlW5bS77Zsz7W9PVl8c/DqvCujBk3POOeecc865PbfoodMwi11RsSf73pOKkz1Zpl5Lc53Mdnwp86L6+uCq3iBvYVXV5udf9NP8/ItfytZt2/na12/g6s99jm/e/C2279hFNdZibKxN14yUElWrIqWEqpJUqaoqh0alSqkJRqIESHm4t2BlZTnrta5V/SGF0aueakqNjBw+NVdmqqjEHEjVHaqqwgw63YSYMbFjG2uWr+TE447jheedxzNPO421q1aDQSuAdmtiCJhqDqgAC+T7JzJnqNT/XkGev9X/u0GLvaLdXBV+g2HmYv397O1B4s4555xzzjnn/n17XEKnBcmpwnCiU2Y8weKsCDYfC53R08xz6p/rNN3UlkIRIanmIdll3lFE6KbE+tWrecFzz+Kcn/wJtj76KLff+UNu+f73uOGmm7jt9h+wffs2tDuOhEA7RlIV89E1VyVZUixQ9i+EKHk4ObntTzQfq5JSUFQqtURArIQjmkuYUhgIS0QQzZVaYqATXVasXMGxxxzL004+mZOf/BSOP+JI1u63liCCpkQgD2Q3VWJpywtVRC3Pj7KQA67A5PymfP+Ht9ENq/IZ1D+sfrGHfs9kd1dmnNx4lr+XaSeQ75NzzjnnnHPOOTdKj2voNMqKjcF9PZ7zafpbp4a1/o3smrWsVKf5eLkNTmmLgCm1JTBj/9Ur2XDKyZzxtFP5r6/6RbZs28Y9m+7h1u/fyu23/4C777mH+7Y+wqOPPkoyo+6kPLDbBAt53pNhOezBQPN8JJU8H0mZDC1K/VNumQsltKlze5sAVRVZuXIFGzas54jDDue4o4/mhGOexNFHHMn+q/cDLM93SkqsFYmTMZKZTmlJs3xi+bfl3PrvbH9oNOt9nOc2ow6chgVfsw0gX7Tnefak0znnnHPOOeecW5C9HjrNL3RpPozPv6pDgk37ED8siBo2R2eUH+oHV0Pr33dKaUrVTGPakPRSPTTn2ZQB4FPCFbFe/BMl5Mqf5jySYpZYu2wp+x33JH78hOOJMRIlsr2u2bZtG3fdeSffu/VWNm/ezKb77mXTpk1s276dTt1lotslmebh3wQCgdjKLXmaFFNFghBbkdiqWL58BQcfvJHD1u/PIQcdxAnHHc8xxxzD2nXraLfHcn5VJ1LK4ZjVNaGKZXZUQCyfr5UKLw2hN3tq8h6U+z4QOAVAbfh7Ovj+D9umv2JtIfpXwWsCwbmOOcxMFVkLrbyaaT5VM1jdB4k755xzzjnnnBuVvR469Yc+M3/AbZKEMhdoHq0/uxMkzPfnu2uu/c80O2hoRZRMv+ow9DZMDzOagKMJuAZb/poWOTNDuzVKTTtE1q1axbqTTuKUk04q1UOQ6oRqwlKimxKdOtHtdKiTUndrUlKC5PBpyZIxxlqRVlURqooYAzFWOaQqAZCUe5DGO0QRKqBVfkbIq91NKbwRKav35Xukg9dbVs1rxoNrc/MAE+3dxMHh4MNCycHt9mR1u/62vPmstLg7z2DzN7SQyqvBwKlpQUQev5ZU55xzzjnnnHP/Pj0ulU7zn5MjA/+O5viLYabKmGFhx+DP53tOJUvprRQ3dJsZ5hdNCVnMCJQqqRL4hCZ86JegJYLEFoQKWiXgEfIcKfK+KK80oXwvWCC3/TWBUcgzmaAMH4+BUKq5rCyil0rbXrM/JJBjpBw+BoM09J7kFdesGSE+2w0q5golR/WczLV64kKCnpTyXdjTkGix/hacc84555xzzjl4nGY6DWsxG7LVtNfA1AClqRyaqxJqT5enH4XBoK3fvGcPNdsv4LjNcZp/Z1oVjaYlTYBYwqWUEAlN9gOAWgICEssA7970bkG0BFoxghkp0Jv6pKWqxix/HfouqBcvSV7Fb/Lch1XnzN/uBEwLfUaGtXIu5HUzbdNfJbfQYfVzHc/b65xzzjnnnHPOjdJeD536PzA3M2+GmzrduH/bwfCmqZR5PM0UBoxymPVCzDZcvflaVUkl2JEgA/dSIQoGvcokAGIACyiJKHlVOQyiBLpR0f4ASwGkFx1ZGUA+5RyaVegwMCP2spTpoUr//R02Azu31YVZw7kpw8ibK1XtCzJ3L4CaaX7Y7u5nNoPB67Dj7u7+JvflgZNzzjnnnHPOudF6XNrrhv07lEzOwsldYTrlg/dkyDN137OtADbjoRYwmHkwZBh2TTPNmhqczxQk9PKVNEfllg7Of5phuPaUwGbwZzb1d8LUaxl63Cnf9CYoUTdLyAmkZuW6yZ2Vb/qqlfq+SH1f91+VzpZF9ukVWPXPKrIwZZv5vqcLqRya6bVz7Wu2gKe/Kq5/IP2wAeAz7keGz5GSvvdCy/5CDJh5pZNzzjnnnHPOudEKc2/y+BkMgoZV6YzKQgczL+Q4c5m9Rmdqi6HP5dk3Lcb7tpC2Qw+ZnHPOOeecc84tlsWvdNqDz9a9sIkhS7kN0avW2Us5zJ7M/xkciO1co3nedztEmuffyaDd/TtzzjnnnHPOOefmQ+6YGPePmc65ve4bN3/78T4F55xzzjnnnPsP7cTjjmes3V60/Xvo5JxzzjnnnHPOOedG7gk908k555xzzjnnnHPO7Zs8dHLOOeecc84555xzI+ehk3POOeecc84555wbOQ+dnHPOOeecc84559zIeejknHPOOeecc84550bOQyfnnHPOOeecc845N3IeOjnnnHPOOeecc865kfPQyTnnnHPOOeecc86NnIdOzjnnnHPOOeecc27kPHRyzjnnnHPOOeeccyPnoZNzzjnnnHPOOeecGzkPnZxzzjnnnHPOOefcyHno5JxzzjnnnHPOOedGzkMn55xzzjnnnHPOOTdyHjo555xzzjnnnHPOuZHz0Mk555xzzjnnnHPOjZyHTs4555xzzjnnnHNu5Dx0cs4555xzzjnnnHMj56GTc84555xzzjnnnBs5D52cc84555xzzjnn3Mh56OScc84555xzzjnnRs5DJ+ecc84555xzzjk3cv8Gx4WjR1ITffIAAAAASUVORK5CYII=;" vertex="1" parent="1">
          <mxGeometry x="250" y="20" width="520" height="104" as="geometry" />
        </mxCell>
      </root>
    </mxGraphModel>
  </diagram>
</mxfile>
